# Elemental eruptions v001; generated in Blender; +Y up, height 1, root pivot
o ice_spire_01
v 0.1863881 0.0000000 -0.0164064
v 0.1204059 0.0000000 -0.1423388
v -0.0737797 0.0000000 -0.1501534
v -0.1762283 0.0000000 -0.0438921
v -0.1785307 0.0000000 0.0833151
v -0.0206090 0.0000000 0.1435819
v 0.1316454 0.0000000 0.0946135
v 0.2223553 0.1000000 -0.0237027
v 0.1347358 0.1000000 -0.1685642
v -0.0913677 0.1000000 -0.1722706
v -0.2087522 0.1000000 -0.0477745
v -0.2110321 0.1000000 0.1039971
v -0.0178011 0.1000000 0.1633196
v 0.1521300 0.1000000 0.1039986
v 0.2325014 0.3800000 -0.0180257
v 0.1485116 0.3800000 -0.1512564
v -0.0644924 0.3800000 -0.1561288
v -0.1670505 0.3800000 -0.0334260
v -0.1598651 0.3800000 0.1055740
v 0.0172986 0.3800000 0.1616884
v 0.1746364 0.3800000 0.1023139
v 0.2300436 0.7400000 0.0002892
v 0.1674295 0.7400000 -0.0931209
v 0.0164651 0.7400000 -0.0935053
v -0.0565632 0.7400000 -0.0060710
v -0.0511231 0.7400000 0.0963406
v 0.0817743 0.7400000 0.1358237
v 0.1950575 0.7400000 0.0881633
v 0.1649605 0.9200000 0.0177016
v 0.1365548 0.9200000 -0.0158024
v 0.0792935 0.9200000 -0.0170094
v 0.0525756 0.9200000 0.0175778
v 0.0566865 0.9200000 0.0566038
v 0.1077431 0.9200000 0.0696291
v 0.1498526 0.9200000 0.0515854
v 0.1216817 1.0000000 0.0296931
v 0.1208475 1.0000000 0.0286446
v 0.1190913 1.0000000 0.0286921
v 0.1183045 1.0000000 0.0297442
v 0.1184543 1.0000000 0.0309385
v 0.1200381 1.0000000 0.0313511
v 0.1213403 1.0000000 0.0307478
v 0.2862437 0.0120000 -0.0000000
v 0.2249241 0.0120000 -0.0827636
v 0.0934588 0.0120000 -0.0540088
v 0.1133322 0.0120000 0.0428908
v 0.2175903 0.0120000 0.0653839
v 0.3183145 0.1300000 -0.0023642
v 0.2476916 0.1300000 -0.0835524
v 0.1117277 0.1300000 -0.0547312
v 0.1389700 0.1300000 0.0458736
v 0.2482095 0.1300000 0.0691956
v 0.3544189 0.3420000 -0.0027947
v 0.3112397 0.3420000 -0.0510997
v 0.2310546 0.3420000 -0.0309516
v 0.2494392 0.3420000 0.0282219
v 0.3149076 0.3420000 0.0409999
v 0.3217802 0.4500000 -0.0001237
v 0.3204758 0.4500000 -0.0016067
v 0.3180328 0.4500000 -0.0009045
v 0.3186641 0.4500000 0.0008992
v 0.3206942 0.4500000 0.0012498
v -0.1469659 0.0120000 -0.2078699
v -0.1950160 0.0120000 -0.1221946
v -0.1055895 0.0120000 -0.0609845
v -0.0143117 0.0120000 -0.1109020
v -0.0173480 0.0120000 -0.2049698
v -0.1638575 0.1300000 -0.2254728
v -0.2090220 0.1300000 -0.1368950
v -0.1161849 0.1300000 -0.0716946
v -0.0217089 0.1300000 -0.1286594
v -0.0307947 0.1300000 -0.2260301
v -0.1809757 0.4636000 -0.2474649
v -0.2058637 0.4636000 -0.1953294
v -0.1499111 0.4636000 -0.1577547
v -0.0957599 0.4636000 -0.1930456
v -0.1011065 0.4636000 -0.2521731
v -0.1611091 0.6100000 -0.2263792
v -0.1618659 0.6100000 -0.2247230
v -0.1600294 0.6100000 -0.2236300
v -0.1584009 0.6100000 -0.2247464
v -0.1586576 0.6100000 -0.2265462
v -0.1439269 0.0120000 0.2038168
v -0.0307691 0.0120000 0.1934925
v 0.0098721 0.0120000 0.1026112
v -0.1042447 0.0120000 0.0708369
v -0.2061392 0.0120000 0.1203741
v -0.1556286 0.1300000 0.2240494
v -0.0370619 0.1300000 0.2130059
v -0.0003491 0.1300000 0.1159581
v -0.1206406 0.1300000 0.0840740
v -0.2317852 0.1300000 0.1385954
v -0.1738711 0.2584000 0.2492327
v -0.1046361 0.2584000 0.2399716
v -0.0842126 0.2584000 0.1827453
v -0.1561057 0.2584000 0.1656662
v -0.2164998 0.2584000 0.1997888
v -0.1607984 0.3400000 0.2264944
v -0.1586612 0.3400000 0.2261227
v -0.1581127 0.3400000 0.2243559
v -0.1603180 0.3400000 0.2239251
v -0.1622305 0.3400000 0.2249605
vn 0.0000000 -0.9999999 -0.0000000
vn 0.0000000 -1.0000000 0.0000000
vn -0.0000000 -1.0000000 -0.0000000
vn 0.0000000 -1.0000000 -0.0000000
vn 0.0000000 -1.0000000 0.0000000
vn 0.8596067 -0.2412978 -0.4503908
vn 0.8087426 -0.3265730 -0.4891681
vn 0.0393207 -0.2091884 -0.9770845
vn 0.0158452 -0.2557676 -0.9666085
vn -0.6965545 -0.2526193 -0.6715620
vn -0.7006909 -0.2693584 -0.6606652
vn -0.9519311 -0.3058274 -0.0172294
vn -0.9507071 -0.3097612 -0.0142814
vn -0.3512424 -0.1718007 0.9203876
vn -0.2816356 -0.2812663 0.9173716
vn 0.3026965 -0.1503347 0.9411559
vn 0.3234538 -0.1919653 0.9265674
vn 0.8613282 -0.2788077 0.4247115
vn 0.8549256 -0.2192515 0.4701393
vn 0.8556129 -0.0101062 -0.5175175
vn 0.8457691 -0.0198373 -0.5331802
vn 0.0163647 0.0559805 -0.9982978
vn 0.0228266 0.0605608 -0.9979034
vn -0.7202030 0.1420614 -0.6790627
vn -0.7626284 0.1099466 -0.6374243
vn -0.9835880 0.1798232 -0.0147753
vn -0.9881772 0.1445560 0.0510822
vn -0.2932207 0.0423208 0.9551076
vn -0.3015794 0.0497481 0.9521422
vn 0.3295121 -0.0208068 0.9439220
vn 0.3528009 -0.0387795 0.9348945
vn 0.8754917 -0.0414857 0.4814490
vn 0.8990354 -0.0696634 0.4322989
vn 0.8452022 0.0416292 -0.5328228
vn 0.8301695 0.0339782 -0.5564748
vn 0.0225497 0.1664128 -0.9857982
vn 0.0025134 0.1592929 -0.9872282
vn -0.7380494 0.2733885 -0.6168807
vn -0.7382836 0.2732943 -0.6166422
vn -0.9557610 0.2899655 0.0494065
vn -0.9558318 0.2894954 0.0507738
vn -0.2997103 0.1216620 0.9462410
vn -0.2830651 0.1099401 0.9527788
vn 0.3530170 0.0167455 0.9354671
vn 0.3877936 -0.0032298 0.9217405
vn 0.9011111 -0.0158917 0.4332970
vn 0.9283960 -0.0381344 0.3696302
vn 0.7760516 0.3565628 -0.5201988
vn 0.7225192 0.3205010 -0.6125727
vn 0.0023438 0.3904287 -0.9206302
vn 0.0193379 0.3974013 -0.9174412
vn -0.6726169 0.4816358 -0.5617949
vn -0.6974955 0.4724355 -0.5387992
vn -0.8525739 0.5206406 0.0452887
vn -0.8568199 0.5076550 0.0902547
vn -0.2650024 0.3662560 0.8919811
vn -0.2324397 0.3403559 0.9111145
vn 0.3729747 0.2738183 0.8865176
vn 0.3791554 0.2707010 0.8848515
vn 0.8898541 0.2874747 0.3542852
vn 0.8718438 0.2979488 0.3887349
vn 0.6797506 0.4536555 -0.5763124
vn 0.6952278 0.4590196 -0.5531360
vn 0.0183815 0.4890407 -0.8720673
vn -0.0237133 0.4819660 -0.8758690
vn -0.6351788 0.5964893 -0.4906610
vn -0.6435719 0.5951141 -0.4813048
vn -0.7760205 0.6253881 0.0817435
vn -0.7761983 0.6229270 0.0973571
vn -0.2209578 0.4483694 0.8661076
vn -0.2250272 0.4508532 0.8637673
vn 0.3682003 0.3550456 0.8592852
vn 0.3943300 0.3466221 0.8510916
vn 0.8381118 0.3973925 0.3736946
vn 0.8774040 0.3866772 0.2839770
vn 0.0000000 1.0000000 -0.0000000
vn 0.0000000 1.0000000 -0.0000000
vn 0.0000000 0.9999999 -0.0000000
vn 0.0000000 1.0000000 -0.0000000
vn 0.0000000 1.0000000 0.0000000
vn 0.0000000 -1.0000000 -0.0000000
vn 0.0000000 -1.0000000 0.0000000
vn -0.0000000 -1.0000000 -0.0000000
vn 0.7935266 -0.1570374 -0.5879240
vn 0.7371473 -0.2131940 -0.6412192
vn -0.2135961 0.0270909 -0.9765463
vn -0.2072534 0.0334531 -0.9777151
vn -0.9591281 0.2034172 0.1967102
vn -0.9544129 0.1493453 0.2584417
vn -0.2108354 0.0231410 0.9772477
vn -0.2087449 0.0206391 0.9777523
vn 0.6795673 -0.1704012 0.7135487
vn 0.6993672 -0.2036074 0.6851494
vn 0.7486026 -0.1247149 -0.6511838
vn 0.7394920 -0.1272807 -0.6610228
vn -0.2022486 0.2208582 -0.9541054
vn -0.2379282 0.2162701 -0.9468989
vn -0.8547147 0.4646460 0.2314448
vn -0.8527018 0.4502381 0.2649251
vn -0.2049004 0.1921090 0.9597448
vn -0.1884827 0.1786209 0.9656960
vn 0.7092227 -0.1193723 0.6948045
vn 0.7348506 -0.1430191 0.6629781
vn 0.7246968 0.2348896 -0.6477974
vn 0.7296026 0.2363646 -0.6417255
vn -0.2208819 0.4224540 -0.8790585
vn -0.2505932 0.4209426 -0.8717857
vn -0.7870572 0.5663444 0.2445301
vn -0.7847708 0.5556030 0.2746634
vn -0.1795720 0.3482489 0.9200417
vn -0.1602312 0.3373837 0.9276304
vn 0.7269512 0.2034723 0.6558513
vn 0.7711865 0.1830890 0.6097129
vn 0.0000000 0.9999999 -0.0000000
vn 0.0000000 1.0000000 0.0000000
vn 0.0000000 1.0000000 0.0000000
vn 0.0000000 -1.0000000 -0.0000000
vn 0.0000000 -1.0000000 -0.0000000
vn 0.0000000 -1.0000000 0.0000000
vn -0.8606315 -0.1622842 -0.4826772
vn -0.8743593 -0.1916706 -0.4458232
vn -0.5646669 0.0241750 0.8249648
vn -0.5744035 0.0337126 0.8178778
vn 0.4736291 0.1600218 0.8660650
vn 0.5124248 0.1231477 0.8498561
vn 0.9936864 0.1075111 -0.0320743
vn 0.9945087 0.0483786 -0.0927996
vn 0.0221337 -0.1444085 -0.9892706
vn -0.0041230 -0.1761546 -0.9843538
vn -0.8886314 -0.0709533 -0.4531004
vn -0.8999390 -0.0745002 -0.4296041
vn -0.5681185 0.1512469 0.8089287
vn -0.5512773 0.1490118 0.8209074
vn 0.4972441 0.2695426 0.8246789
vn 0.5269440 0.2618586 0.8085543
vn 0.9758533 0.1985414 -0.0910588
vn 0.9758971 0.1995935 -0.0882452
vn -0.0041793 -0.0659938 -0.9978113
vn -0.0586060 -0.0902632 -0.9941921
vn -0.8874338 0.1816454 -0.4236345
vn -0.8946385 0.1802820 -0.4088037
vn -0.5286241 0.3176680 0.7871745
vn -0.4862269 0.3101484 0.8169402
vn 0.5042890 0.3833262 0.7737917
vn 0.5231541 0.3795147 0.7630716
vn 0.9223718 0.3771920 -0.0834052
vn 0.9213785 0.3657856 -0.1313868
vn -0.0581800 0.1500457 -0.9869658
vn -0.0671991 0.1463461 -0.9869483
vn 0.0000000 1.0000000 -0.0000000
vn 0.0000000 1.0000000 -0.0000000
vn 0.0000000 1.0000000 -0.0000000
vn 0.0000000 -1.0000000 0.0000000
vn 0.0000000 -0.9999999 -0.0000000
vn 0.0000000 -1.0000000 -0.0000000
vn 0.0897222 -0.1578352 0.9833808
vn 0.0915531 -0.1594598 0.9829500
vn 0.9123852 0.0328813 0.4080099
vn 0.9352769 -0.0086324 0.3538114
vn 0.2654437 0.1438274 -0.9533380
vn 0.2540216 0.1304039 -0.9583673
vn -0.4368093 0.0438069 -0.8984869
vn -0.4400658 0.0394889 -0.8970968
vn -0.7887467 -0.1790485 0.5880650
vn -0.7216440 -0.2561523 0.6431297
vn 0.0915707 -0.1582805 0.9831389
vn 0.1305845 -0.1729190 0.9762412
vn 0.8602223 0.3925817 0.3254185
vn 0.8667625 0.3911937 0.3093385
vn 0.2113727 0.5651327 -0.7974626
vn 0.1931675 0.5491104 -0.8131201
vn -0.3969920 0.4329542 -0.8092887
vn -0.4539585 0.3851784 -0.8034670
vn -0.7265009 -0.2302054 0.6474581
vn -0.7395250 -0.2158280 0.6375900
vn 0.1284398 0.2480006 0.9602077
vn 0.1663607 0.2398668 0.9564456
vn 0.7782542 0.5631827 0.2777508
vn 0.7887887 0.5637906 0.2448520
vn 0.1887664 0.5770506 -0.7945941
vn 0.1589764 0.5589637 -0.8138096
vn -0.4226069 0.5117942 -0.7479774
vn -0.4076441 0.5165592 -0.7529894
vn -0.7247740 0.2902366 0.6248723
vn -0.7046670 0.2656978 0.6579128
vn 0.0000000 1.0000000 -0.0000000
vn 0.0000000 1.0000000 -0.0000000
vn -0.0000000 1.0000000 -0.0000000
f 1//1 7//1 6//1
f 6//2 5//2 4//2
f 4//3 3//3 2//3
f 2//4 1//4 6//4
f 6//5 4//5 2//5
f 1//6 2//6 9//6
f 1//7 9//7 8//7
f 2//8 3//8 10//8
f 2//9 10//9 9//9
f 3//10 4//10 11//10
f 3//11 11//11 10//11
f 4//12 5//12 12//12
f 4//13 12//13 11//13
f 5//14 6//14 13//14
f 5//15 13//15 12//15
f 6//16 7//16 14//16
f 6//17 14//17 13//17
f 7//18 1//18 8//18
f 7//19 8//19 14//19
f 8//20 9//20 16//20
f 8//21 16//21 15//21
f 9//22 10//22 17//22
f 9//23 17//23 16//23
f 10//24 11//24 18//24
f 10//25 18//25 17//25
f 11//26 12//26 19//26
f 11//27 19//27 18//27
f 12//28 13//28 20//28
f 12//29 20//29 19//29
f 13//30 14//30 21//30
f 13//31 21//31 20//31
f 14//32 8//32 15//32
f 14//33 15//33 21//33
f 15//34 16//34 23//34
f 15//35 23//35 22//35
f 16//36 17//36 24//36
f 16//37 24//37 23//37
f 17//38 18//38 25//38
f 17//39 25//39 24//39
f 18//40 19//40 26//40
f 18//41 26//41 25//41
f 19//42 20//42 27//42
f 19//43 27//43 26//43
f 20//44 21//44 28//44
f 20//45 28//45 27//45
f 21//46 15//46 22//46
f 21//47 22//47 28//47
f 22//48 23//48 30//48
f 22//49 30//49 29//49
f 23//50 24//50 31//50
f 23//51 31//51 30//51
f 24//52 25//52 32//52
f 24//53 32//53 31//53
f 25//54 26//54 33//54
f 25//55 33//55 32//55
f 26//56 27//56 34//56
f 26//57 34//57 33//57
f 27//58 28//58 35//58
f 27//59 35//59 34//59
f 28//60 22//60 29//60
f 28//61 29//61 35//61
f 29//62 30//62 37//62
f 29//63 37//63 36//63
f 30//64 31//64 38//64
f 30//65 38//65 37//65
f 31//66 32//66 39//66
f 31//67 39//67 38//67
f 32//68 33//68 40//68
f 32//69 40//69 39//69
f 33//70 34//70 41//70
f 33//71 41//71 40//71
f 34//72 35//72 42//72
f 34//73 42//73 41//73
f 35//74 29//74 36//74
f 35//75 36//75 42//75
f 42//76 36//76 37//76
f 37//77 38//77 39//77
f 39//78 40//78 41//78
f 41//79 42//79 37//79
f 37//80 39//80 41//80
f 43//81 47//81 46//81
f 46//82 45//82 44//82
f 46//83 44//83 43//83
f 43//84 44//84 49//84
f 43//85 49//85 48//85
f 44//86 45//86 50//86
f 44//87 50//87 49//87
f 45//88 46//88 51//88
f 45//89 51//89 50//89
f 46//90 47//90 52//90
f 46//91 52//91 51//91
f 47//92 43//92 48//92
f 47//93 48//93 52//93
f 48//94 49//94 54//94
f 48//95 54//95 53//95
f 49//96 50//96 55//96
f 49//97 55//97 54//97
f 50//98 51//98 56//98
f 50//99 56//99 55//99
f 51//100 52//100 57//100
f 51//101 57//101 56//101
f 52//102 48//102 53//102
f 52//103 53//103 57//103
f 53//104 54//104 59//104
f 53//105 59//105 58//105
f 54//106 55//106 60//106
f 54//107 60//107 59//107
f 55//108 56//108 61//108
f 55//109 61//109 60//109
f 56//110 57//110 62//110
f 56//111 62//111 61//111
f 57//112 53//112 58//112
f 57//113 58//113 62//113
f 62//114 58//114 59//114
f 59//115 60//115 61//115
f 59//116 61//116 62//116
f 63//117 67//117 66//117
f 66//118 65//118 64//118
f 66//119 64//119 63//119
f 63//120 64//120 69//120
f 63//121 69//121 68//121
f 64//122 65//122 70//122
f 64//123 70//123 69//123
f 65//124 66//124 71//124
f 65//125 71//125 70//125
f 66//126 67//126 72//126
f 66//127 72//127 71//127
f 67//128 63//128 68//128
f 67//129 68//129 72//129
f 68//130 69//130 74//130
f 68//131 74//131 73//131
f 69//132 70//132 75//132
f 69//133 75//133 74//133
f 70//134 71//134 76//134
f 70//135 76//135 75//135
f 71//136 72//136 77//136
f 71//137 77//137 76//137
f 72//138 68//138 73//138
f 72//139 73//139 77//139
f 73//140 74//140 79//140
f 73//141 79//141 78//141
f 74//142 75//142 80//142
f 74//143 80//143 79//143
f 75//144 76//144 81//144
f 75//145 81//145 80//145
f 76//146 77//146 82//146
f 76//147 82//147 81//147
f 77//148 73//148 78//148
f 77//149 78//149 82//149
f 82//150 78//150 79//150
f 79//151 80//151 81//151
f 79//152 81//152 82//152
f 83//153 87//153 86//153
f 86//154 85//154 84//154
f 86//155 84//155 83//155
f 83//156 84//156 89//156
f 83//157 89//157 88//157
f 84//158 85//158 90//158
f 84//159 90//159 89//159
f 85//160 86//160 91//160
f 85//161 91//161 90//161
f 86//162 87//162 92//162
f 86//163 92//163 91//163
f 87//164 83//164 88//164
f 87//165 88//165 92//165
f 88//166 89//166 94//166
f 88//167 94//167 93//167
f 89//168 90//168 95//168
f 89//169 95//169 94//169
f 90//170 91//170 96//170
f 90//171 96//171 95//171
f 91//172 92//172 97//172
f 91//173 97//173 96//173
f 92//174 88//174 93//174
f 92//175 93//175 97//175
f 93//176 94//176 99//176
f 93//177 99//177 98//177
f 94//178 95//178 100//178
f 94//179 100//179 99//179
f 95//180 96//180 101//180
f 95//181 101//181 100//181
f 96//182 97//182 102//182
f 96//183 102//183 101//183
f 97//184 93//184 98//184
f 97//185 98//185 102//185
f 102//186 98//186 99//186
f 99//187 100//187 101//187
f 99//188 101//188 102//188
