# Elemental eruptions v001; generated in Blender; +Y up, height 1, root pivot
o ice_chip
v 0.0918217 0.0000000 -0.0255477
v -0.0273496 0.0000000 -0.1341559
v -0.2497806 0.0000000 -0.1202764
v -0.3133356 0.0000000 0.0303003
v -0.1632984 0.0000000 0.1414805
v 0.0670189 0.0000000 0.1235658
v 0.2895021 0.1900000 -0.0800833
v 0.0368364 0.1900000 -0.2480506
v -0.3405667 0.1900000 -0.1770007
v -0.3925832 0.1900000 0.0944992
v -0.0853817 0.1900000 0.2554100
v 0.2977046 0.1900000 0.1791752
v 0.3308589 0.6400000 -0.0783793
v 0.0945589 0.6400000 -0.1827233
v -0.1935426 0.6400000 -0.0996103
v -0.1717925 0.6400000 0.1173240
v 0.0924307 0.6400000 0.2194174
v 0.3874168 0.6400000 0.1303729
v 0.1868217 1.0000000 -0.0340134
v 0.1528827 1.0000000 -0.0449972
v 0.1167981 1.0000000 -0.0297365
v 0.1272518 1.0000000 -0.0012565
v 0.1653072 1.0000000 0.0085812
v 0.2015230 1.0000000 -0.0075761
vn 0.0000000 -1.0000000 -0.0000000
vn 0.0000000 -1.0000000 0.0000000
vn -0.0000000 -1.0000000 -0.0000000
vn -0.0000000 -1.0000000 0.0000000
vn 0.5594425 -0.5569633 -0.6138533
vn 0.4291363 -0.6317695 -0.6455303
vn -0.0591810 -0.3114294 -0.9484248
vn -0.1636998 -0.4659416 -0.8695407
vn -0.8931821 -0.2451584 -0.3769921
vn -0.8694162 -0.4651555 -0.1665711
vn -0.5792427 -0.2311814 0.7816860
vn -0.4161963 -0.4420713 0.7945776
vn 0.0723469 -0.3600667 0.9301171
vn 0.1622848 -0.5555456 0.8154954
vn 0.7048056 -0.6996465 0.1172341
vn 0.6385214 -0.7693388 -0.0202016
vn 0.5529251 0.0498203 -0.8317403
vn 0.4037163 -0.0336411 -0.9142656
vn -0.1803240 0.2236444 -0.9578447
vn -0.2730305 0.1724171 -0.9464285
vn -0.8814523 0.4410470 -0.1688771
vn -0.9509465 0.2942964 0.0953432
vn -0.4496961 0.2463608 0.8585334
vn -0.3574354 0.1284533 0.9250620
vn 0.1947319 0.0673010 0.9785448
vn 0.2887769 -0.0375901 0.9566581
vn 0.9953204 -0.0913545 -0.0314901
vn 0.9425040 -0.2155912 -0.2553557
vn 0.3885243 0.2736658 -0.8798613
vn 0.2993772 0.2337837 -0.9250506
vn -0.2550587 0.3914798 -0.8841317
vn -0.3597038 0.3836676 -0.8505366
vn -0.7546285 0.6517754 0.0756601
vn -0.7537535 0.5960792 0.2766684
vn -0.3064250 0.5264826 0.7930446
vn -0.2214337 0.4660892 0.8565792
vn 0.2568014 0.4585975 0.8507299
vn 0.3712163 0.4121550 0.8320618
vn 0.8904042 0.3859838 -0.2412401
vn 0.8447892 0.2562120 -0.4697731
vn 0.0000000 0.9999999 -0.0000000
vn 0.0000000 1.0000000 0.0000000
vn 0.0000000 0.9999999 -0.0000000
vn 0.0000000 1.0000000 0.0000000
f 1//1 6//1 5//1
f 5//2 4//2 3//2
f 3//3 2//3 1//3
f 5//4 3//4 1//4
f 1//5 2//5 8//5
f 1//6 8//6 7//6
f 2//7 3//7 9//7
f 2//8 9//8 8//8
f 3//9 4//9 10//9
f 3//10 10//10 9//10
f 4//11 5//11 11//11
f 4//12 11//12 10//12
f 5//13 6//13 12//13
f 5//14 12//14 11//14
f 6//15 1//15 7//15
f 6//16 7//16 12//16
f 7//17 8//17 14//17
f 7//18 14//18 13//18
f 8//19 9//19 15//19
f 8//20 15//20 14//20
f 9//21 10//21 16//21
f 9//22 16//22 15//22
f 10//23 11//23 17//23
f 10//24 17//24 16//24
f 11//25 12//25 18//25
f 11//26 18//26 17//26
f 12//27 7//27 13//27
f 12//28 13//28 18//28
f 13//29 14//29 20//29
f 13//30 20//30 19//30
f 14//31 15//31 21//31
f 14//32 21//32 20//32
f 15//33 16//33 22//33
f 15//34 22//34 21//34
f 16//35 17//35 23//35
f 16//36 23//36 22//36
f 17//37 18//37 24//37
f 17//38 24//38 23//38
f 18//39 13//39 19//39
f 18//40 19//40 24//40
f 24//41 19//41 20//41
f 20//42 21//42 22//42
f 22//43 23//43 24//43
f 20//44 22//44 24//44
