# Elemental eruptions v001; generated in Blender; +Y up, height 1, root pivot
o ice_spire_03
v 0.0719824 0.0000000 -0.1435984
v -0.1279930 0.0000000 -0.1117435
v -0.2392591 0.0000000 0.0304856
v -0.0724977 0.0000000 0.1446263
v 0.1260057 0.0000000 0.1100085
v 0.2269209 0.0000000 -0.0289135
v 0.0800364 0.1000000 -0.1729442
v -0.1472901 0.1000000 -0.1222463
v -0.2798419 0.1000000 0.0409434
v -0.0744380 0.1000000 0.1608470
v 0.1547849 0.1000000 0.1284668
v 0.2699877 0.1000000 -0.0395016
v 0.1186600 0.3800000 -0.1674851
v -0.0884448 0.3800000 -0.1239813
v -0.2032515 0.3800000 0.0298488
v -0.0134552 0.3800000 0.1434151
v 0.2011042 0.3800000 0.1045532
v 0.2930893 0.3800000 -0.0522418
v 0.2035124 0.7400000 -0.1513643
v 0.0528768 0.7400000 -0.1142191
v -0.0264503 0.7400000 -0.0008597
v 0.1142441 0.7400000 0.0788970
v 0.2693184 0.7400000 0.0482695
v 0.3324780 0.7400000 -0.0671508
v 0.2134644 0.9200000 -0.0890649
v 0.1555022 0.9200000 -0.0753481
v 0.1269967 0.9200000 -0.0304985
v 0.1829436 0.9200000 -0.0020976
v 0.2414554 0.9200000 -0.0139680
v 0.2646535 0.9200000 -0.0586132
v 0.2204307 1.0000000 -0.0513688
v 0.2186741 1.0000000 -0.0509006
v 0.2179012 1.0000000 -0.0495297
v 0.2195877 1.0000000 -0.0486899
v 0.2213725 1.0000000 -0.0490678
v 0.2220655 1.0000000 -0.0504628
v 0.0503135 0.0120000 -0.2381186
v -0.0589449 0.0120000 -0.1946905
v -0.0421047 0.0120000 -0.1019355
v 0.0723959 0.0120000 -0.0949572
v 0.1272155 0.0120000 -0.1682227
v 0.0528285 0.1300000 -0.2649324
v -0.0580903 0.1300000 -0.2130905
v -0.0351926 0.1300000 -0.1201806
v 0.0835748 0.1300000 -0.1093255
v 0.1330556 0.1300000 -0.1903721
v 0.0575301 0.3724000 -0.2888305
v -0.0052533 0.3724000 -0.2557505
v 0.0076264 0.3724000 -0.2007361
v 0.0790049 0.3724000 -0.1972360
v 0.1065102 0.3724000 -0.2454856
v 0.0545535 0.4900000 -0.2577768
v 0.0526422 0.4900000 -0.2567778
v 0.0531240 0.4900000 -0.2550812
v 0.0553104 0.4900000 -0.2550538
v 0.0561806 0.4900000 -0.2565448
v -0.2684839 0.0120000 0.0808543
v -0.1740710 0.0120000 0.1394593
v -0.0726486 0.0120000 0.0782827
v -0.1198043 0.0120000 -0.0120308
v -0.2519738 0.0120000 -0.0167708
v -0.2996355 0.1300000 0.0922515
v -0.1949695 0.1300000 0.1487324
v -0.0926002 0.1300000 0.0834371
v -0.1436102 0.1300000 -0.0104247
v -0.2819796 0.1300000 -0.0107324
v -0.3303458 0.4940000 0.1012907
v -0.2695612 0.4940000 0.1321842
v -0.2085875 0.4940000 0.0942722
v -0.2428743 0.4940000 0.0395035
v -0.3231609 0.4940000 0.0420066
v -0.3020084 0.6500000 0.0904648
v -0.3000359 0.6500000 0.0913535
v -0.2982638 0.6500000 0.0901304
v -0.2993249 0.6500000 0.0884754
v -0.3018007 0.6500000 0.0886067
v 0.2190105 0.0120000 0.1492006
v 0.2247683 0.0120000 0.0641740
v 0.1207351 0.0120000 0.0255738
v 0.0288129 0.0120000 0.0964161
v 0.1064090 0.0120000 0.1786671
v 0.2448531 0.1300000 0.1627476
v 0.2442416 0.1300000 0.0746431
v 0.1354297 0.1300000 0.0327763
v 0.0441081 0.1300000 0.1117987
v 0.1259133 0.1300000 0.1996484
v 0.2751972 0.2888000 0.1815014
v 0.2717859 0.2888000 0.1282492
v 0.2063858 0.2888000 0.1063092
v 0.1540334 0.2888000 0.1532446
v 0.2053254 0.2888000 0.2013997
v 0.2474266 0.3800000 0.1671906
v 0.2472792 0.3800000 0.1655690
v 0.2452324 0.3800000 0.1649148
v 0.2437855 0.3800000 0.1664184
v 0.2453223 0.3800000 0.1678716
vn 0.0000000 -1.0000000 -0.0000000
vn 0.0000000 -0.9999999 -0.0000000
vn 0.0000000 -0.9999999 -0.0000000
vn 0.0000000 -1.0000000 0.0000000
vn -0.1559154 -0.1328869 -0.9787908
vn -0.2102042 -0.2596671 -0.9425429
vn -0.7631626 -0.2472770 -0.5970233
vn -0.7587088 -0.2111330 -0.6162660
vn -0.5589906 -0.1433194 0.8166940
vn -0.4835477 -0.2828645 0.8283534
vn 0.1673827 -0.2253330 0.9597959
vn 0.1381605 -0.1559659 0.9780523
vn 0.7778341 -0.2751619 0.5650309
vn 0.7803641 -0.3233747 0.5352203
vn 0.5723440 -0.2730082 -0.7732327
vn 0.5451984 -0.3169708 -0.7760723
vn -0.2174994 0.0396668 -0.9752541
vn -0.2053398 0.0473837 -0.9775431
vn -0.7629340 0.1841361 -0.6196979
vn -0.7907572 0.1625297 -0.5901588
vn -0.4975253 0.1614204 0.8522980
vn -0.5058206 0.1718564 0.8453466
vn 0.1396091 0.0613122 0.9883066
vn 0.1781796 0.0224380 0.9837421
vn 0.8239359 -0.0422669 0.5651045
vn 0.8582925 -0.0989801 0.5035245
vn 0.5736901 -0.0632140 -0.8166294
vn 0.5493326 -0.0831551 -0.8314559
vn -0.2043988 0.1066255 -0.9730633
vn -0.2382315 0.0994139 -0.9661070
vn -0.7581611 0.3240776 -0.5658317
vn -0.7763706 0.3195046 -0.5432913
vn -0.4867314 0.3184362 0.8134439
vn -0.4701789 0.3016618 0.8294166
vn 0.1769535 0.1192136 0.9769726
vn 0.1926580 0.1064812 0.9754715
vn 0.8602129 -0.0732190 0.5046511
vn 0.8736224 -0.0907959 0.4780585
vn 0.5488951 -0.0921721 -0.8307938
vn 0.5443234 -0.0940778 -0.8335834
vn -0.2262450 0.3271253 -0.9174978
vn -0.2173924 0.3299613 -0.9186220
vn -0.7013021 0.5170400 -0.4907596
vn -0.7246439 0.5126090 -0.4605682
vn -0.4266539 0.5015025 0.7526365
vn -0.3995051 0.4701566 0.7869870
vn 0.1817668 0.3463522 0.9203267
vn 0.1867633 0.3429602 0.9205964
vn 0.8384326 0.2941621 0.4588021
vn 0.8506842 0.2845175 0.4420250
vn 0.5292112 0.2512403 -0.8104405
vn 0.4978786 0.2272986 -0.8369302
vn -0.2076741 0.4321654 -0.8775560
vn -0.2323610 0.4310689 -0.8718876
vn -0.6489680 0.6393034 -0.4124702
vn -0.6676690 0.6422648 -0.3764491
vn -0.3661846 0.5878478 0.7213486
vn -0.3618242 0.5840065 0.7266496
vn 0.1792496 0.4326569 0.8835596
vn 0.1870844 0.4289896 0.8837235
vn 0.8165421 0.3914610 0.4242844
vn 0.8257126 0.3872452 0.4101706
vn 0.4809710 0.3390882 -0.8085086
vn 0.4579264 0.3279592 -0.8262846
vn -0.0000000 1.0000000 -0.0000000
vn 0.0000000 1.0000000 0.0000000
vn 0.0000000 1.0000000 -0.0000000
vn 0.0000000 1.0000000 -0.0000000
vn 0.0000000 -1.0000000 -0.0000000
vn 0.0000000 -0.9999999 -0.0000000
vn 0.0000000 -1.0000000 0.0000000
vn -0.3656913 -0.1408125 -0.9200227
vn -0.4154490 -0.1931297 -0.8888774
vn -0.9803589 0.0849477 0.1779896
vn -0.9699945 0.0443015 0.2390564
vn -0.0603457 0.1262834 0.9901571
vn -0.0898852 0.1573253 0.9834478
vn 0.7985636 0.0726343 0.5975119
vn 0.8533756 -0.0174056 0.5210058
vn 0.6616656 -0.1795279 -0.7279893
vn 0.6710023 -0.1687339 -0.7220005
vn -0.4224695 -0.0669898 -0.9038982
vn -0.4647265 -0.0779439 -0.8820170
vn -0.9417277 0.2434814 0.2320900
vn -0.9440761 0.2446821 0.2210226
vn -0.0856535 0.3382576 0.9371475
vn -0.0463625 0.3223927 0.9454700
vn 0.8349575 0.2073391 0.5097611
vn 0.8525344 0.1923283 0.4859988
vn 0.6782932 -0.0851111 -0.7298455
vn 0.6595735 -0.0972311 -0.7453247
vn -0.4550890 0.2164993 -0.8637258
vn -0.4521881 0.2170005 -0.8651224
vn -0.8770893 0.4342232 0.2053400
vn -0.8685969 0.4297724 0.2466478
vn -0.0441339 0.4336026 0.9000228
vn -0.0113243 0.4230716 0.9060254
vn 0.8014391 0.3859585 0.4568713
vn 0.7957488 0.3886765 0.4644506
vn 0.6479714 0.2097504 -0.7322143
vn 0.5937667 0.1803730 -0.7841599
vn -0.0000000 1.0000000 -0.0000000
vn 0.0000000 1.0000000 -0.0000000
vn 0.0000000 0.9999999 -0.0000000
vn -0.0000000 -1.0000000 -0.0000000
vn 0.0000000 -1.0000000 -0.0000000
vn 0.0000000 -0.9999999 -0.0000000
vn -0.5207504 -0.1581557 0.8389314
vn -0.4647241 -0.2058652 0.8611916
vn 0.5158578 0.0498645 0.8552218
vn 0.5375358 0.0289729 0.8427431
vn 0.8716298 0.1820417 -0.4551069
vn 0.8662874 0.1670381 -0.4707913
vn 0.0357747 0.0601443 -0.9975484
vn 0.0022237 0.0140587 -0.9998987
vn -0.9578539 -0.2372237 -0.1619904
vn -0.9579715 -0.2351950 -0.1642376
vn -0.4741183 -0.0572144 0.8786002
vn -0.4522611 -0.0602542 0.8898479
vn 0.5321003 0.1447198 0.8342215
vn 0.5224289 0.1452554 0.8402196
vn 0.8403872 0.2918221 -0.4567156
vn 0.8149573 0.2748697 -0.5101876
vn 0.0022009 0.1436335 -0.9896285
vn -0.0309070 0.1275504 -0.9913504
vn -0.9825617 -0.0787146 -0.1684534
vn -0.9882972 -0.0944574 -0.1197759
vn -0.4484067 0.1433228 0.8822641
vn -0.4069498 0.1366002 0.9031790
vn 0.5020135 0.3100174 0.8073856
vn 0.5400105 0.3102684 0.7823825
vn 0.7661295 0.4277972 -0.4796200
vn 0.7620058 0.4250675 -0.4885333
vn -0.0298239 0.2898410 -0.9566100
vn -0.0508171 0.2823387 -0.9579679
vn -0.9783725 0.1694929 -0.1185731
vn -0.9798712 0.1668914 -0.1095438
vn 0.0000000 1.0000000 0.0000000
vn 0.0000000 1.0000000 -0.0000000
vn -0.0000000 1.0000000 -0.0000000
vn 0.0000000 -1.0000000 -0.0000000
vn -0.0000000 -1.0000000 -0.0000000
vn -0.0000000 -1.0000000 -0.0000000
vn 0.9834983 -0.1682131 0.0665999
vn 0.9769880 -0.2131863 -0.0067811
vn 0.3478299 0.0139051 -0.9374546
vn 0.3589993 0.0235359 -0.9330410
vn -0.6005241 0.1794198 -0.7792170
vn -0.6490819 0.1266163 -0.7501073
vn -0.7273887 -0.0017850 0.6862233
vn -0.7318218 0.0060218 0.6814694
vn 0.2497246 -0.1642469 0.9542853
vn 0.2894667 -0.2137437 0.9330180
vn 0.9856514 -0.1686547 -0.0068412
vn 0.9816276 -0.1801469 -0.0628823
vn 0.3465346 0.2622058 -0.9006453
vn 0.3074511 0.2560442 -0.9164689
vn -0.5485543 0.5451759 -0.6339332
vn -0.5614660 0.5408736 -0.6262681
vn -0.6889124 0.3374335 0.6415125
vn -0.6585059 0.2727719 0.7014025
vn 0.2921517 -0.1670344 0.9416723
vn 0.2709581 -0.1459928 0.9514556
vn 0.9573496 0.2823486 -0.0613271
vn 0.9567285 0.2776754 -0.0869889
vn 0.2874282 0.4281437 -0.8567834
vn 0.2753481 0.4265382 -0.8615385
vn -0.5303165 0.6073421 -0.5915233
vn -0.5757492 0.6012784 -0.5540551
vn -0.5951046 0.4940223 0.6338711
vn -0.5966004 0.4959930 0.6309191
vn 0.2666698 0.2281376 0.9363976
vn 0.3010257 0.2099587 0.9302155
vn 0.0000000 1.0000000 -0.0000000
vn -0.0000000 1.0000000 -0.0000000
vn 0.0000000 1.0000000 0.0000000
f 1//1 6//1 5//1
f 5//2 4//2 3//2
f 3//3 2//3 1//3
f 5//4 3//4 1//4
f 1//5 2//5 8//5
f 1//6 8//6 7//6
f 2//7 3//7 9//7
f 2//8 9//8 8//8
f 3//9 4//9 10//9
f 3//10 10//10 9//10
f 4//11 5//11 11//11
f 4//12 11//12 10//12
f 5//13 6//13 12//13
f 5//14 12//14 11//14
f 6//15 1//15 7//15
f 6//16 7//16 12//16
f 7//17 8//17 14//17
f 7//18 14//18 13//18
f 8//19 9//19 15//19
f 8//20 15//20 14//20
f 9//21 10//21 16//21
f 9//22 16//22 15//22
f 10//23 11//23 17//23
f 10//24 17//24 16//24
f 11//25 12//25 18//25
f 11//26 18//26 17//26
f 12//27 7//27 13//27
f 12//28 13//28 18//28
f 13//29 14//29 20//29
f 13//30 20//30 19//30
f 14//31 15//31 21//31
f 14//32 21//32 20//32
f 15//33 16//33 22//33
f 15//34 22//34 21//34
f 16//35 17//35 23//35
f 16//36 23//36 22//36
f 17//37 18//37 24//37
f 17//38 24//38 23//38
f 18//39 13//39 19//39
f 18//40 19//40 24//40
f 19//41 20//41 26//41
f 19//42 26//42 25//42
f 20//43 21//43 27//43
f 20//44 27//44 26//44
f 21//45 22//45 28//45
f 21//46 28//46 27//46
f 22//47 23//47 29//47
f 22//48 29//48 28//48
f 23//49 24//49 30//49
f 23//50 30//50 29//50
f 24//51 19//51 25//51
f 24//52 25//52 30//52
f 25//53 26//53 32//53
f 25//54 32//54 31//54
f 26//55 27//55 33//55
f 26//56 33//56 32//56
f 27//57 28//57 34//57
f 27//58 34//58 33//58
f 28//59 29//59 35//59
f 28//60 35//60 34//60
f 29//61 30//61 36//61
f 29//62 36//62 35//62
f 30//63 25//63 31//63
f 30//64 31//64 36//64
f 36//65 31//65 32//65
f 32//66 33//66 34//66
f 34//67 35//67 36//67
f 32//68 34//68 36//68
f 37//69 41//69 40//69
f 40//70 39//70 38//70
f 40//71 38//71 37//71
f 37//72 38//72 43//72
f 37//73 43//73 42//73
f 38//74 39//74 44//74
f 38//75 44//75 43//75
f 39//76 40//76 45//76
f 39//77 45//77 44//77
f 40//78 41//78 46//78
f 40//79 46//79 45//79
f 41//80 37//80 42//80
f 41//81 42//81 46//81
f 42//82 43//82 48//82
f 42//83 48//83 47//83
f 43//84 44//84 49//84
f 43//85 49//85 48//85
f 44//86 45//86 50//86
f 44//87 50//87 49//87
f 45//88 46//88 51//88
f 45//89 51//89 50//89
f 46//90 42//90 47//90
f 46//91 47//91 51//91
f 47//92 48//92 53//92
f 47//93 53//93 52//93
f 48//94 49//94 54//94
f 48//95 54//95 53//95
f 49//96 50//96 55//96
f 49//97 55//97 54//97
f 50//98 51//98 56//98
f 50//99 56//99 55//99
f 51//100 47//100 52//100
f 51//101 52//101 56//101
f 56//102 52//102 53//102
f 53//103 54//103 55//103
f 53//104 55//104 56//104
f 57//105 61//105 60//105
f 60//106 59//106 58//106
f 60//107 58//107 57//107
f 57//108 58//108 63//108
f 57//109 63//109 62//109
f 58//110 59//110 64//110
f 58//111 64//111 63//111
f 59//112 60//112 65//112
f 59//113 65//113 64//113
f 60//114 61//114 66//114
f 60//115 66//115 65//115
f 61//116 57//116 62//116
f 61//117 62//117 66//117
f 62//118 63//118 68//118
f 62//119 68//119 67//119
f 63//120 64//120 69//120
f 63//121 69//121 68//121
f 64//122 65//122 70//122
f 64//123 70//123 69//123
f 65//124 66//124 71//124
f 65//125 71//125 70//125
f 66//126 62//126 67//126
f 66//127 67//127 71//127
f 67//128 68//128 73//128
f 67//129 73//129 72//129
f 68//130 69//130 74//130
f 68//131 74//131 73//131
f 69//132 70//132 75//132
f 69//133 75//133 74//133
f 70//134 71//134 76//134
f 70//135 76//135 75//135
f 71//136 67//136 72//136
f 71//137 72//137 76//137
f 76//138 72//138 73//138
f 73//139 74//139 75//139
f 73//140 75//140 76//140
f 77//141 81//141 80//141
f 80//142 79//142 78//142
f 80//143 78//143 77//143
f 77//144 78//144 83//144
f 77//145 83//145 82//145
f 78//146 79//146 84//146
f 78//147 84//147 83//147
f 79//148 80//148 85//148
f 79//149 85//149 84//149
f 80//150 81//150 86//150
f 80//151 86//151 85//151
f 81//152 77//152 82//152
f 81//153 82//153 86//153
f 82//154 83//154 88//154
f 82//155 88//155 87//155
f 83//156 84//156 89//156
f 83//157 89//157 88//157
f 84//158 85//158 90//158
f 84//159 90//159 89//159
f 85//160 86//160 91//160
f 85//161 91//161 90//161
f 86//162 82//162 87//162
f 86//163 87//163 91//163
f 87//164 88//164 93//164
f 87//165 93//165 92//165
f 88//166 89//166 94//166
f 88//167 94//167 93//167
f 89//168 90//168 95//168
f 89//169 95//169 94//169
f 90//170 91//170 96//170
f 90//171 96//171 95//171
f 91//172 87//172 92//172
f 91//173 92//173 96//173
f 96//174 92//174 93//174
f 93//175 94//175 95//175
f 93//176 95//176 96//176
