# Elemental eruptions v001; generated in Blender; +Y up, height 1, root pivot
o ice_spire_02
v 0.1757539 0.0000000 -0.1016465
v 0.0214939 0.0000000 -0.1353646
v -0.1250227 0.0000000 -0.1151986
v -0.1978146 0.0000000 -0.0167384
v -0.1571916 0.0000000 0.0909111
v -0.0237675 0.0000000 0.1496836
v 0.1259714 0.0000000 0.1160728
v 0.2081224 0.0000000 0.0176106
v 0.2016567 0.1000000 -0.1227398
v 0.0197034 0.1000000 -0.1586791
v -0.1509665 0.1000000 -0.1321763
v -0.2384813 0.1000000 -0.0157805
v -0.1715058 0.1000000 0.1043882
v -0.0208683 0.1000000 0.1680605
v 0.1475761 0.1000000 0.1292079
v 0.2503296 0.1000000 0.0165646
v 0.1391999 0.3800000 -0.1277466
v -0.0273829 0.3800000 -0.1620529
v -0.1839147 0.3800000 -0.1316171
v -0.2541407 0.3800000 -0.0226996
v -0.1970275 0.3800000 0.0875261
v -0.0553991 0.3800000 0.1502280
v 0.1007641 0.3800000 0.1053264
v 0.1803785 0.3800000 -0.0019257
v 0.0081426 0.7400000 -0.1228916
v -0.1162738 0.7400000 -0.1456409
v -0.2285856 0.7400000 -0.1190458
v -0.2843422 0.7400000 -0.0397784
v -0.2379354 0.7400000 0.0427876
v -0.1290059 0.7400000 0.0843038
v -0.0117998 0.7400000 0.0525400
v 0.0453377 0.7400000 -0.0300506
v -0.1072029 0.9200000 -0.0774178
v -0.1521120 0.9200000 -0.0870969
v -0.1952108 0.9200000 -0.0767777
v -0.2120796 0.9200000 -0.0456641
v -0.1937994 0.9200000 -0.0161198
v -0.1539374 0.9200000 -0.0005631
v -0.1111456 0.9200000 -0.0134906
v -0.0911561 0.9200000 -0.0443048
v -0.1686087 1.0000000 -0.0510354
v -0.1700166 1.0000000 -0.0512646
v -0.1713594 1.0000000 -0.0509735
v -0.1718115 1.0000000 -0.0499873
v -0.1712583 1.0000000 -0.0490636
v -0.1699825 1.0000000 -0.0486691
v -0.1686717 1.0000000 -0.0490488
v -0.1681105 1.0000000 -0.0500132
v 0.2229686 0.0120000 -0.1534348
v 0.1020906 0.0120000 -0.1850210
v 0.0385490 0.0120000 -0.0971715
v 0.1188193 0.0120000 -0.0205765
v 0.2322612 0.0120000 -0.0614168
v 0.2433591 0.1300000 -0.1698135
v 0.1159493 0.1300000 -0.2018474
v 0.0531761 0.1300000 -0.1071575
v 0.1409495 0.1300000 -0.0293832
v 0.2615047 0.1300000 -0.0728477
v 0.2695672 0.3572000 -0.1873285
v 0.1949003 0.3572000 -0.2028860
v 0.1590582 0.3572000 -0.1479011
v 0.2122352 0.3572000 -0.1019169
v 0.2818119 0.3572000 -0.1308479
v 0.2460942 0.4700000 -0.1685416
v 0.2437365 0.4700000 -0.1690102
v 0.2426472 0.4700000 -0.1672326
v 0.2444154 0.4700000 -0.1658223
v 0.2464897 0.4700000 -0.1668216
v -0.2766033 0.0120000 -0.0817313
v -0.2376717 0.0120000 0.0039389
v -0.1279314 0.0120000 0.0032385
v -0.0647018 0.0120000 -0.0797816
v -0.1757878 0.0120000 -0.1214208
v -0.3071243 0.1300000 -0.0875396
v -0.2637436 0.1300000 0.0026027
v -0.1449649 0.1300000 0.0007722
v -0.0894438 0.1300000 -0.0893920
v -0.2028199 0.1300000 -0.1350936
v -0.3366759 0.4788000 -0.0953589
v -0.3092939 0.4788000 -0.0448126
v -0.2422729 0.4788000 -0.0474156
v -0.2084131 0.4788000 -0.1002631
v -0.2779439 0.4788000 -0.1241176
v -0.3028318 0.6300000 -0.0888587
v -0.3018821 0.6300000 -0.0872991
v -0.2997717 0.6300000 -0.0874005
v -0.2988509 0.6300000 -0.0890843
v -0.3010037 0.6300000 -0.0897928
v 0.0485048 0.0120000 0.2230124
v 0.1289148 0.0120000 0.1677194
v 0.0748708 0.0120000 0.0916432
v -0.0322279 0.0120000 0.1089420
v -0.0632406 0.0120000 0.1972382
v 0.0568018 0.1300000 0.2466978
v 0.1385018 0.1300000 0.1855860
v 0.0798927 0.1300000 0.1051814
v -0.0351317 0.1300000 0.1262590
v -0.0579208 0.1300000 0.2195087
v 0.0642214 0.2736000 0.2766381
v 0.1105197 0.2736000 0.2398109
v 0.0740632 0.2736000 0.1944129
v 0.0077257 0.2736000 0.2074720
v -0.0055646 0.2736000 0.2632933
v 0.0566051 0.3600000 0.2572323
v 0.0579440 0.3600000 0.2560310
v 0.0567949 0.3600000 0.2546660
v 0.0547653 0.3600000 0.2551061
v 0.0543925 0.3600000 0.2568560
vn 0.0000000 -1.0000000 -0.0000000
vn 0.0000000 -1.0000000 -0.0000000
vn 0.0000000 -1.0000000 0.0000000
vn -0.0000000 -1.0000000 -0.0000000
vn 0.0000000 -1.0000000 -0.0000000
vn -0.0000000 -1.0000000 -0.0000000
vn 0.2083765 -0.2185317 -0.9533222
vn 0.1876712 -0.2490273 -0.9501394
vn -0.1336105 -0.1994753 -0.9707512
vn -0.1494404 -0.2270433 -0.9623507
vn -0.7655618 -0.3059071 -0.5659825
vn -0.7635701 -0.2955700 -0.5741072
vn -0.9205595 -0.1785877 0.3473855
vn -0.8218889 -0.3386224 0.4580760
vn -0.3982704 -0.1546067 0.9041446
vn -0.3831850 -0.1770264 0.9065489
vn 0.2157173 -0.1728384 0.9610374
vn 0.2209809 -0.1824674 0.9580569
vn 0.7318639 -0.3025120 0.6106241
vn 0.7170495 -0.2408324 0.6540946
vn 0.9230422 -0.2919379 -0.2505299
vn 0.8759388 -0.3729109 -0.3060534
vn 0.1937340 0.0207611 -0.9808344
vn 0.2016320 0.0274684 -0.9790761
vn -0.1534279 -0.0160808 -0.9880291
vn -0.1906802 -0.0438822 -0.9806710
vn -0.7978676 -0.0594460 -0.5998945
vn -0.8364570 -0.0973506 -0.5393167
vn -0.8723898 -0.0502364 0.4862224
vn -0.8872388 -0.0382602 0.4597211
vn -0.3893121 0.0106474 0.9210444
vn -0.4047551 0.0181643 0.9142448
vn 0.2231349 0.1198150 0.9673960
vn 0.2750879 0.0948565 0.9567282
vn 0.7201416 0.2232902 0.6569152
vn 0.7895449 0.1819886 0.5860878
vn 0.9248609 0.2005209 -0.3231468
vn 0.9287997 0.2119641 -0.3039773
vn 0.2008142 0.0940388 -0.9751053
vn 0.1793106 0.0785029 -0.9806554
vn -0.1908534 0.0105940 -0.9815613
vn -0.2304063 -0.0125331 -0.9730138
vn -0.8365856 -0.0957733 -0.5393996
vn -0.8152277 -0.0811340 -0.5734292
vn -0.8870416 -0.0436788 0.4596189
vn -0.8706579 -0.0498262 0.4893589
vn -0.4033784 0.0843734 0.9111351
vn -0.3551247 0.0754406 0.9317700
vn 0.2694593 0.2216677 0.9371526
vn 0.2549047 0.2243598 0.9405777
vn 0.7584018 0.3284685 0.5629699
vn 0.7784745 0.3223802 0.5385615
vn 0.8969869 0.3305053 -0.2935657
vn 0.8843277 0.3040443 -0.3542901
vn 0.1694616 0.3351735 -0.9267910
vn 0.1968195 0.3568277 -0.9132010
vn -0.2223895 0.2617705 -0.9391588
vn -0.2248030 0.2606151 -0.9389054
vn -0.7813457 0.2957069 -0.5495966
vn -0.8476563 0.2650872 -0.4595731
vn -0.8164778 0.3503839 0.4589066
vn -0.8004714 0.3375513 0.4952825
vn -0.3316596 0.3643478 0.8702027
vn -0.3382509 0.3665847 0.8667191
vn 0.2341048 0.4460907 0.8638275
vn 0.2595506 0.4410226 0.8591464
vn 0.6836314 0.5558495 0.4729475
vn 0.6993249 0.5523916 0.4536610
vn 0.7644730 0.5672551 -0.3062724
vn 0.7552528 0.5437236 -0.3660025
vn 0.1895695 0.4363864 -0.8795626
vn 0.1466336 0.4095021 -0.9004480
vn -0.2174387 0.3577535 -0.9081481
vn -0.1973981 0.3635934 -0.9104031
vn -0.8114612 0.3846757 -0.4399493
vn -0.8424425 0.3757252 -0.3861621
vn -0.7736534 0.4151109 0.4786892
vn -0.7795120 0.4175983 0.4668753
vn -0.3268265 0.4380285 0.8374457
vn -0.2666856 0.4302782 0.8624032
vn 0.2443053 0.5351149 0.8086823
vn 0.2349995 0.5350825 0.8114567
vn 0.6405340 0.6457995 0.4155227
vn 0.6601960 0.6454535 0.3840975
vn 0.6909063 0.6407372 -0.3348196
vn 0.6905360 0.6402338 -0.3365423
vn 0.0000000 1.0000000 -0.0000000
vn 0.0000000 1.0000000 -0.0000000
vn 0.0000000 1.0000000 -0.0000000
vn 0.0000000 1.0000000 -0.0000000
vn -0.0000000 1.0000000 -0.0000000
vn 0.0000000 0.9999999 -0.0000000
vn 0.0000000 -0.9999999 -0.0000000
vn 0.0000000 -1.0000000 0.0000000
vn -0.0000000 -1.0000000 0.0000000
vn 0.2493380 -0.1653485 -0.9541963
vn 0.2401133 -0.1740503 -0.9550142
vn -0.8092189 0.0507767 -0.5853089
vn -0.8333312 0.0190952 -0.5524440
vn -0.6790167 0.1804546 0.7115985
vn -0.6562736 0.1440295 0.7406486
vn 0.3387201 0.0071996 0.9408597
vn 0.3391588 0.0066009 0.9407059
vn 0.9781855 -0.1827426 -0.0987840
vn 0.9509802 -0.2529166 -0.1779603
vn 0.2428715 -0.0888127 -0.9659842
vn 0.2029857 -0.0985177 -0.9742131
vn -0.8006425 0.2779404 -0.5307735
vn -0.8048814 0.2772944 -0.5246655
vn -0.6054482 0.4081039 0.6832888
vn -0.5986000 0.4031032 0.6922326
vn 0.3319372 0.2053636 0.9206755
vn 0.3782413 0.1717267 0.9096392
vn 0.9750361 -0.1265391 -0.1824620
vn 0.9676662 -0.1400448 -0.2097846
vn 0.1997952 0.2014740 -0.9589005
vn 0.1909980 0.1998068 -0.9610395
vn -0.7410533 0.4663624 -0.4830590
vn -0.7545978 0.4655701 -0.4624139
vn -0.5571283 0.5239457 0.6442741
vn -0.5356119 0.5119973 0.6715494
vn 0.3546577 0.3830678 0.8529226
vn 0.4048112 0.3605772 0.8403048
vn 0.9506004 0.2321375 -0.2060848
vn 0.9489962 0.2275791 -0.2182061
vn 0.0000000 1.0000000 -0.0000000
vn 0.0000000 1.0000000 0.0000000
vn 0.0000000 1.0000000 -0.0000000
vn -0.0000000 -1.0000000 -0.0000000
vn 0.0000000 -1.0000000 -0.0000000
vn 0.0000000 -1.0000000 -0.0000000
vn -0.8933262 -0.1927824 0.4059595
vn -0.8815427 -0.2071312 0.4242395
vn 0.0063806 0.0218163 0.9997416
vn 0.0154072 0.0147254 0.9997728
vn 0.7775840 0.2112753 0.5922213
vn 0.8439794 0.1326924 0.5197033
vn 0.3508517 -0.0280812 -0.9360099
vn 0.3738638 0.0028531 -0.9274792
vn -0.3627537 -0.1391829 -0.9214325
vn -0.4067431 -0.1965527 -0.8921475
vn -0.8995346 -0.0586239 0.4328980
vn -0.8774864 -0.0636875 0.4753541
vn 0.0152549 0.1410123 0.9898903
vn 0.0384292 0.1395258 0.9894724
vn 0.8140638 0.2932856 0.5012820
vn 0.8043724 0.2956029 0.5153680
vn 0.3716355 0.1090542 -0.9219512
vn 0.3234464 0.0809381 -0.9427786
vn -0.4141968 -0.0554586 -0.9084961
vn -0.4388003 -0.0663087 -0.8961347
vn -0.8658216 0.1742387 0.4690350
vn -0.8421906 0.1664658 0.5128393
vn 0.0373811 0.2687450 0.9624857
vn 0.0462493 0.2681265 0.9622729
vn 0.7638602 0.4207066 0.4894115
vn 0.7969397 0.4183056 0.4357837
vn 0.3137441 0.2554548 -0.9144985
vn 0.3027775 0.2491151 -0.9199280
vn -0.4356956 0.1357774 -0.8897942
vn -0.4510401 0.1316082 -0.8827469
vn 0.0000000 1.0000000 0.0000000
vn 0.0000000 1.0000000 -0.0000000
vn 0.0000000 1.0000000 -0.0000000
vn 0.0000000 -1.0000000 0.0000000
vn -0.0000000 -1.0000000 -0.0000000
vn 0.0000000 -0.9999999 -0.0000000
vn 0.5585187 -0.1683581 0.8122269
vn 0.5870206 -0.1988005 0.7847834
vn 0.8148209 0.0317332 -0.5788437
vn 0.8078763 0.0235278 -0.5888823
vn -0.1578951 0.1395730 -0.9775420
vn -0.1789486 0.1196569 -0.9765549
vn -0.9383285 0.1045041 -0.3295734
vn -0.9713536 0.0109342 -0.2373871
vn -0.2212040 -0.1769485 0.9590400
vn -0.2272257 -0.1707066 0.9587637
vn 0.5889124 -0.1825412 0.7873125
vn 0.6109672 -0.1917132 0.7680919
vn 0.7506040 0.3704551 -0.5471350
vn 0.7268201 0.3620281 -0.5836680
vn -0.1538691 0.5208095 -0.8396915
vn -0.1654904 0.5156589 -0.8406598
vn -0.8935179 0.3923551 -0.2183650
vn -0.8964875 0.3882687 -0.2134420
vn -0.2265175 -0.1875731 0.9557751
vn -0.1830021 -0.2250740 0.9570016
vn 0.6064234 0.2258935 0.7623796
vn 0.6513946 0.2204834 0.7259974
vn 0.6708078 0.5097376 -0.5386878
vn 0.6598987 0.5058547 -0.5555581
vn -0.1622347 0.5426822 -0.8241214
vn -0.1785514 0.5385650 -0.8234483
vn -0.8127277 0.5495738 -0.1934999
vn -0.8210355 0.5434267 -0.1748944
vn -0.1840292 0.1999306 0.9623727
vn -0.1647258 0.1864742 0.9685519
vn 0.0000000 1.0000000 -0.0000000
vn -0.0000000 1.0000000 -0.0000000
vn -0.0000000 1.0000000 -0.0000000
f 1//1 8//1 7//1
f 7//2 6//2 5//2
f 5//3 4//3 3//3
f 3//4 2//4 1//4
f 1//5 7//5 5//5
f 5//6 3//6 1//6
f 1//7 2//7 10//7
f 1//8 10//8 9//8
f 2//9 3//9 11//9
f 2//10 11//10 10//10
f 3//11 4//11 12//11
f 3//12 12//12 11//12
f 4//13 5//13 13//13
f 4//14 13//14 12//14
f 5//15 6//15 14//15
f 5//16 14//16 13//16
f 6//17 7//17 15//17
f 6//18 15//18 14//18
f 7//19 8//19 16//19
f 7//20 16//20 15//20
f 8//21 1//21 9//21
f 8//22 9//22 16//22
f 9//23 10//23 18//23
f 9//24 18//24 17//24
f 10//25 11//25 19//25
f 10//26 19//26 18//26
f 11//27 12//27 20//27
f 11//28 20//28 19//28
f 12//29 13//29 21//29
f 12//30 21//30 20//30
f 13//31 14//31 22//31
f 13//32 22//32 21//32
f 14//33 15//33 23//33
f 14//34 23//34 22//34
f 15//35 16//35 24//35
f 15//36 24//36 23//36
f 16//37 9//37 17//37
f 16//38 17//38 24//38
f 17//39 18//39 26//39
f 17//40 26//40 25//40
f 18//41 19//41 27//41
f 18//42 27//42 26//42
f 19//43 20//43 28//43
f 19//44 28//44 27//44
f 20//45 21//45 29//45
f 20//46 29//46 28//46
f 21//47 22//47 30//47
f 21//48 30//48 29//48
f 22//49 23//49 31//49
f 22//50 31//50 30//50
f 23//51 24//51 32//51
f 23//52 32//52 31//52
f 24//53 17//53 25//53
f 24//54 25//54 32//54
f 25//55 26//55 34//55
f 25//56 34//56 33//56
f 26//57 27//57 35//57
f 26//58 35//58 34//58
f 27//59 28//59 36//59
f 27//60 36//60 35//60
f 28//61 29//61 37//61
f 28//62 37//62 36//62
f 29//63 30//63 38//63
f 29//64 38//64 37//64
f 30//65 31//65 39//65
f 30//66 39//66 38//66
f 31//67 32//67 40//67
f 31//68 40//68 39//68
f 32//69 25//69 33//69
f 32//70 33//70 40//70
f 33//71 34//71 42//71
f 33//72 42//72 41//72
f 34//73 35//73 43//73
f 34//74 43//74 42//74
f 35//75 36//75 44//75
f 35//76 44//76 43//76
f 36//77 37//77 45//77
f 36//78 45//78 44//78
f 37//79 38//79 46//79
f 37//80 46//80 45//80
f 38//81 39//81 47//81
f 38//82 47//82 46//82
f 39//83 40//83 48//83
f 39//84 48//84 47//84
f 40//85 33//85 41//85
f 40//86 41//86 48//86
f 48//87 41//87 42//87
f 42//88 43//88 44//88
f 44//89 45//89 46//89
f 46//90 47//90 48//90
f 48//91 42//91 44//91
f 44//92 46//92 48//92
f 49//93 53//93 52//93
f 52//94 51//94 50//94
f 52//95 50//95 49//95
f 49//96 50//96 55//96
f 49//97 55//97 54//97
f 50//98 51//98 56//98
f 50//99 56//99 55//99
f 51//100 52//100 57//100
f 51//101 57//101 56//101
f 52//102 53//102 58//102
f 52//103 58//103 57//103
f 53//104 49//104 54//104
f 53//105 54//105 58//105
f 54//106 55//106 60//106
f 54//107 60//107 59//107
f 55//108 56//108 61//108
f 55//109 61//109 60//109
f 56//110 57//110 62//110
f 56//111 62//111 61//111
f 57//112 58//112 63//112
f 57//113 63//113 62//113
f 58//114 54//114 59//114
f 58//115 59//115 63//115
f 59//116 60//116 65//116
f 59//117 65//117 64//117
f 60//118 61//118 66//118
f 60//119 66//119 65//119
f 61//120 62//120 67//120
f 61//121 67//121 66//121
f 62//122 63//122 68//122
f 62//123 68//123 67//123
f 63//124 59//124 64//124
f 63//125 64//125 68//125
f 68//126 64//126 65//126
f 65//127 66//127 67//127
f 65//128 67//128 68//128
f 69//129 73//129 72//129
f 72//130 71//130 70//130
f 72//131 70//131 69//131
f 69//132 70//132 75//132
f 69//133 75//133 74//133
f 70//134 71//134 76//134
f 70//135 76//135 75//135
f 71//136 72//136 77//136
f 71//137 77//137 76//137
f 72//138 73//138 78//138
f 72//139 78//139 77//139
f 73//140 69//140 74//140
f 73//141 74//141 78//141
f 74//142 75//142 80//142
f 74//143 80//143 79//143
f 75//144 76//144 81//144
f 75//145 81//145 80//145
f 76//146 77//146 82//146
f 76//147 82//147 81//147
f 77//148 78//148 83//148
f 77//149 83//149 82//149
f 78//150 74//150 79//150
f 78//151 79//151 83//151
f 79//152 80//152 85//152
f 79//153 85//153 84//153
f 80//154 81//154 86//154
f 80//155 86//155 85//155
f 81//156 82//156 87//156
f 81//157 87//157 86//157
f 82//158 83//158 88//158
f 82//159 88//159 87//159
f 83//160 79//160 84//160
f 83//161 84//161 88//161
f 88//162 84//162 85//162
f 85//163 86//163 87//163
f 85//164 87//164 88//164
f 89//165 93//165 92//165
f 92//166 91//166 90//166
f 92//167 90//167 89//167
f 89//168 90//168 95//168
f 89//169 95//169 94//169
f 90//170 91//170 96//170
f 90//171 96//171 95//171
f 91//172 92//172 97//172
f 91//173 97//173 96//173
f 92//174 93//174 98//174
f 92//175 98//175 97//175
f 93//176 89//176 94//176
f 93//177 94//177 98//177
f 94//178 95//178 100//178
f 94//179 100//179 99//179
f 95//180 96//180 101//180
f 95//181 101//181 100//181
f 96//182 97//182 102//182
f 96//183 102//183 101//183
f 97//184 98//184 103//184
f 97//185 103//185 102//185
f 98//186 94//186 99//186
f 98//187 99//187 103//187
f 99//188 100//188 105//188
f 99//189 105//189 104//189
f 100//190 101//190 106//190
f 100//191 106//191 105//191
f 101//192 102//192 107//192
f 101//193 107//193 106//193
f 102//194 103//194 108//194
f 102//195 108//195 107//195
f 103//196 99//196 104//196
f 103//197 104//197 108//197
f 108//198 104//198 105//198
f 105//199 106//199 107//199
f 105//200 107//200 108//200
