# Elemental eruptions v001; generated in Blender; +Y up, height 1, root pivot
o rock_spire_03
v 0.1483240 0.0011807 -0.1824410
v 0.1458477 0.0000000 -0.1819176
v 0.1446453 0.0009584 -0.1837223
v -0.1051387 0.0017539 -0.1607191
v -0.1016089 0.0009885 -0.1617620
v -0.1032015 0.0000000 -0.1597034
v -0.2728901 0.0017582 -0.0485185
v -0.2722232 0.0017602 -0.0510487
v -0.2714897 0.0000000 -0.0494532
v -0.1959698 0.0010975 0.0978963
v -0.1987035 0.0017590 0.0955491
v -0.1966337 0.0000000 0.0955699
v -0.0091541 0.0017179 0.1800513
v -0.0129919 0.0011228 0.1793628
v -0.0110564 0.0000000 0.1781913
v 0.2396729 0.0015800 0.1373006
v 0.2374213 0.0017234 0.1393408
v 0.2370716 0.0000000 0.1372505
v 0.2807330 0.0011617 -0.0364580
v 0.2818825 0.0016503 -0.0331484
v 0.2797289 0.0000000 -0.0343220
v 0.1829576 0.1189569 -0.2047840
v 0.1827122 0.1212876 -0.2038326
v 0.1859239 0.1212070 -0.2027257
v 0.1864964 0.1187697 -0.2034199
v -0.0951757 0.1182449 -0.1791010
v -0.0927468 0.1211896 -0.1793232
v -0.0915592 0.1189848 -0.1804652
v -0.2673951 0.1182418 -0.0502528
v -0.2663845 0.1204659 -0.0495696
v -0.2645089 0.1212460 -0.0528102
v -0.2666882 0.1182399 -0.0529084
v -0.1944636 0.1187234 0.1109436
v -0.1928853 0.1213754 0.1105066
v -0.1966489 0.1204913 0.1081400
v -0.1971037 0.1182406 0.1084283
v 0.0160881 0.1182826 0.2023137
v 0.0150504 0.1212208 0.2016553
v 0.0124700 0.1187424 0.2018333
v 0.2948275 0.1184185 0.1528202
v 0.2952866 0.1203912 0.1522820
v 0.2915379 0.1211151 0.1540792
v 0.2925704 0.1182776 0.1548629
v 0.3268061 0.1187526 -0.0407658
v 0.3259787 0.1213100 -0.0405370
v 0.3278521 0.1204228 -0.0370727
v 0.3277279 0.1183544 -0.0374111
v 0.1686667 0.1487969 -0.1779608
v 0.1655265 0.1486993 -0.1791531
v 0.1649502 0.1517599 -0.1779689
v 0.1679192 0.1517603 -0.1768480
v -0.0703594 0.1517603 -0.1525674
v -0.0731474 0.1488134 -0.1534540
v -0.0735359 0.1519541 -0.1513511
v -0.2242798 0.1496179 -0.0415707
v -0.2237844 0.1517530 -0.0419939
v -0.2230617 0.1519466 -0.0446893
v -0.2247493 0.1487475 -0.0452338
v -0.1621455 0.1485980 0.0988919
v -0.1607189 0.1517544 0.0980804
v -0.1630728 0.1517479 0.0958141
v -0.1637951 0.1496474 0.0957513
v 0.0218280 0.1517539 0.1705011
v 0.0230003 0.1487777 0.1725584
v 0.0252715 0.1516622 0.1708560
v 0.2548493 0.1496505 0.1243378
v 0.2543707 0.1517584 0.1243123
v 0.2521830 0.1516660 0.1263874
v 0.2531743 0.1489047 0.1275723
v 0.2961466 0.1486793 -0.0374319
v 0.2948559 0.1517599 -0.0371799
v 0.2955948 0.1517604 -0.0341699
v 0.2960174 0.1496742 -0.0337638
v 0.1665571 0.3600000 -0.1733602
v 0.1695785 0.3600000 -0.1722322
v -0.0627787 0.3600000 -0.1541797
v -0.0595715 0.3600000 -0.1553552
v -0.2037457 0.3600000 -0.0441370
v -0.2030580 0.3599256 -0.0469161
v -0.1376842 0.3596582 0.0887969
v -0.1400627 0.3600000 0.0865460
v 0.0390409 0.3600000 0.1571238
v 0.0355931 0.3600000 0.1567802
v 0.2660873 0.3600000 0.1174871
v 0.2639878 0.3598683 0.1195436
v 0.2964961 0.3599198 -0.0422087
v 0.2973567 0.3600000 -0.0391980
v 0.1622502 0.4000000 -0.1585872
v 0.1652813 0.3999615 -0.1574605
v -0.0466559 0.4000000 -0.1410351
v -0.0434651 0.4000000 -0.1422540
v -0.1697580 0.4000587 -0.0387252
v -0.1690606 0.4000000 -0.0415925
v -0.1131546 0.4000000 0.0823865
v -0.1157113 0.4000000 0.0801193
v 0.0503207 0.4000000 0.1407320
v 0.0467974 0.3998632 0.1404849
v 0.2516184 0.3998440 0.1026469
v 0.2494189 0.4000000 0.1046657
v 0.2817810 0.4000000 -0.0401688
v 0.2826609 0.4000000 -0.0371738
v 0.1831618 0.6700000 -0.1415932
v 0.1861820 0.6700000 -0.1405517
v 0.0105706 0.6698007 -0.1176946
v 0.0138134 0.6700000 -0.1189900
v -0.0903360 0.6700000 -0.0362625
v -0.0896266 0.6700000 -0.0390799
v -0.0419645 0.6700000 0.0617033
v -0.0444326 0.6697880 0.0598291
v 0.0910876 0.6696519 0.1093512
v 0.0876510 0.6700000 0.1090274
v 0.2537681 0.6700000 0.0760546
v 0.2515353 0.6700000 0.0781236
v 0.2830528 0.6700000 -0.0407717
v 0.2838554 0.6698592 -0.0377868
v 0.1786989 0.7200000 -0.1215187
v 0.1816811 0.7200000 -0.1204108
v 0.0317441 0.7200000 -0.1023361
v 0.0350414 0.7200000 -0.1037552
v -0.0499444 0.7200000 -0.0309656
v -0.0490785 0.7200618 -0.0339512
v -0.0101509 0.7200000 0.0519944
v -0.0123807 0.7200000 0.0505237
v 0.1042077 0.7200000 0.0911915
v 0.1006066 0.7200000 0.0910021
v 0.2385723 0.7200000 0.0604468
v 0.2365838 0.7194570 0.0627129
v 0.2575345 0.7201782 -0.0360656
v 0.2584289 0.7200000 -0.0329960
v 0.1602954 0.9100000 -0.0610676
v 0.1633759 0.9097313 -0.0600319
v 0.0997906 0.9100000 -0.0524849
v 0.1031273 0.9100000 -0.0539014
v 0.0666962 0.9100691 -0.0225864
v 0.0672761 0.9100000 -0.0255357
v 0.0867856 0.9100000 0.0104502
v 0.0845301 0.9100000 0.0090874
v 0.1327772 0.9100000 0.0258586
v 0.1291549 0.9100000 0.0256225
v 0.1886843 0.9083167 0.0137179
v 0.1887889 0.9117239 0.0123057
v 0.1861343 0.9100000 0.0154088
v 0.1943465 0.9100000 -0.0269731
v 0.1957656 0.9117239 -0.0248069
v 0.1957956 0.9083226 -0.0240084
v 0.2130902 0.9982690 -0.0329239
v 0.2099025 0.9983546 -0.0341062
v 0.2119878 1.0000000 -0.0319905
v 0.2046683 0.9987130 -0.0322596
v 0.2083499 1.0000000 -0.0314778
v 0.2075953 0.9983603 -0.0337961
v 0.2033443 0.9985954 -0.0289460
v 0.2068875 1.0000000 -0.0302550
v 0.2043268 0.9987144 -0.0319760
v 0.2061848 0.9986380 -0.0266200
v 0.2073656 1.0000000 -0.0292585
v 0.2038862 0.9985797 -0.0277647
v 0.2106084 0.9983647 -0.0259323
v 0.2102225 1.0000000 -0.0283152
v 0.2071832 0.9986471 -0.0262789
v 0.2146429 0.9979396 -0.0284491
v 0.2134004 1.0000000 -0.0289622
v 0.2126727 0.9983674 -0.0263457
v 0.2138778 0.9982734 -0.0320947
v 0.2136284 1.0000000 -0.0303310
v 0.2148764 0.9979261 -0.0298691
v -0.1446134 0.0017508 -0.2385588
v -0.1457337 0.0000000 -0.2371284
v -0.1471355 0.0020443 -0.2376964
v -0.2098370 0.0017580 -0.1430226
v -0.2101938 0.0020328 -0.1454987
v -0.2090184 0.0000000 -0.1445969
v -0.1217657 0.0017592 -0.0502047
v -0.1246057 0.0017539 -0.0508392
v -0.1231363 0.0000000 -0.0516202
v 0.0166353 0.0021846 -0.1076723
v 0.0156143 0.0017590 -0.1057324
v 0.0150934 0.0000000 -0.1073454
v -0.0063471 0.0017570 -0.2185048
v -0.0042862 0.0021681 -0.2164976
v -0.0059462 0.0000000 -0.2167776
v -0.1432170 0.1580164 -0.2205915
v -0.1423712 0.1613513 -0.2194861
v -0.1406098 0.1600000 -0.2213244
v -0.1900323 0.1582415 -0.1336219
v -0.1882377 0.1614210 -0.1334228
v -0.1888114 0.1613458 -0.1364827
v -0.1905196 0.1580073 -0.1360619
v -0.1041008 0.1593198 -0.0511075
v -0.1060472 0.1614133 -0.0522777
v -0.1070987 0.1582456 -0.0516371
v 0.0156039 0.1600000 -0.1140320
v 0.0146576 0.1600000 -0.1119464
v -0.0183973 0.1600000 -0.2102481
v -0.0160901 0.1594011 -0.2084799
v -0.0050760 0.3383282 -0.1587675
v -0.0074669 0.3386503 -0.1571007
v -0.0045964 0.3400000 -0.1564413
v -0.0122338 0.3385306 -0.1419059
v -0.0102290 0.3400000 -0.1437962
v -0.0129398 0.3386834 -0.1449087
v 0.0040919 0.3379625 -0.1307422
v 0.0035908 0.3400000 -0.1326578
v 0.0011948 0.3385760 -0.1309987
v 0.0215802 0.3382475 -0.1428811
v 0.0199905 0.3400000 -0.1425455
v 0.0207552 0.3379513 -0.1407878
v 0.0133912 0.3383076 -0.1581767
v 0.0142897 0.3400000 -0.1559056
v 0.0158821 0.3382418 -0.1564367
v 0.0672296 0.0017476 0.2701275
v 0.0683692 0.0000000 0.2688912
v 0.0698219 0.0021559 0.2695174
v 0.1557946 0.0017575 0.1763060
v 0.1553281 0.0021402 0.1791383
v 0.1546342 0.0000000 0.1777070
v 0.1013004 0.0017603 0.0701234
v 0.1038468 0.0017475 0.0714219
v 0.1022692 0.0000000 0.0717244
v -0.0530759 0.0020254 0.0998966
v -0.0517399 0.0017580 0.0983217
v -0.0515205 0.0000000 0.0999793
v -0.0768828 0.0017554 0.2183556
v -0.0783001 0.0020148 0.2162365
v -0.0768150 0.0000000 0.2166492
v 0.0736430 0.1600000 0.2505760
v 0.0710081 0.1600000 0.2512552
v 0.1395621 0.1600000 0.1640517
v 0.1394058 0.1591997 0.1670079
v 0.0821094 0.1597970 0.0746666
v 0.0848053 0.1600000 0.0758449
v -0.0511483 0.1580454 0.1077124
v -0.0501945 0.1614629 0.1084580
v -0.0498168 0.1600000 0.1061731
v -0.0577938 0.1600000 0.2124956
v -0.0584443 0.1614583 0.2099323
v -0.0595169 0.1580376 0.2105607
v 0.1477212 0.4283376 0.1734875
v 0.1502515 0.4282458 0.1726414
v 0.1491218 0.4300000 0.1714154
v 0.1584821 0.4282444 0.1568697
v 0.1575223 0.4300000 0.1583139
v 0.1585842 0.4282414 0.1597721
v 0.1464409 0.4277939 0.1434245
v 0.1480015 0.4300000 0.1455110
v 0.1493277 0.4282410 0.1444617
v 0.1257889 0.4285270 0.1518854
v 0.1285079 0.4300000 0.1516287
v 0.1263640 0.4277728 0.1497184
v 0.1278232 0.4283225 0.1687186
v 0.1288525 0.4300000 0.1666052
v 0.1260835 0.4285546 0.1664669
vn 0.2483545 -0.7771796 -0.5781970
vn -0.3354363 -0.7213599 -0.6059063
vn -0.8164448 -0.5356552 -0.2156185
vn -0.5716548 -0.6670175 0.4778060
vn -0.0094892 -0.7297149 0.6836857
vn 0.4330218 -0.7297105 0.5291643
vn 0.6418555 -0.7587637 -0.1109014
vn 0.3090897 0.3871505 -0.8686646
vn 0.3544949 0.3322190 -0.8740503
vn -0.3862222 0.2516256 -0.8874216
vn -0.8064571 0.4747525 -0.3524730
vn -0.7882521 0.5783105 -0.2102752
vn -0.5494310 0.4436694 0.7080135
vn -0.6931733 0.2276920 0.6838619
vn -0.1067434 0.1813545 0.9776074
vn 0.4495354 0.1362349 0.8828126
vn 0.5984365 0.4081821 0.6893918
vn 0.8662689 0.3149570 -0.3877888
vn 0.9637260 -0.0142397 -0.2665134
vn 0.3156094 0.3935066 -0.8634484
vn 0.3231971 0.4030438 -0.8562123
vn -0.2803087 0.5098665 -0.8133038
vn -0.9543281 0.1731941 -0.2434371
vn -0.8846512 0.4662460 0.0026042
vn -0.6212738 0.4463752 0.6440248
vn -0.8145205 0.2646435 0.5162559
vn -0.0712915 0.5480115 0.8334273
vn 0.6754764 0.1620634 0.7193519
vn 0.7331542 0.4729114 0.4887123
vn 0.8933356 0.3922295 -0.2193345
vn 0.9806102 0.1951052 -0.0183772
vn 0.6504788 0.2736949 0.7084973
vn 0.8683524 -0.1060866 -0.4844686
vn 0.2941688 0.5919822 -0.7503478
vn -0.1777403 0.8297679 -0.5290496
vn -0.3963177 0.9134277 -0.0926409
vn -0.2087829 0.9039601 0.3731833
vn 0.0109242 0.8252891 0.5646046
vn 0.6690561 0.5325741 0.5183905
vn 0.8435135 0.4385743 -0.3100601
vn -0.3348608 -0.4583528 -0.8232746
vn -0.8771696 -0.4744836 0.0737471
vn -0.1846907 -0.5247444 0.8309830
vn 0.7986357 -0.5177737 0.3067435
vn 0.6709450 -0.4362903 -0.5995696
vn -0.5089347 0.3843895 -0.7702143
vn -0.8649506 0.4787888 0.1504050
vn -0.8758857 0.4645853 0.1303252
vn -0.2616618 0.2740095 0.9254469
vn -0.2590536 0.8088456 -0.5278825
vn -0.4829520 0.8613879 0.1573799
vn 0.0834886 0.6934214 0.7156790
vn 0.7227447 0.5852063 0.3676598
vn 0.4632827 0.6129670 -0.6400318
vn 0.2705180 -0.4321648 0.8602636
vn 0.8836898 -0.4219703 0.2025667
vn 0.3939829 -0.4902201 -0.7774713
vn -0.6829761 -0.5444059 -0.4869968
vn -0.7600467 -0.4678408 0.4510589
vn -0.8790588 0.3220231 -0.3515062
vn -0.8467583 0.3405818 0.4086619
vn 0.2596681 0.6599699 0.7049910
vn 0.8664649 0.4983378 -0.0299667
vn 0.1854638 0.6027694 -0.7760621
vn -0.4656631 0.7901253 -0.3985725
vn -0.4364821 0.7960343 0.4193003
vn 0.3483973 -0.8824338 -0.3161173
vn 0.3520207 -0.8798419 -0.3193112
vn 0.5540540 -0.8210046 0.1377517
vn 0.5131603 -0.8488854 0.1267276
vn 0.1027085 -0.7758666 0.6224804
vn 0.1018461 -0.7805370 0.6167570
vn -0.2104003 -0.8558018 0.4725834
vn -0.2069654 -0.8607135 0.4651211
vn -0.6158375 -0.7209022 0.3178747
vn -0.6440839 -0.6893120 0.3316702
vn -0.3901054 -0.7023104 -0.5954645
vn -0.3709401 -0.7369370 -0.5650905
vn -0.0408535 -0.8880025 -0.4580204
vn -0.0400351 -0.8932805 -0.4477132
vn -0.3288591 -0.1196926 -0.9367632
vn -0.3057356 -0.1236002 -0.9440598
vn 0.3339076 -0.2696314 -0.9032190
vn 0.3312685 -0.2688929 -0.9044101
vn -0.0798659 0.4242186 -0.9020311
vn -0.0824956 0.3691985 -0.9256819
vn -0.9654943 0.0417182 -0.2570609
vn -0.9661365 0.0418446 -0.2546156
vn -0.5392345 0.4148739 -0.7328750
vn -0.5450615 0.3937426 -0.7401858
vn -0.6810490 -0.0721059 0.7286789
vn -0.6598687 -0.0736169 0.7477660
vn -0.8897318 0.2303041 0.3941287
vn -0.8780740 0.2797711 0.3882192
vn -0.1492727 -0.1542116 0.9766967
vn -0.1513072 -0.1537899 0.9764501
vn -0.3619379 0.4360070 0.8239533
vn -0.3738399 0.3631362 0.8534493
vn 0.6317878 -0.3874194 0.6713794
vn 0.6075855 -0.3803447 0.6972644
vn 0.1604543 0.3166010 0.9348894
vn 0.1633691 0.2702963 0.9488153
vn 0.8883868 -0.3585792 -0.2866875
vn 0.8960452 -0.3614157 -0.2578401
vn 0.9816554 -0.0867091 0.1698061
vn 0.9694171 -0.1801235 0.1666918
vn 0.7241885 0.2902541 -0.6255426
vn 0.7115703 0.3419622 -0.6137829
vn 0.2242865 0.7259552 -0.6501420
vn 0.2398724 0.7272663 -0.6430748
vn -0.0992156 0.3715692 -0.9230885
vn -0.1008365 0.3424322 -0.9341158
vn -0.5483892 0.8266557 -0.1261332
vn -0.5494112 0.8270502 -0.1188918
vn -0.5309178 0.4066181 -0.7434971
vn -0.5249313 0.4277450 -0.7358541
vn -0.4662995 0.7359644 0.4908372
vn -0.4746664 0.7384025 0.4790130
vn -0.8759470 0.2896701 0.3857566
vn -0.8783795 0.2805249 0.3869821
vn -0.3315177 0.4446072 0.8321181
vn -0.3417189 0.3758940 0.8613547
vn 0.3548324 0.8539317 0.3806503
vn 0.3503099 0.8528792 0.3871433
vn 0.1720200 0.4399523 0.8813916
vn 0.1768111 0.3932870 0.9022545
vn 0.6554571 0.7344151 -0.1760979
vn 0.6575528 0.7345639 -0.1674512
vn 0.9398941 0.2380850 0.2447749
vn 0.9446337 0.2174608 0.2457188
vn 0.6951563 0.3429300 -0.6317886
vn 0.6783291 0.4020423 -0.6150056
vn 0.3497229 0.0180316 -0.9366797
vn 0.3531426 0.0179203 -0.9353979
vn -0.3441345 0.0050285 -0.9389069
vn -0.3572546 0.0060038 -0.9339877
vn -0.9661740 0.0904857 -0.2414953
vn -0.9635638 0.0899800 -0.2518897
vn -0.6751899 0.1073946 0.7297842
vn -0.6896604 0.1080678 0.7160237
vn -0.0989056 0.0719550 0.9924918
vn -0.1003491 0.0720164 0.9923425
vn 0.7001799 -0.0160005 0.7137872
vn 0.6884475 -0.0151985 0.7251270
vn 0.9614942 -0.0142066 -0.2744579
vn 0.9710767 -0.0139719 -0.2383585
vn -0.3253277 0.4109847 -0.8516182
vn -0.3142853 0.4073972 -0.8574685
vn 0.3293138 0.3581255 -0.8736696
vn 0.3265428 0.3584051 -0.8745946
vn -0.7353533 0.6498682 -0.1921635
vn -0.7340997 0.6492181 -0.1990310
vn -0.5880991 0.4629685 0.6631740
vn -0.5750260 0.4588912 0.6773211
vn -0.0795550 0.3971151 0.9143142
vn -0.0909438 0.3986148 0.9125982
vn 0.6174234 0.4614809 0.6370430
vn 0.6062528 0.4604675 0.6484035
vn 0.9008283 0.3442003 -0.2646403
vn 0.9002639 0.3442396 -0.2665035
vn 0.3258384 0.0342305 -0.9448056
vn 0.3486089 0.0316730 -0.9367330
vn -0.3746547 0.1584952 -0.9135169
vn -0.3525838 0.1543237 -0.9229674
vn -0.9319647 0.2763432 -0.2346834
vn -0.9324751 0.2764976 -0.2324634
vn -0.6020382 0.2175891 0.7682480
vn -0.6463838 0.2255950 0.7288997
vn -0.0802695 0.1271868 0.9886255
vn -0.0742951 0.1264271 0.9891897
vn 0.6781796 0.0666439 0.7318681
vn 0.6772399 0.0667219 0.7327306
vn 0.9656234 -0.0051285 -0.2598946
vn 0.9594432 -0.0048871 -0.2818598
vn 0.3224966 0.3773252 -0.8681138
vn 0.3016430 0.3794760 -0.8746482
vn -0.3608098 0.4086745 -0.8383326
vn -0.3601423 0.4084584 -0.8387248
vn -0.7506976 0.6281259 -0.2047217
vn -0.7533711 0.6296362 -0.1897108
vn -0.4900281 0.4560437 0.7428976
vn -0.5561221 0.4806438 0.6780190
vn -0.0492044 0.3501987 0.9353822
vn -0.0525780 0.3507010 0.9350103
vn 0.6394918 0.3994071 0.6569050
vn 0.6234939 0.3981506 0.6728533
vn 0.8600569 0.4583939 -0.2240027
vn 0.8636089 0.4580615 -0.2106166
vn -0.3650989 0.3564097 -0.8600435
vn -0.3692186 0.3574032 -0.8578699
vn 0.3270238 0.3151353 -0.8909237
vn 0.3305080 0.3150137 -0.8896801
vn -0.8354445 0.5204708 -0.1764733
vn -0.8255617 0.5158678 -0.2287537
vn -0.4714194 0.4111133 0.7802241
vn -0.4996829 0.4200727 0.7575328
vn -0.0613347 0.3327934 0.9410030
vn -0.0495582 0.3316284 0.9421076
vn 0.6654298 0.3410468 0.6639957
vn 0.6645434 0.3410161 0.6648986
vn 0.9106348 0.3158921 -0.2663767
vn 0.9155399 0.3163505 -0.2484131
vn 0.9813595 0.0520757 0.1849907
vn 0.9817281 0.0463691 0.1845538
vn 0.3484474 0.0890936 -0.9330844
vn 0.3251379 0.1051762 -0.9397996
vn -0.3299834 0.5628815 -0.7578095
vn -0.3244156 0.5574417 -0.7642077
vn -0.0732060 0.8253052 -0.5599214
vn -0.0792189 0.8232202 -0.5621679
vn -0.5427821 0.8275227 -0.1435053
vn -0.5432259 0.8300380 -0.1262636
vn -0.2527000 0.9168980 -0.3089351
vn -0.2556872 0.9171287 -0.3057762
vn -0.3298509 0.7062893 0.6263815
vn -0.3561333 0.7250894 0.5894188
vn -0.3147828 0.9361122 0.1568615
vn -0.3154520 0.9367974 0.1513300
vn -0.0416590 0.5322725 0.8455475
vn -0.0547453 0.5399461 0.8399174
vn -0.1421282 0.9090092 0.3917932
vn -0.1342023 0.9037610 0.4064550
vn 0.7361308 0.0959661 0.6700014
vn 0.7270751 0.1024212 0.6788753
vn 0.1086158 0.8295190 0.5478145
vn 0.1119461 0.8276951 0.5498990
vn 0.8770258 -0.2188649 -0.4276960
vn 0.8870279 -0.2204750 -0.4056752
vn 0.8359776 0.5325585 0.1323735
vn 0.8324170 0.5365272 0.1386382
vn 0.5496715 0.6344878 -0.5434027
vn 0.5554230 0.6400295 -0.5309121
vn 0.1046095 -0.6849526 -0.7210386
vn 0.1070465 -0.6692450 -0.7352905
vn 0.7941011 -0.5882974 -0.1526751
vn 0.7964450 -0.5850286 -0.1530263
vn 0.2695608 -0.6929852 0.6686617
vn 0.2599965 -0.7201566 0.6432545
vn -0.5412585 -0.6760781 0.4999576
vn -0.5323963 -0.6886793 0.4922144
vn -0.6674026 -0.5884075 -0.4564542
vn -0.6689192 -0.5858061 -0.4575789
vn -0.9764281 0.1125122 0.1841985
vn -0.9813997 0.1144669 0.1541171
vn -0.3461958 0.1108611 -0.9315892
vn -0.3100032 0.1106804 -0.9442711
vn -0.8144105 0.3592638 -0.4557028
vn -0.8149244 0.3578149 -0.4559240
vn -0.1829754 0.0261457 0.9827698
vn -0.2180154 0.0293634 0.9755034
vn -0.6578026 0.3529054 0.6653973
vn -0.6626991 0.3320083 0.6712677
vn 0.9104076 0.0225970 0.4130949
vn 0.8825015 0.0237805 0.4697078
vn 0.6202277 0.0879013 -0.7794812
vn 0.6858746 0.0883248 -0.7223397
vn -0.4180098 0.5676264 -0.7092730
vn -0.3686253 0.5444677 -0.7534390
vn -0.6905565 0.6957175 0.1977601
vn -0.7026427 0.7022735 0.1144774
vn -0.3731958 0.9120444 -0.1700001
vn -0.3864827 0.9060872 -0.1721541
vn 0.0047626 0.4047416 0.9144186
vn -0.0669122 0.4386974 0.8961403
vn -0.2873981 0.8915256 0.3501205
vn -0.2974301 0.8805401 0.3690317
vn 0.9285734 0.0287560 0.3700333
vn 0.9100582 0.0357426 0.4129365
vn 0.3788941 0.6799913 0.6277349
vn 0.3776806 0.6818717 0.6264250
vn 0.5698043 0.1351345 -0.8105935
vn 0.6228082 0.1139049 -0.7740386
vn 0.6675809 0.6895107 -0.2809105
vn 0.6804311 0.6728390 -0.2903467
vn 0.0170711 0.7984956 -0.6017587
vn 0.0196554 0.8099613 -0.5861537
vn -0.2478680 -0.6801833 0.6898638
vn -0.2533708 -0.6633233 0.7041346
vn -0.7766726 -0.6069810 -0.1683858
vn -0.7783769 -0.6046733 -0.1688183
vn -0.1310129 -0.6887182 -0.7130938
vn -0.1284971 -0.7050203 -0.6974490
vn 0.6710473 -0.6631476 -0.3315581
vn 0.6512017 -0.6869872 -0.3224669
vn 0.5964779 -0.5707715 0.5642996
vn 0.5981072 -0.5674142 0.5659583
vn 0.9908005 0.1079561 0.0816083
vn 0.9829033 0.1109905 0.1469091
vn 0.2480897 0.1094982 0.9625288
vn 0.2111023 0.1107755 0.9711666
vn 0.3946826 0.0742550 -0.9158122
vn 0.4531507 0.0793404 -0.8878961
vn -0.7807757 0.0408794 -0.6234726
vn -0.7584112 0.0414900 -0.6504543
vn -0.7980583 0.1181507 0.5908836
vn -0.8185341 0.1189854 0.5620005
vn -0.9552936 0.2852637 -0.0777090
vn -0.9557627 0.2836933 -0.0776901
vn 0.3178054 0.1797159 0.9309682
vn 0.2442976 0.2048488 0.9478163
vn 0.9968399 -0.0712503 -0.0351244
vn 0.9969656 -0.0701609 0.0337180
vn 0.6064308 0.6915575 0.3924154
vn 0.6197096 0.6768116 0.3973487
vn 0.3106458 0.1655718 -0.9359942
vn 0.3876971 0.1398116 -0.9111222
vn 0.5801543 0.6928595 -0.4282133
vn 0.5877368 0.6808355 -0.4370682
vn -0.7394484 0.5503191 -0.3877693
vn -0.7048132 0.5387759 -0.4614745
vn -0.2012132 0.7421042 -0.6393704
vn -0.2000061 0.7442099 -0.6372982
vn -0.6416655 0.5337472 0.5507988
vn -0.6805435 0.5491090 0.4851183
vn -0.4630406 0.8863038 0.0076794
vn -0.4755045 0.8796452 0.0109398
vn -0.1362985 0.8071863 0.5743456
vn -0.1354759 0.8155010 0.5626762
vn 0.6968284 -0.3389770 -0.6320796
vn 0.0000000 -0.9999999 -0.0000000
vn 0.0000000 -0.9999999 -0.0000000
vn 0.0000000 -1.0000000 0.0000000
vn -0.0000000 -1.0000000 -0.0000000
vn 0.0000000 -1.0000000 0.0000000
vn -0.0878563 -0.1486432 -0.9849805
vn -0.0872919 -0.1475077 -0.9852012
vn -0.5486858 0.0127261 -0.8359318
vn -0.5909115 -0.0761933 -0.8031302
vn -0.8883949 -0.0383810 0.4574728
vn -0.9132073 0.0491020 0.4045262
vn -0.4052123 -0.0861597 0.9101536
vn -0.4002778 -0.0959641 0.9113553
vn 0.1594740 -0.2040870 0.9658761
vn 0.1650255 -0.2193861 0.9615802
vn 0.9096380 -0.3491151 0.2251163
vn 0.8855987 -0.4384182 0.1533117
vn 0.7210353 -0.3052938 -0.6220160
vn 0.5190940 0.7274587 -0.4487151
vn 0.5552266 0.6622670 -0.5031161
vn -0.0630463 0.7056515 -0.7057487
vn -0.0821442 0.6379015 -0.7657244
vn -0.4029853 0.7334208 -0.5474458
vn -0.3768796 0.7613879 -0.5274941
vn -0.5848499 0.7688542 0.2584835
vn -0.5826666 0.7711809 0.2564750
vn -0.2718984 0.7346982 0.6215221
vn -0.2871674 0.6315468 0.7201968
vn 0.1102093 0.7614491 0.6387873
vn 0.1365422 0.7003659 0.7006025
vn 0.6785238 0.7252309 0.1168145
vn 0.5179238 0.8447087 0.1349890
vn 0.7400006 0.0090114 -0.6725459
vn 0.7154135 -0.0225080 -0.6983389
vn -0.1073226 -0.0077499 -0.9941940
vn -0.0793511 0.0226686 -0.9965889
vn -0.5800825 0.0470865 -0.8131956
vn -0.6072966 0.0206030 -0.7942080
vn -0.9087095 0.1182215 0.4003381
vn -0.8952442 0.0906351 0.4362604
vn -0.3674195 0.0853075 0.9261348
vn -0.3641506 0.0817726 0.9277433
vn 0.1922708 0.0213484 0.9811097
vn 0.1645687 0.0540401 0.9848841
vn 0.9677926 -0.0021103 0.2517402
vn 0.9794981 -0.0487040 0.1954773
vn -0.0744779 0.3384225 -0.9380422
vn 0.6786119 0.3177553 -0.6622065
vn -0.0747164 0.3374328 -0.9383798
vn -0.5161942 0.5275477 -0.6747124
vn -0.5618956 0.4537674 -0.6916417
vn -0.7648199 0.5254927 0.3727035
vn -0.7399358 0.5822966 0.3367874
vn -0.3295865 0.4351420 0.8378689
vn -0.3212929 0.3360432 0.8853507
vn 0.1518437 0.3915718 0.9075325
vn 0.1680842 0.3328422 0.9278814
vn 0.9254941 0.3306757 0.1846998
vn 0.8949856 0.3991762 0.1991467
vn 0.6802111 0.2841251 -0.6757113
vn 0.7094586 -0.0107876 -0.7046645
vn 0.7174801 -0.0049349 -0.6965616
vn -0.0787341 0.1021464 -0.9916487
vn -0.1319511 0.0724432 -0.9886054
vn -0.6191554 0.1892477 -0.7621232
vn -0.6051733 0.1951305 -0.7718091
vn -0.8784102 0.2621314 0.3996031
vn -0.8727621 0.2529750 0.4174805
vn -0.3369360 0.1590217 0.9280012
vn -0.3385324 0.1602878 0.9272020
vn 0.1774429 0.0949023 0.9795446
vn 0.1901731 0.0850705 0.9780579
vn 0.9762234 -0.0038288 0.2167331
vn 0.9666623 0.0174539 0.2554592
vn 0.6782217 0.3262852 -0.6584477
vn 0.6799889 0.4032447 -0.6123795
vn -0.1245500 0.3372076 -0.9331551
vn -0.1144264 0.3613237 -0.9253927
vn -0.5333362 0.5017509 -0.6810275
vn -0.5761469 0.4514705 -0.6813437
vn -0.7541002 0.5483512 0.3614469
vn -0.7477341 0.5675294 0.3446795
vn -0.3153577 0.3930929 0.8637289
vn -0.3090116 0.3669858 0.8774015
vn 0.1788392 0.3415721 0.9226835
vn 0.2027127 0.2850726 0.9368250
vn 0.8764615 0.4223731 0.2311191
vn 0.9197023 0.3405177 0.1954364
vn -0.1190138 0.2905466 -0.9494305
vn 0.7148570 0.2737412 -0.6434635
vn -0.1173991 0.2911902 -0.9494344
vn -0.5933427 0.3945630 -0.7016157
vn -0.5861220 0.3954543 -0.7071612
vn -0.7942252 0.4849430 0.3661103
vn -0.7749490 0.4562868 0.4373287
vn -0.3110924 0.3506925 0.8833098
vn -0.3153694 0.3534639 0.8806847
vn 0.2026493 0.2861521 0.9365097
vn 0.1836530 0.2948316 0.9377345
vn 0.9328594 0.3007948 0.1982322
vn 0.9395962 0.2928731 0.1771558
vn 0.7025144 0.2654818 -0.6602975
vn 0.7162456 -0.1972216 -0.6693997
vn 0.7114339 -0.1965575 -0.6747050
vn -0.1165433 0.3493356 -0.9297216
vn -0.1237899 0.3525504 -0.9275690
vn -0.4673057 0.6809887 -0.5638084
vn -0.4665058 0.6803712 -0.5652145
vn -0.5111620 0.8092346 0.2895737
vn -0.5184494 0.8181394 0.2487129
vn -0.2571333 0.6467427 0.7180574
vn -0.2528697 0.6429746 0.7229389
vn 0.1780801 0.3761628 0.9092793
vn 0.1816894 0.3731991 0.9097865
vn 0.9623767 -0.2027323 0.1809159
vn 0.9637481 -0.2131258 0.1605205
vn -0.0000000 1.0000000 -0.0000000
vn 0.0000000 1.0000000 0.0000000
vn 0.0000000 1.0000000 -0.0000000
vn 0.0000000 1.0000000 -0.0000000
vn 0.0000000 0.9999999 0.0000000
vn 0.1427604 0.1035876 -0.9843216
vn 0.0901056 0.0587362 -0.9941987
vn 0.0000000 -1.0000000 -0.0000000
vn 0.0000000 -1.0000000 -0.0000000
vn 0.0000000 -0.9999999 0.0000000
vn -0.8176374 0.1369679 -0.5592037
vn -0.8701844 0.0752625 -0.4869444
vn -0.7315740 0.0852912 0.6764059
vn -0.7022774 0.0462039 0.7104025
vn 0.3744577 0.0386445 0.9264383
vn 0.4556700 -0.0459939 0.8889598
vn 0.9786213 0.0830625 -0.1881511
vn 0.9480364 -0.0066228 -0.3180927
vn 0.0869013 0.2703114 -0.9588431
vn 0.0310484 0.2750830 -0.9609190
vn -0.6674853 0.6442249 -0.3734134
vn -0.6984949 0.6424147 -0.3152907
vn -0.5643244 0.5956118 0.5716507
vn -0.5261139 0.5537437 0.6454241
vn 0.4516353 0.1276403 0.8830253
vn 0.5151025 0.0688862 0.8543560
vn 0.9453889 -0.0768341 -0.3167590
vn 0.9178664 -0.0932136 -0.3857882
vn -0.0000000 1.0000000 -0.0000000
vn 0.0000000 1.0000000 -0.0000000
vn 0.0000000 1.0000000 -0.0000000
vn -0.3356657 0.1194432 0.9343779
vn -0.2874516 0.0700483 0.9552303
vn 0.0000000 -1.0000000 0.0000000
vn -0.0000000 -1.0000000 -0.0000000
vn 0.0000000 -1.0000000 -0.0000000
vn 0.7206662 0.1257166 0.6817885
vn 0.7849157 0.0550572 0.6171517
vn 0.8896980 0.1193678 -0.4406684
vn 0.8486970 0.0462598 -0.5268524
vn -0.1809692 0.0509309 -0.9821692
vn -0.2322868 -0.0002461 -0.9726472
vn -0.9714415 0.1092878 -0.2106125
vn -0.9965724 0.0163748 -0.0810882
vn -0.2711342 0.3386358 0.9010062
vn -0.2221947 0.3048066 0.9261331
vn 0.7850600 -0.0393366 0.6181692
vn 0.8366005 -0.0815398 0.5417109
vn 0.8475651 -0.0692819 -0.5261497
vn 0.8025876 -0.0724621 -0.5921170
vn -0.2213927 0.2967302 -0.9289437
vn -0.2854634 0.3018933 -0.9095994
vn -0.8259663 0.5597088 -0.0671252
vn -0.8360878 0.5483666 0.0158551
vn 0.0000000 1.0000000 -0.0000000
vn -0.0000000 1.0000000 -0.0000000
vn -0.0000000 1.0000000 0.0000000
f 1//1 2//1 3//1
f 4//2 5//2 6//2
f 7//3 8//3 9//3
f 10//4 11//4 12//4
f 13//5 14//5 15//5
f 16//6 17//6 18//6
f 19//7 20//7 21//7
f 22//8 23//8 24//8
f 22//9 24//9 25//9
f 26//10 27//10 28//10
f 29//11 30//11 31//11
f 29//12 31//12 32//12
f 33//13 34//13 35//13
f 33//14 35//14 36//14
f 37//15 38//15 39//15
f 40//16 41//16 42//16
f 40//17 42//17 43//17
f 44//18 45//18 46//18
f 44//19 46//19 47//19
f 48//20 49//20 50//20
f 48//21 50//21 51//21
f 52//22 53//22 54//22
f 55//23 56//23 57//23
f 55//24 57//24 58//24
f 59//25 60//25 61//25
f 59//26 61//26 62//26
f 63//27 64//27 65//27
f 66//28 67//28 68//28
f 66//29 68//29 69//29
f 70//30 71//30 72//30
f 70//31 72//31 73//31
f 140//32 141//32 142//32
f 143//33 144//33 145//33
f 146//34 147//34 148//34
f 149//35 150//35 151//35
f 152//36 153//36 154//36
f 155//37 156//37 157//37
f 158//38 159//38 160//38
f 161//39 162//39 163//39
f 164//40 165//40 166//40
f 167//41 168//41 169//41
f 170//42 171//42 172//42
f 173//43 174//43 175//43
f 176//44 177//44 178//44
f 179//45 180//45 181//45
f 182//46 183//46 184//46
f 185//47 186//47 187//47
f 185//48 187//48 188//48
f 189//49 190//49 191//49
f 196//50 197//50 198//50
f 199//51 200//51 201//51
f 202//52 203//52 204//52
f 205//53 206//53 207//53
f 208//54 209//54 210//54
f 211//55 212//55 213//55
f 214//56 215//56 216//56
f 217//57 218//57 219//57
f 220//58 221//58 222//58
f 223//59 224//59 225//59
f 232//60 233//60 234//60
f 235//61 236//61 237//61
f 238//62 239//62 240//62
f 241//63 242//63 243//63
f 244//64 245//64 246//64
f 247//65 248//65 249//65
f 250//66 251//66 252//66
f 1//67 19//67 21//67
f 1//68 21//68 2//68
f 18//69 21//69 20//69
f 18//70 20//70 16//70
f 15//71 18//71 17//71
f 15//72 17//72 13//72
f 12//73 15//73 14//73
f 12//74 14//74 10//74
f 9//75 12//75 11//75
f 9//76 11//76 7//76
f 6//77 9//77 8//77
f 6//78 8//78 4//78
f 2//79 6//79 5//79
f 2//80 5//80 3//80
f 4//81 26//81 28//81
f 4//82 28//82 5//82
f 3//83 22//83 25//83
f 3//84 25//84 1//84
f 22//85 28//85 27//85
f 22//86 27//86 23//86
f 7//87 29//87 32//87
f 7//88 32//88 8//88
f 26//89 32//89 31//89
f 26//90 31//90 27//90
f 10//91 33//91 36//91
f 10//92 36//92 11//92
f 29//93 36//93 35//93
f 29//94 35//94 30//94
f 13//95 37//95 39//95
f 13//96 39//96 14//96
f 33//97 39//97 38//97
f 33//98 38//98 34//98
f 16//99 40//99 43//99
f 16//100 43//100 17//100
f 37//101 43//101 42//101
f 37//102 42//102 38//102
f 19//103 44//103 47//103
f 19//104 47//104 20//104
f 40//105 47//105 46//105
f 40//106 46//106 41//106
f 24//107 45//107 44//107
f 24//108 44//108 25//108
f 23//109 49//109 48//109
f 23//110 48//110 24//110
f 49//111 53//111 52//111
f 49//112 52//112 50//112
f 30//113 55//113 58//113
f 30//114 58//114 31//114
f 53//115 58//115 57//115
f 53//116 57//116 54//116
f 34//117 59//117 62//117
f 34//118 62//118 35//118
f 55//119 62//119 61//119
f 55//120 61//120 56//120
f 59//121 64//121 63//121
f 59//122 63//122 60//122
f 41//123 66//123 69//123
f 41//124 69//124 42//124
f 64//125 69//125 68//125
f 64//126 68//126 65//126
f 45//127 70//127 73//127
f 45//128 73//128 46//128
f 66//129 73//129 72//129
f 66//130 72//130 67//130
f 51//131 71//131 70//131
f 51//132 70//132 48//132
f 50//133 74//133 75//133
f 50//134 75//134 51//134
f 54//135 76//135 77//135
f 54//136 77//136 52//136
f 56//137 78//137 79//137
f 56//138 79//138 57//138
f 60//139 80//139 81//139
f 60//140 81//140 61//140
f 65//141 82//141 83//141
f 65//142 83//142 63//142
f 67//143 84//143 85//143
f 67//144 85//144 68//144
f 71//145 86//145 87//145
f 71//146 87//146 72//146
f 76//147 90//147 91//147
f 76//148 91//148 77//148
f 74//149 88//149 89//149
f 74//150 89//150 75//150
f 78//151 92//151 93//151
f 78//152 93//152 79//152
f 80//153 94//153 95//153
f 80//154 95//154 81//154
f 82//155 96//155 97//155
f 82//156 97//156 83//156
f 84//157 98//157 99//157
f 84//158 99//158 85//158
f 86//159 100//159 101//159
f 86//160 101//160 87//160
f 88//161 102//161 103//161
f 88//162 103//162 89//162
f 90//163 104//163 105//163
f 90//164 105//164 91//164
f 92//165 106//165 107//165
f 92//166 107//166 93//166
f 94//167 108//167 109//167
f 94//168 109//168 95//168
f 96//169 110//169 111//169
f 96//170 111//170 97//170
f 98//171 112//171 113//171
f 98//172 113//172 99//172
f 100//173 114//173 115//173
f 100//174 115//174 101//174
f 102//175 116//175 117//175
f 102//176 117//176 103//176
f 104//177 118//177 119//177
f 104//178 119//178 105//178
f 106//179 120//179 121//179
f 106//180 121//180 107//180
f 108//181 122//181 123//181
f 108//182 123//182 109//182
f 110//183 124//183 125//183
f 110//184 125//184 111//184
f 112//185 126//185 127//185
f 112//186 127//186 113//186
f 114//187 128//187 129//187
f 114//188 129//188 115//188
f 118//189 132//189 133//189
f 118//190 133//190 119//190
f 116//191 130//191 131//191
f 116//192 131//192 117//192
f 120//193 134//193 135//193
f 120//194 135//194 121//194
f 122//195 136//195 137//195
f 122//196 137//196 123//196
f 124//197 138//197 139//197
f 124//198 139//198 125//198
f 126//199 140//199 142//199
f 126//200 142//200 127//200
f 128//201 143//201 145//201
f 128//202 145//202 129//202
f 140//203 145//203 144//203
f 140//204 144//204 141//204
f 130//205 147//205 146//205
f 130//206 146//206 131//206
f 132//207 149//207 151//207
f 132//208 151//208 133//208
f 147//209 151//209 150//209
f 147//210 150//210 148//210
f 134//211 152//211 154//211
f 134//212 154//212 135//212
f 149//213 154//213 153//213
f 149//214 153//214 150//214
f 136//215 155//215 157//215
f 136//216 157//216 137//216
f 152//217 157//217 156//217
f 152//218 156//218 153//218
f 138//219 158//219 160//219
f 138//220 160//220 139//220
f 155//221 160//221 159//221
f 155//222 159//222 156//222
f 141//223 161//223 163//223
f 141//224 163//224 142//224
f 158//225 163//225 162//225
f 158//226 162//226 159//226
f 143//227 164//227 166//227
f 143//228 166//228 144//228
f 161//229 166//229 165//229
f 161//230 165//230 162//230
f 148//231 165//231 164//231
f 148//232 164//232 146//232
f 167//233 179//233 181//233
f 167//234 181//234 168//234
f 178//235 181//235 180//235
f 178//236 180//236 176//236
f 175//237 178//237 177//237
f 175//238 177//238 173//238
f 172//239 175//239 174//239
f 172//240 174//240 170//240
f 168//241 172//241 171//241
f 168//242 171//242 169//242
f 170//243 185//243 188//243
f 170//244 188//244 171//244
f 169//245 182//245 184//245
f 169//246 184//246 167//246
f 182//247 188//247 187//247
f 182//248 187//248 183//248
f 173//249 189//249 191//249
f 173//250 191//250 174//250
f 185//251 191//251 190//251
f 185//252 190//252 186//252
f 176//253 192//253 193//253
f 176//254 193//254 177//254
f 179//255 194//255 195//255
f 179//256 195//256 180//256
f 183//257 197//257 196//257
f 183//258 196//258 184//258
f 186//259 199//259 201//259
f 186//260 201//260 187//260
f 197//261 201//261 200//261
f 197//262 200//262 198//262
f 189//263 202//263 204//263
f 189//264 204//264 190//264
f 199//265 204//265 203//265
f 199//266 203//266 200//266
f 192//267 205//267 207//267
f 192//268 207//268 193//268
f 202//269 207//269 206//269
f 202//270 206//270 203//270
f 194//271 208//271 210//271
f 194//272 210//272 195//272
f 205//273 210//273 209//273
f 205//274 209//274 206//274
f 198//275 209//275 208//275
f 198//276 208//276 196//276
f 211//277 223//277 225//277
f 211//278 225//278 212//278
f 222//279 225//279 224//279
f 222//280 224//280 220//280
f 219//281 222//281 221//281
f 219//282 221//282 217//282
f 216//283 219//283 218//283
f 216//284 218//284 214//284
f 212//285 216//285 215//285
f 212//286 215//286 213//286
f 214//287 228//287 229//287
f 214//288 229//288 215//288
f 213//289 226//289 227//289
f 213//290 227//290 211//290
f 217//291 230//291 231//291
f 217//292 231//292 218//292
f 220//293 232//293 234//293
f 220//294 234//294 221//294
f 223//295 235//295 237//295
f 223//296 237//296 224//296
f 232//297 237//297 236//297
f 232//298 236//298 233//298
f 226//299 239//299 238//299
f 226//300 238//300 227//300
f 228//301 241//301 243//301
f 228//302 243//302 229//302
f 239//303 243//303 242//303
f 239//304 242//304 240//304
f 230//305 244//305 246//305
f 230//306 246//306 231//306
f 241//307 246//307 245//307
f 241//308 245//308 242//308
f 233//309 247//309 249//309
f 233//310 249//310 234//310
f 244//311 249//311 248//311
f 244//312 248//312 245//312
f 235//313 250//313 252//313
f 235//314 252//314 236//314
f 247//315 252//315 251//315
f 247//316 251//316 248//316
f 240//317 251//317 250//317
f 240//318 250//318 238//318
f 19//319 1//319 25//319
f 2//320 21//320 18//320
f 18//321 15//321 12//321
f 12//322 9//322 6//322
f 6//323 2//323 18//323
f 18//324 12//324 6//324
f 3//325 5//325 28//325
f 3//326 28//326 22//326
f 4//327 8//327 32//327
f 4//328 32//328 26//328
f 7//329 11//329 36//329
f 7//330 36//330 29//330
f 10//331 14//331 39//331
f 10//332 39//332 33//332
f 13//333 17//333 43//333
f 13//334 43//334 37//334
f 16//335 20//335 47//335
f 16//336 47//336 40//336
f 19//337 25//337 44//337
f 45//338 24//338 48//338
f 45//339 48//339 70//339
f 23//340 27//340 53//340
f 23//341 53//341 49//341
f 27//342 31//342 58//342
f 27//343 58//343 53//343
f 30//344 35//344 62//344
f 30//345 62//345 55//345
f 34//346 38//346 64//346
f 34//347 64//347 59//347
f 38//348 42//348 69//348
f 38//349 69//349 64//349
f 41//350 46//350 73//350
f 41//351 73//351 66//351
f 71//352 51//352 75//352
f 71//353 75//353 86//353
f 50//354 52//354 77//354
f 50//355 77//355 74//355
f 54//356 57//356 79//356
f 54//357 79//357 76//357
f 56//358 61//358 81//358
f 56//359 81//359 78//359
f 60//360 63//360 83//360
f 60//361 83//361 80//361
f 65//362 68//362 85//362
f 65//363 85//363 82//363
f 67//364 72//364 87//364
f 67//365 87//365 84//365
f 74//366 91//366 88//366
f 86//367 75//367 89//367
f 74//368 77//368 91//368
f 76//369 79//369 93//369
f 76//370 93//370 90//370
f 78//371 81//371 95//371
f 78//372 95//372 92//372
f 80//373 83//373 97//373
f 80//374 97//374 94//374
f 82//375 85//375 99//375
f 82//376 99//376 96//376
f 84//377 87//377 101//377
f 84//378 101//378 98//378
f 86//379 89//379 100//379
f 100//380 89//380 103//380
f 100//381 103//381 114//381
f 88//382 91//382 105//382
f 88//383 105//383 102//383
f 90//384 93//384 107//384
f 90//385 107//385 104//385
f 92//386 95//386 109//386
f 92//387 109//387 106//387
f 94//388 97//388 111//388
f 94//389 111//389 108//389
f 96//390 99//390 113//390
f 96//391 113//391 110//391
f 98//392 101//392 115//392
f 98//393 115//393 112//393
f 114//394 103//394 117//394
f 114//395 117//395 128//395
f 102//396 105//396 119//396
f 102//397 119//397 116//397
f 104//398 107//398 121//398
f 104//399 121//399 118//399
f 106//400 109//400 123//400
f 106//401 123//401 120//401
f 108//402 111//402 125//402
f 108//403 125//403 122//403
f 110//404 113//404 127//404
f 110//405 127//405 124//405
f 112//406 115//406 129//406
f 112//407 129//407 126//407
f 116//408 133//408 130//408
f 128//409 117//409 131//409
f 116//410 119//410 133//410
f 118//411 121//411 135//411
f 118//412 135//412 132//412
f 120//413 123//413 137//413
f 120//414 137//414 134//414
f 122//415 125//415 139//415
f 122//416 139//416 136//416
f 124//417 127//417 142//417
f 124//418 142//418 138//418
f 126//419 129//419 145//419
f 126//420 145//420 140//420
f 128//421 131//421 143//421
f 143//422 131//422 146//422
f 143//423 146//423 164//423
f 130//424 133//424 151//424
f 130//425 151//425 147//425
f 132//426 135//426 154//426
f 132//427 154//427 149//427
f 134//428 137//428 157//428
f 134//429 157//429 152//429
f 136//430 139//430 160//430
f 136//431 160//431 155//431
f 138//432 142//432 163//432
f 138//433 163//433 158//433
f 141//434 144//434 166//434
f 141//435 166//435 161//435
f 165//436 148//436 150//436
f 150//437 153//437 156//437
f 156//438 159//438 162//438
f 162//439 165//439 150//439
f 150//440 156//440 162//440
f 179//441 167//441 184//441
f 179//442 184//442 194//442
f 168//443 181//443 178//443
f 178//444 175//444 172//444
f 178//445 172//445 168//445
f 169//446 171//446 188//446
f 169//447 188//447 182//447
f 170//448 174//448 191//448
f 170//449 191//449 185//449
f 173//450 177//450 193//450
f 173//451 193//451 189//451
f 176//452 180//452 195//452
f 176//453 195//453 192//453
f 194//454 184//454 196//454
f 194//455 196//455 208//455
f 183//456 187//456 201//456
f 183//457 201//457 197//457
f 186//458 190//458 204//458
f 186//459 204//459 199//459
f 189//460 193//460 207//460
f 189//461 207//461 202//461
f 192//462 195//462 210//462
f 192//463 210//463 205//463
f 209//464 198//464 200//464
f 200//465 203//465 206//465
f 200//466 206//466 209//466
f 223//467 211//467 227//467
f 223//468 227//468 235//468
f 212//469 225//469 222//469
f 222//470 219//470 216//470
f 222//471 216//471 212//471
f 213//472 215//472 229//472
f 213//473 229//473 226//473
f 214//474 218//474 231//474
f 214//475 231//475 228//475
f 217//476 221//476 234//476
f 217//477 234//477 230//477
f 220//478 224//478 237//478
f 220//479 237//479 232//479
f 235//480 227//480 238//480
f 235//481 238//481 250//481
f 226//482 229//482 243//482
f 226//483 243//483 239//483
f 228//484 231//484 246//484
f 228//485 246//485 241//485
f 230//486 234//486 249//486
f 230//487 249//487 244//487
f 233//488 236//488 252//488
f 233//489 252//489 247//489
f 251//490 240//490 242//490
f 242//491 245//491 248//491
f 242//492 248//492 251//492
