# Elemental eruptions v001; generated in Blender; +Y up, height 1, root pivot
o rock_spire_01
v 0.2357679 0.7200000 -0.1065110
v 0.2975215 0.0013019 -0.0596319
v 0.2952621 0.0000000 -0.0606673
v 0.2957902 0.0011410 -0.0628320
v 0.0993327 0.0018560 -0.1725525
v 0.1030273 0.0011670 -0.1714964
v 0.1003435 0.0000000 -0.1705396
v -0.1362924 0.0018654 -0.1553895
v -0.1330678 0.0018520 -0.1568256
v -0.1342563 0.0000000 -0.1546311
v -0.2681786 0.0014108 -0.0250204
v -0.2676515 0.0018676 -0.0283291
v -0.2667717 0.0000000 -0.0265556
v -0.2031945 0.0018567 0.1284591
v -0.2058122 0.0014283 0.1258996
v -0.2036665 0.0000000 0.1261516
v 0.0245050 0.0018386 0.1964393
v 0.0208553 0.0018666 0.1964686
v 0.0222330 0.0000000 0.1948691
v 0.2621718 0.0012851 0.1170976
v 0.2601315 0.0018206 0.1199066
v 0.2595963 0.0000000 0.1176786
v 0.3480926 0.1187815 -0.0704626
v 0.3473040 0.1216629 -0.0701872
v 0.3491006 0.1214273 -0.0672898
v 0.3496620 0.1186116 -0.0672387
v 0.1299372 0.1181445 -0.1877651
v 0.1318143 0.1214123 -0.1869444
v 0.1339994 0.1188049 -0.1868629
v -0.1282932 0.1181343 -0.1710831
v -0.1280792 0.1203783 -0.1707885
v -0.1235102 0.1213206 -0.1716227
v -0.1250965 0.1181481 -0.1725390
v -0.2689109 0.1184591 -0.0259797
v -0.2672830 0.1211319 -0.0259068
v -0.2673189 0.1204103 -0.0297417
v -0.2684053 0.1181324 -0.0293023
v -0.1988334 0.1181438 0.1429771
v -0.1967571 0.1214826 0.1425697
v -0.1999815 0.1212043 0.1403848
v -0.2014438 0.1184721 0.1405661
v 0.0526318 0.1181600 0.2091659
v 0.0511620 0.1214037 0.2086506
v 0.0489376 0.1181340 0.2092144
v 0.3154083 0.1185998 0.1280246
v 0.3146377 0.1211385 0.1276003
v 0.3113886 0.1213238 0.1301958
v 0.3129179 0.1181759 0.1306921
v 0.3249158 0.1485539 -0.0627832
v 0.3236197 0.1483102 -0.0656779
v 0.3226341 0.1518644 -0.0652725
v 0.3238713 0.1518559 -0.0626211
v 0.1229227 0.1518643 -0.1622121
v 0.1213899 0.1485859 -0.1642734
v 0.1193222 0.1518953 -0.1629035
v -0.1024517 0.1495895 -0.1445918
v -0.1014236 0.1518356 -0.1443983
v -0.0980332 0.1518941 -0.1458893
v -0.0995239 0.1486927 -0.1471057
v -0.2261118 0.1488772 -0.0211401
v -0.2239540 0.1517960 -0.0211015
v -0.2232098 0.1518301 -0.0242343
v -0.2239108 0.1496196 -0.0247370
v -0.1666447 0.1494872 0.1283367
v -0.1658458 0.1519385 0.1279714
v -0.1684530 0.1517764 0.1256460
v -0.1703123 0.1487946 0.1263935
v 0.0534257 0.1519356 0.1806387
v 0.0547840 0.1495747 0.1815500
v 0.0571705 0.1518660 0.1804849
v 0.2814433 0.1488785 0.1088661
v 0.2804230 0.1518431 0.1080472
v 0.2781591 0.1518677 0.1104350
v 0.2772807 0.1496923 0.1109832
v 0.3474140 0.3600000 -0.0671026
v 0.3487687 0.3600000 -0.0644236
v 0.1581931 0.3600000 -0.1580824
v 0.1618013 0.3600000 -0.1573885
v -0.0494753 0.3600000 -0.1406781
v -0.0461236 0.3600000 -0.1421964
v -0.1612749 0.3598851 -0.0233283
v -0.1605794 0.3600000 -0.0264737
v -0.0996195 0.3600000 0.1120903
v -0.1022797 0.3600000 0.1097878
v 0.1055267 0.3600000 0.1743066
v 0.1017494 0.3597271 0.1744333
v 0.3182968 0.3599854 0.0975304
v 0.3161072 0.3600000 0.0999883
v 0.3345791 0.4000000 -0.0618839
v 0.3359418 0.4000180 -0.0592048
v 0.1649278 0.4000000 -0.1430357
v 0.1685433 0.4000000 -0.1423084
v -0.0256602 0.3998950 -0.1306488
v -0.0222366 0.4000000 -0.1321075
v -0.1275799 0.4000000 -0.0206897
v -0.1270542 0.4000000 -0.0238715
v -0.0676984 0.4000000 0.1039028
v -0.0704757 0.3999320 0.1016847
v 0.1213623 0.3998989 0.1551305
v 0.1176736 0.4000000 0.1552472
v 0.3081220 0.4000000 0.0842047
v 0.3059846 0.4000000 0.0867378
v 0.3707887 0.6700000 -0.0598410
v 0.3721760 0.6700000 -0.0571811
v 0.2280252 0.6700000 -0.1266629
v 0.2244028 0.6700000 -0.1273125
v 0.2245900 0.6706805 -0.1270883
v 0.2266071 0.6716967 -0.1267658
v 0.0663513 0.6700000 -0.1122138
v 0.0697523 0.6700000 -0.1137758
v -0.0198256 0.6700000 -0.0218563
v -0.0190748 0.6704962 -0.0247466
v 0.0294449 0.6696821 0.0836752
v 0.0267886 0.6700000 0.0814132
v 0.1906083 0.6700000 0.1228186
v 0.1868745 0.6700000 0.1230088
v 0.3504415 0.6700000 0.0652088
v 0.3484350 0.6703061 0.0676044
v 0.3557007 0.7187782 -0.0522806
v 0.3566281 0.7200000 -0.0494329
v 0.1004849 0.7200000 -0.0974087
v 0.1052804 0.7222520 -0.0985088
v 0.0376101 0.7200000 -0.0184109
v 0.0375945 0.7200000 -0.0211044
v 0.0768653 0.7200000 0.0677208
v 0.0739130 0.7200000 0.0654275
v 0.2098148 0.7200000 0.1012160
v 0.2060092 0.7198006 0.1015722
v 0.3348307 0.7209116 0.0483576
v 0.3331057 0.7200000 0.0510847
v 0.3056481 0.9100000 -0.0326446
v 0.3071314 0.9097236 -0.0299101
v 0.2579391 0.9100000 -0.0558248
v 0.2621687 0.9100000 -0.0550149
v 0.2609706 0.9083367 -0.0560260
v 0.2598926 0.9082085 -0.0565435
v 0.2044207 0.9100000 -0.0485852
v 0.2080671 0.9100000 -0.0502710
v 0.1778849 0.9100000 -0.0171486
v 0.1778440 0.9100000 -0.0197309
v 0.1955002 0.9100000 0.0180817
v 0.1925041 0.9100000 0.0158441
v 0.2506907 0.9091175 0.0302826
v 0.2471105 0.9100000 0.0302495
v 0.3017814 0.9100000 0.0078462
v 0.3000629 0.9100000 0.0103685
v 0.3253566 0.9981705 -0.0297099
v 0.3239125 0.9981378 -0.0322759
v 0.3239608 1.0000000 -0.0303907
v 0.3182036 0.9982198 -0.0336139
v 0.3213300 1.0000000 -0.0314756
v 0.3224710 0.9981330 -0.0329700
v 0.3134940 0.9981847 -0.0318588
v 0.3179565 1.0000000 -0.0311452
v 0.3172355 0.9982158 -0.0335059
v 0.3138452 0.9989255 -0.0284167
v 0.3168600 1.0000000 -0.0299793
v 0.3123836 0.9981641 -0.0307092
v 0.3163889 0.9985421 -0.0260038
v 0.3174129 1.0000000 -0.0288799
v 0.3138399 0.9989364 -0.0284106
v 0.3213217 0.9976573 -0.0255533
v 0.3206896 1.0000000 -0.0280994
v 0.3177234 0.9985411 -0.0256872
v 0.3252665 0.9981651 -0.0290337
v 0.3237596 1.0000000 -0.0292354
v 0.3234079 0.9976348 -0.0263177
v 0.3633141 0.0018414 0.0012221
v 0.3624223 0.0000000 -0.0000794
v 0.3633983 0.0021624 -0.0012235
v 0.2708053 0.0018672 -0.1000761
v 0.2739005 0.0021500 -0.0991045
v 0.2723734 0.0000000 -0.0985598
v 0.1136786 0.0018614 -0.0623440
v 0.1154264 0.0018651 -0.0646565
v 0.1156368 0.0000000 -0.0628906
v 0.1345263 0.0022380 0.0540061
v 0.1324894 0.0018676 0.0518388
v 0.1344252 0.0000000 0.0522129
v 0.2708129 0.0018542 0.0908800
v 0.2675577 0.0022235 0.0917100
v 0.2689955 0.0000000 0.0903518
v 0.3321647 0.1600000 -0.0082843
v 0.3321305 0.1600000 -0.0057473
v 0.2427466 0.1600000 -0.0900394
v 0.2460334 0.1595066 -0.0892674
v 0.1027105 0.1581397 -0.0513379
v 0.1041249 0.1612915 -0.0507520
v 0.1040770 0.1600000 -0.0535332
v 0.1360048 0.1600000 0.0536891
v 0.1352542 0.1612912 0.0520532
v 0.1336810 0.1581324 0.0515745
v 0.2594350 0.1600000 0.0750971
v 0.2562880 0.1603362 0.0761032
v 0.3481004 0.3381393 -0.0009397
v 0.3479138 0.3381334 -0.0034661
v 0.3467995 0.3400000 -0.0020474
v 0.3304790 0.3383643 -0.0152624
v 0.3327360 0.3400000 -0.0130891
v 0.3339331 0.3381329 -0.0145848
v 0.3091063 0.3383880 -0.0061231
v 0.3126687 0.3400000 -0.0064945
v 0.3102649 0.3383987 -0.0086825
v 0.3175789 0.3382498 0.0102061
v 0.3188156 0.3400000 0.0078259
v 0.3155767 0.3383773 0.0089772
v 0.3386395 0.3381497 0.0113197
v 0.3374312 0.3400000 0.0102435
v 0.3355207 0.3382730 0.0125959
v -0.3456613 0.0018447 -0.0649102
v -0.3452911 0.0000000 -0.0632601
v -0.3465050 0.0022477 -0.0623844
v -0.2962834 0.0018677 0.0511725
v -0.2989272 0.0022319 0.0496873
v -0.2974439 0.0000000 0.0494388
v -0.1415683 0.0018663 0.0302998
v -0.1442153 0.0018645 0.0322340
v -0.1437514 0.0000000 0.0304043
v -0.0916500 0.0020184 -0.0825393
v -0.0904435 0.0018669 -0.0809378
v -0.0924200 0.0000000 -0.0809800
v -0.2344292 0.0018605 -0.1400037
v -0.2311428 0.0020125 -0.1403208
v -0.2327247 0.0000000 -0.1390974
v -0.3178813 0.1600000 -0.0514751
v -0.3170927 0.1600000 -0.0541551
v -0.2668194 0.1600000 0.0470043
v -0.2694990 0.1602861 0.0456431
v -0.1300776 0.1594523 0.0195652
v -0.1326047 0.1600000 0.0216042
v -0.0959848 0.1600000 -0.0842882
v -0.0946594 0.1600000 -0.0826704
v -0.2292228 0.1600000 -0.1265187
v -0.2260091 0.1596362 -0.1271260
v -0.1415463 0.4283215 -0.0412038
v -0.1420242 0.4283448 -0.0384852
v -0.1394310 0.4300000 -0.0395095
v -0.1304699 0.4281460 -0.0238456
v -0.1306474 0.4300000 -0.0259660
v -0.1333162 0.4283775 -0.0249486
v -0.1093544 0.4275180 -0.0310850
v -0.1111796 0.4300000 -0.0312351
v -0.1116126 0.4281563 -0.0288739
v -0.1066373 0.4281507 -0.0478287
v -0.1072732 0.4300000 -0.0457949
v -0.1052232 0.4274934 -0.0464854
v -0.1298314 0.4283002 -0.0523606
v -0.1273185 0.4300000 -0.0511095
v -0.1265747 0.4281593 -0.0531720
vn 0.5705673 -0.7757039 -0.2696970
vn 0.0645442 -0.7172810 -0.6937881
vn -0.3170887 -0.6331466 -0.7061020
vn -0.7956310 -0.5698862 -0.2054290
vn -0.4891155 -0.6279590 0.6053376
vn 0.0011184 -0.6502011 0.7597613
vn 0.4755990 -0.7336850 0.4852957
vn 0.8273029 0.2733270 -0.4907771
vn 0.8895745 0.1696613 -0.4241136
vn 0.1943413 0.1324770 -0.9719471
vn -0.2068669 0.1467019 -0.9673079
vn -0.3765419 0.4259008 -0.8226935
vn -0.8495103 0.5198591 -0.0898817
vn -0.9012618 0.3958797 -0.1760863
vn -0.5334098 0.4212291 0.7335122
vn -0.6046592 0.3704341 0.7050998
vn 0.0118080 0.1620945 0.9867046
vn 0.6047171 0.3064111 0.7351391
vn 0.6328980 0.4109260 0.6561860
vn 0.8651003 0.2868254 -0.4115006
vn 0.8665395 0.2939179 -0.4033875
vn 0.1707353 0.4660231 -0.8681429
vn -0.3928517 0.2559004 -0.8832794
vn -0.4728054 0.4967033 -0.7278331
vn -0.7896634 0.5861651 -0.1812238
vn -0.8269273 0.3604173 -0.4316141
vn -0.6428220 0.3136445 0.6988612
vn -0.4794518 0.4826960 0.7328919
vn 0.0450011 0.3821705 0.9229955
vn 0.6663067 0.4026887 0.6275964
vn 0.4589409 0.0383702 0.8876379
vn 0.1701570 0.2658203 -0.9488868
vn 0.1326428 0.0508190 -0.9898602
vn 0.1707421 0.4190519 -0.8917637
vn 0.2839952 0.6073418 -0.7419452
vn 0.7836896 0.4317712 -0.4465469
vn 0.1246079 0.6653237 -0.7360824
vn -0.2429185 0.8081313 -0.5365766
vn -0.3682158 0.9268646 -0.0730701
vn -0.2181057 0.8996044 0.3783409
vn 0.1591176 0.7458857 0.6467891
vn 0.6220403 0.5698814 0.5369367
vn 0.9063395 -0.4218605 -0.0241335
vn 0.3057729 -0.4321279 -0.8483917
vn -0.6649574 -0.5517046 -0.5034418
vn -0.5934912 -0.4867694 0.6409554
vn 0.1776677 -0.4267657 0.8867385
vn -0.8833494 0.4307428 -0.1848094
vn -0.7612836 0.2913486 0.5792781
vn 0.8351418 0.5464175 -0.0629772
vn 0.1843120 0.6837681 -0.7060385
vn -0.4210989 0.8875483 -0.1869055
vn -0.2461464 0.8374747 0.4879015
vn 0.3172256 0.6230046 0.7150057
vn -0.8905521 -0.3892524 -0.2353710
vn -0.4889248 -0.4106113 0.7696434
vn 0.4959900 -0.5421609 0.6782739
vn 0.5970012 -0.6205443 -0.5084431
vn -0.0620116 -0.4824260 -0.8737389
vn -0.5644690 0.8185843 -0.1062747
vn -0.1943629 0.7303414 0.6548469
vn 0.6672496 0.5227550 0.5305704
vn 0.6617192 0.6460125 -0.3805203
vn -0.1403031 0.7130353 -0.6869466
vn 0.4611697 -0.8825129 0.0921603
vn 0.4647798 -0.8805343 0.0929470
vn 0.1927520 -0.7820048 0.5927184
vn 0.1983100 -0.7666034 0.6107311
vn -0.2022598 -0.7190247 0.6649018
vn -0.1938625 -0.7445759 0.6387675
vn -0.5578257 -0.7973031 0.2305174
vn -0.5534238 -0.8008601 0.2287906
vn -0.4889091 -0.7106872 -0.5058574
vn -0.4792345 -0.7244847 -0.4954354
vn -0.0446425 -0.7513987 -0.6583366
vn -0.0449813 -0.7455887 -0.6648867
vn 0.2341318 -0.8790095 -0.4153609
vn 0.2305212 -0.8828734 -0.4091389
vn 0.2420115 -0.1882106 -0.9518440
vn 0.2375733 -0.1870594 -0.9531881
vn 0.8191148 -0.3913768 -0.4193747
vn 0.8176551 -0.3908327 -0.4227173
vn 0.4475882 0.3493610 -0.8231716
vn 0.4656178 0.2096102 -0.8598044
vn -0.4123209 -0.0939462 -0.9061819
vn -0.4053183 -0.0950683 -0.9092190
vn -0.0567876 0.3031390 -0.9512527
vn -0.0577024 0.2742391 -0.9599288
vn -0.9886971 -0.0074137 -0.1497432
vn -0.9873522 -0.0077269 -0.1583545
vn -0.6969724 0.1995732 -0.6887669
vn -0.7026867 0.1580665 -0.6937191
vn -0.6814737 -0.0654448 0.7289105
vn -0.6922703 -0.0642304 0.7187741
vn -0.8219804 0.4620560 0.3329452
vn -0.8107763 0.4848775 0.3279264
vn 0.0138249 -0.1120524 0.9936061
vn 0.0071332 -0.1106713 0.9938315
vn -0.2443356 0.3238203 0.9140244
vn -0.2480588 0.2678688 0.9309744
vn 0.7062929 -0.3763577 0.5995874
vn 0.7132127 -0.3782611 0.5901238
vn 0.2771310 0.2795728 0.9192591
vn 0.2778277 0.2722375 0.9212484
vn 0.9355813 0.3117112 0.1659031
vn 0.9659225 0.1956479 0.1694569
vn 0.6683674 0.6540115 -0.3543359
vn 0.6659431 0.6534988 -0.3598039
vn 0.4127055 0.3386896 -0.8455552
vn 0.4261415 0.2183064 -0.8779212
vn -0.2701218 0.7632926 -0.5868719
vn -0.2650304 0.7617561 -0.5911739
vn -0.0713816 0.3831539 -0.9209223
vn -0.0733368 0.3419652 -0.9368466
vn -0.5389971 0.8271486 -0.1590831
vn -0.5398682 0.8281341 -0.1507857
vn -0.6555235 0.3589953 -0.6643881
vn -0.6559404 0.3575071 -0.6647787
vn -0.4230010 0.7286195 0.5386870
vn -0.4257871 0.7293921 0.5354367
vn -0.7762606 0.5577085 0.2939059
vn -0.7710004 0.5661137 0.2916737
vn -0.2272578 0.2341394 0.9452685
vn -0.2280440 0.2157991 0.9494349
vn 0.3938358 0.7893486 0.4709800
vn 0.4061841 0.7943140 0.4517520
vn 0.3001731 0.1173489 0.9466389
vn 0.2997060 0.1273483 0.9454939
vn 0.8992451 0.3727431 0.2289556
vn 0.9299941 0.2826416 0.2349990
vn 0.8870204 -0.1095492 -0.4485464
vn 0.9004326 -0.1113477 -0.4205030
vn 0.1888303 -0.0125223 -0.9819299
vn 0.1884840 -0.0124498 -0.9819974
vn -0.4097153 0.1184107 -0.9044956
vn -0.4015085 0.1162723 -0.9084446
vn -0.9392418 0.2807988 -0.1974261
vn -0.9349824 0.2789434 -0.2190852
vn -0.6324423 0.2570811 0.7307024
vn -0.6514963 0.2612887 0.7122364
vn 0.0319236 0.0222451 0.9992428
vn 0.0414008 0.0202037 0.9989383
vn 0.7425190 -0.1016575 0.6620659
vn 0.7217406 -0.0971957 0.6853055
vn 0.1869652 0.3181406 -0.9294249
vn 0.1788812 0.3205352 -0.9301928
vn 0.8416743 0.3262119 -0.4303143
vn 0.8436276 0.3260396 -0.4266037
vn -0.3656280 0.4262664 -0.8274135
vn -0.3725419 0.4299070 -0.8224308
vn -0.7556687 0.6429456 -0.1248422
vn -0.7538950 0.6411830 -0.1432711
vn -0.5280561 0.5532717 0.6442415
vn -0.5425151 0.5592804 0.6268035
vn 0.0402032 0.4198261 0.9067137
vn -0.0007989 0.4303471 0.9026631
vn 0.7073767 0.3786390 0.5968674
vn 0.6921985 0.3786903 0.6143734
vn 0.8808134 -0.1146500 -0.4593727
vn 0.8856666 -0.1154938 -0.4497284
vn 0.1764773 0.0184360 -0.9841320
vn 0.1971943 0.0133606 -0.9802733
vn -0.4089166 0.2000665 -0.8903711
vn -0.3895811 0.1938603 -0.9003581
vn -0.9146799 0.3642827 -0.1750965
vn -0.9181576 0.3660289 -0.1516882
vn -0.6043625 0.2738171 0.7481779
vn -0.6042819 0.2737951 0.7482510
vn 0.0505880 0.1058335 0.9930962
vn 0.0344456 0.1097798 0.9933589
vn 0.7598712 -0.0736600 0.6458870
vn 0.7621765 -0.0741745 0.6431059
vn 0.8482976 0.3269534 -0.4165246
vn 0.8375654 0.3281381 -0.4368175
vn -0.4113332 0.5054079 -0.7585301
vn -0.3658021 0.4814433 -0.7964931
vn -0.6567218 0.7541234 0.0038093
vn -0.6558409 0.7537854 -0.0409899
vn -0.4723804 0.6379988 0.6081237
vn -0.4575728 0.6314147 0.6260532
vn 0.0669720 0.3739368 0.9250330
vn 0.0470648 0.3796273 0.9239416
vn 0.7036679 0.4082463 0.5815380
vn 0.7248645 0.4080993 0.5550013
vn 0.8576463 0.2694659 -0.4379851
vn 0.8755658 0.2696704 -0.4008270
vn -0.3808184 0.4199972 -0.8237595
vn -0.3863750 0.4222175 -0.8200285
vn -0.8044749 0.5938499 0.0127476
vn -0.8045583 0.5938554 0.0046705
vn -0.5169497 0.5036212 0.6921913
vn -0.5285805 0.5075005 0.6804746
vn 0.0741928 0.3361200 0.9388922
vn 0.0702110 0.3369102 0.9389153
vn 0.7988319 0.2562264 0.5442570
vn 0.7750902 0.2583619 0.5766144
vn 0.8588271 -0.1759590 -0.4810973
vn 0.8577857 -0.1756609 -0.4830600
vn 0.1505127 0.1434474 -0.9781455
vn 0.1867758 0.1162107 -0.9755049
vn 0.3070443 0.7019940 -0.6425948
vn 0.2797200 0.6794490 -0.6783109
vn -0.3374768 0.5608172 -0.7560381
vn -0.3450940 0.5689246 -0.7464816
vn -0.0689571 0.8059008 -0.5880211
vn -0.0575680 0.8070310 -0.5876961
vn -0.5421968 0.8375339 0.0675246
vn -0.5475862 0.8367043 0.0086757
vn -0.3212233 0.9001701 -0.2941248
vn -0.3180981 0.8996127 -0.2991832
vn -0.3727556 0.7681377 0.5205938
vn -0.3802487 0.7721250 0.5091503
vn -0.2331938 0.3904001 -0.8906224
vn -0.2695411 0.9534003 0.1355562
vn 0.0858121 0.4815763 0.8721929
vn 0.1073730 0.4684012 0.8769671
vn -0.0994891 0.9008729 0.4225280
vn -0.1003214 0.9014065 0.4211911
vn 0.8235136 0.0178212 0.5670167
vn 0.8263199 0.0155571 0.5629862
vn 0.2383377 0.7401866 0.6287438
vn 0.2319344 0.7438376 0.6268270
vn 0.7588390 0.6377351 0.1321260
vn 0.7706636 0.6280770 0.1076894
vn 0.5207051 -0.6634468 0.5373124
vn 0.5313210 -0.6452773 0.5489219
vn -0.2166725 -0.6071021 0.7645130
vn -0.2173082 -0.6043613 0.7665014
vn -0.7011315 -0.7037874 0.1144461
vn -0.6684493 -0.7355540 0.1101625
vn -0.1610150 -0.6880992 -0.7075265
vn -0.1588574 -0.6993327 -0.6969205
vn 0.6059690 -0.5707784 -0.5540881
vn 0.6074325 -0.5680031 -0.5553362
vn 0.2421825 0.1041969 -0.9646195
vn 0.2884383 0.1105384 -0.9510965
vn 0.9807795 0.1946720 0.0132037
vn 0.9788786 0.1956197 0.0594101
vn -0.8407489 -0.0209040 -0.5410215
vn -0.7976761 -0.0148410 -0.6029034
vn -0.6764411 0.0078192 0.7364553
vn -0.7292480 0.0067181 0.6842165
vn -0.8786628 0.3975123 0.2644534
vn -0.8959665 0.3516266 0.2712986
vn 0.3137315 0.1166154 0.9423234
vn 0.2575003 0.1130763 0.9596391
vn 0.9936133 -0.0858670 -0.0732084
vn 0.9958839 -0.0896412 0.0134071
vn 0.2029096 0.2920291 -0.9346372
vn 0.2577423 0.2620017 -0.9300131
vn 0.4344249 0.7161417 -0.5462745
vn 0.4440567 0.6949339 -0.5655798
vn -0.5961763 0.7572590 -0.2667070
vn -0.5730304 0.7470237 -0.3370338
vn -0.1515000 0.8695857 -0.4699664
vn -0.1587736 0.8610240 -0.4831443
vn -0.3990851 0.5798063 0.7103209
vn -0.4304440 0.6019228 0.6726120
vn -0.3928210 0.9039598 0.1689622
vn -0.3917770 0.9045612 0.1681660
vn 0.3793261 0.1577471 0.9117168
vn 0.3173498 0.1902662 0.9290252
vn -0.0743608 0.8317188 0.5501949
vn -0.0734722 0.8213088 0.5657330
vn 0.5994505 0.6571884 0.4569053
vn 0.5836989 0.6759426 0.4498858
vn -0.4124723 -0.6755762 -0.6111165
vn -0.4248879 -0.6494064 -0.6306677
vn 0.2897960 -0.6531143 -0.6996142
vn 0.2902135 -0.6519247 -0.7005500
vn 0.6515877 -0.6966083 0.3002839
vn 0.6299620 -0.7206399 0.2895271
vn 0.0894091 -0.6861693 0.7219265
vn 0.0874658 -0.7063572 0.7024310
vn -0.7699190 -0.5480670 0.3268750
vn -0.7720313 -0.5446077 0.3276737
vn -0.4413716 0.1057262 0.8910741
vn -0.4751136 0.1107975 0.8729209
vn -0.9418350 0.1900605 -0.2771708
vn -0.9218122 0.1895087 -0.3381551
vn 0.6288591 0.0071070 0.7774867
vn 0.5899410 0.0109564 0.8073721
vn 0.7734946 0.0142091 -0.6336436
vn 0.7993068 0.0147281 -0.6007426
vn -0.1751722 0.0893745 -0.9804728
vn -0.0996447 0.0862259 -0.9912800
vn -0.8236635 0.5470169 -0.1495027
vn -0.8075493 0.5398012 -0.2376526
vn -0.3059623 0.3855755 0.8704702
vn -0.3777853 0.4104403 0.8299499
vn -0.4229486 0.8649957 0.2699946
vn -0.4346210 0.8553661 0.2818750
vn 0.7086262 0.0777253 0.7012901
vn 0.6374245 0.0940581 0.7647504
vn 0.1664160 0.7621458 0.6256514
vn 0.1732245 0.7485768 0.6400205
vn 0.7128339 0.1222166 -0.6906019
vn 0.7683957 0.1154958 -0.6294670
vn 0.7843961 0.5838149 0.2094830
vn 0.7816131 0.5874566 0.2097037
vn -0.2143430 0.3331862 -0.9181743
vn -0.1422985 0.3114542 -0.9395465
vn 0.1670992 0.7647679 -0.6222603
vn 0.1680670 0.7549256 -0.6339091
vn -0.3742697 0.8409470 -0.3908074
vn -0.3647799 0.8479303 -0.3846423
vn 0.9030710 -0.3896761 0.1805967
vn 0.0000000 -0.9999999 -0.0000000
vn 0.0000000 -1.0000000 -0.0000000
vn 0.0000000 -1.0000000 -0.0000000
vn 0.0000000 -1.0000000 -0.0000000
vn 0.0000000 -1.0000000 0.0000000
vn 0.4771496 -0.2361981 -0.8464862
vn 0.4611984 -0.2600718 -0.8483270
vn -0.0669500 -0.1290907 -0.9893702
vn -0.0592082 -0.1141498 -0.9916977
vn -0.6952097 -0.0105236 -0.7187299
vn -0.7105303 -0.0458925 -0.7021685
vn -0.9241139 -0.0133625 0.3818833
vn -0.9268354 -0.0027224 0.3754580
vn -0.2902831 -0.0347225 0.9563106
vn -0.2566928 -0.1102488 0.9601843
vn 0.3011541 -0.2225728 0.9272365
vn 0.2843672 -0.1719519 0.9431691
vn 0.8937894 -0.4201965 0.1567659
vn 0.7506490 0.6470324 0.1336981
vn 0.5843480 0.7981728 0.1464846
vn 0.3506190 0.6756003 -0.6485603
vn 0.3857906 0.4765730 -0.7899644
vn -0.0437423 0.6875476 -0.7248206
vn -0.0601335 0.6257619 -0.7776927
vn -0.4605156 0.7622948 -0.4547878
vn -0.4377069 0.7819766 -0.4437625
vn -0.5973459 0.7647822 0.2414250
vn -0.5628468 0.7985588 0.2133243
vn -0.1853369 0.6935440 0.6961659
vn -0.1875427 0.5977851 0.7794105
vn 0.2047407 0.7056023 0.6783854
vn 0.2268284 0.6599093 0.7162880
vn 0.9628789 -0.1130529 0.2451189
vn 0.9689414 -0.1670993 0.1822922
vn 0.4358713 -0.0606078 -0.8979660
vn 0.4366334 -0.0598767 -0.8976447
vn -0.0779862 0.0371318 -0.9962627
vn -0.0774632 0.0375501 -0.9962879
vn -0.6882278 0.1995578 -0.6975093
vn -0.7039984 0.1879256 -0.6848869
vn -0.8897373 0.3083892 0.3365464
vn -0.8805236 0.2693985 0.3900034
vn -0.2327415 0.0830632 0.9689850
vn -0.2915039 0.1647096 0.9422824
vn 0.3021592 -0.0072470 0.9532300
vn 0.3323988 -0.0492685 0.9418511
vn 0.4221819 0.2491810 -0.8715912
vn 0.9436404 0.2793045 0.1775722
vn 0.4227927 0.2564259 -0.8691905
vn -0.0742945 0.2853721 -0.9555328
vn -0.0543903 0.3595693 -0.9315320
vn -0.6020381 0.5426896 -0.5856946
vn -0.6199409 0.5181909 -0.5891955
vn -0.7104647 0.6296349 0.3143245
vn -0.7306795 0.5912948 0.3412888
vn -0.2561189 0.4964190 0.8294403
vn -0.2469538 0.3795731 0.8915930
vn 0.3093611 0.3686649 0.8765739
vn 0.3313826 0.2986243 0.8949911
vn 0.9368569 0.2987579 0.1817772
vn 0.9731100 -0.1320154 0.1887560
vn 0.9748133 -0.1406120 0.1731109
vn 0.4355133 -0.0438448 -0.8991139
vn 0.4233926 -0.0499370 -0.9045689
vn -0.0580662 0.0873042 -0.9944879
vn -0.0869387 0.0769907 -0.9932342
vn -0.6968415 0.2760306 -0.6619810
vn -0.6860877 0.2795580 -0.6716629
vn -0.8530734 0.3371260 0.3982609
vn -0.8560525 0.3433114 0.3864085
vn -0.2625476 0.1804705 0.9478920
vn -0.2396469 0.1581709 0.9578890
vn 0.3473470 0.0118224 0.9376621
vn 0.3300360 0.0282634 0.9435452
vn 0.9483579 0.2688017 0.1684129
vn 0.9159527 0.3473603 0.2009268
vn 0.4091108 0.2620200 -0.8740560
vn 0.4061135 0.2868062 -0.8676487
vn 0.3968025 0.2896068 -0.8710198
vn -0.0822445 0.3322301 -0.9396057
vn -0.0822853 0.3306463 -0.9401608
vn -0.0506166 0.3919571 -0.9185899
vn -0.0494757 0.3941946 -0.9176943
vn -0.5384787 0.6553872 -0.5296304
vn -0.6276873 0.5816910 -0.5173434
vn -0.6475393 0.7037471 0.2922890
vn -0.6402656 0.7163777 0.2772421
vn -0.2167123 0.4550446 0.8636957
vn -0.2219473 0.4785375 0.8495535
vn 0.3042778 0.3837019 0.8718876
vn 0.3649357 0.2475882 0.8975087
vn 0.4475671 0.2064761 -0.8700870
vn 0.4476401 0.2065125 -0.8700407
vn 0.9511185 0.2265375 0.2098914
vn 0.4064335 0.1854284 -0.8946666
vn 0.4072100 0.1858310 -0.8942298
vn -0.6691965 0.4979583 -0.5515556
vn -0.6372447 0.4994166 -0.5869433
vn -0.0545424 0.2627441 -0.9633228
vn -0.1055353 0.3012640 -0.9476825
vn -0.0871061 0.2876615 -0.9537628
vn -0.7600861 0.5603084 0.3291257
vn -0.7587366 0.5579331 0.3361982
vn -0.2334291 0.3852355 0.8928071
vn -0.2132392 0.3694423 0.9044565
vn 0.3641839 0.2552715 0.8956598
vn 0.3572775 0.2593245 0.8972756
vn 0.9705507 0.1987872 0.1360699
vn 0.9698675 -0.2001636 0.1388942
vn 0.9703812 -0.2050704 0.1276968
vn 0.4556354 -0.0902416 -0.8855805
vn 0.4324448 -0.0858592 -0.8975633
vn -0.1052317 0.3098111 -0.9449568
vn -0.1066449 0.3106511 -0.9445225
vn -0.5102980 0.7201943 -0.4700172
vn -0.5071792 0.7177936 -0.4770131
vn -0.5193219 0.8230144 0.2301129
vn -0.3038312 0.3523718 -0.8851670
vn -0.1793714 0.6236991 0.7608057
vn -0.1798356 0.6241165 0.7603537
vn 0.3549183 0.2789923 0.8922983
vn 0.3310148 0.3001184 0.8946274
vn 0.0000000 0.9999999 -0.0000000
vn 0.0000000 1.0000000 -0.0000000
vn 0.0000000 1.0000000 -0.0000000
vn 0.0000000 1.0000000 -0.0000000
vn 0.0000000 1.0000000 0.0000000
vn 0.6862808 0.1665110 0.7080204
vn 0.7382721 0.1193683 0.6638566
vn 0.0000000 -1.0000000 -0.0000000
vn 0.0000000 -1.0000000 0.0000000
vn -0.0000000 -1.0000000 -0.0000000
vn 0.7272058 0.1703532 -0.6649448
vn 0.6810907 0.1023447 -0.7250110
vn -0.2219479 0.0525574 -0.9736410
vn -0.2545524 0.0162035 -0.9669233
vn -0.9866701 0.0077987 0.1625469
vn -0.9539349 -0.0871673 0.2870714
vn -0.2718986 0.0753166 0.9593741
vn -0.1831996 0.0036920 0.9830687
vn 0.7409353 -0.0844045 0.6662513
vn 0.7846809 -0.1320342 0.6056755
vn 0.6847349 -0.0325494 -0.7280650
vn 0.6220912 -0.0338427 -0.7822130
vn -0.2242579 0.4733515 -0.8518490
vn -0.2704013 0.4823188 -0.8332177
vn -0.6616852 0.7225155 0.2003596
vn -0.6615052 0.6941081 0.2839449
vn -0.1691885 0.3972604 0.9019753
vn -0.1240008 0.3525787 0.9275300
vn 0.0000000 1.0000000 -0.0000000
vn 0.0000000 1.0000000 0.0000000
vn 0.0000000 0.9999999 0.0000000
vn -0.5527405 0.1555206 -0.8187131
vn -0.6333296 0.0864293 -0.7690408
vn -0.0000000 -1.0000000 -0.0000000
vn 0.0000000 -1.0000000 -0.0000000
vn 0.0000000 -0.9999999 -0.0000000
vn -0.9056993 0.1784716 0.3845215
vn -0.8875772 0.1304961 0.4417890
vn 0.1233815 0.0575347 0.9906901
vn 0.1859421 -0.0087476 0.9825217
vn 0.9082517 0.0287881 0.4174327
vn 0.9439555 -0.0465715 0.3267711
vn 0.3818877 0.0647382 -0.9219385
vn 0.3129193 -0.0019280 -0.9497778
vn -0.5790284 0.4127602 -0.7031040
vn -0.6271910 0.4145874 -0.6593547
vn -0.7775124 0.4965606 0.3858785
vn -0.7450233 0.4650977 0.4781470
vn 0.1833070 0.1679804 0.9685976
vn 0.2556203 0.1233742 0.9588728
vn 0.9448921 -0.0069610 0.3273078
vn 0.9655234 -0.0256953 0.2590450
vn 0.3092736 0.1443488 -0.9399539
vn 0.2563655 0.1402165 -0.9563556
vn 0.0000000 1.0000000 0.0000000
vn 0.0000000 1.0000000 -0.0000000
vn 0.0000000 1.0000000 -0.0000000
f 2//1 3//1 4//1
f 5//2 6//2 7//2
f 8//3 9//3 10//3
f 11//4 12//4 13//4
f 14//5 15//5 16//5
f 17//6 18//6 19//6
f 20//7 21//7 22//7
f 23//8 24//8 25//8
f 23//9 25//9 26//9
f 27//10 28//10 29//10
f 30//11 31//11 32//11
f 30//12 32//12 33//12
f 34//13 35//13 36//13
f 34//14 36//14 37//14
f 38//15 39//15 40//15
f 38//16 40//16 41//16
f 42//17 43//17 44//17
f 45//18 46//18 47//18
f 45//19 47//19 48//19
f 49//20 50//20 51//20
f 49//21 51//21 52//21
f 53//22 54//22 55//22
f 56//23 57//23 58//23
f 56//24 58//24 59//24
f 60//25 61//25 62//25
f 60//26 62//26 63//26
f 64//27 65//27 66//27
f 64//28 66//28 67//28
f 68//29 69//29 70//29
f 71//30 72//30 73//30
f 71//31 73//31 74//31
f 105//32 106//32 107//32
f 105//33 107//33 108//33
f 133//34 134//34 135//34
f 133//35 135//35 136//35
f 147//36 148//36 149//36
f 150//37 151//37 152//37
f 153//38 154//38 155//38
f 156//39 157//39 158//39
f 159//40 160//40 161//40
f 162//41 163//41 164//41
f 165//42 166//42 167//42
f 168//43 169//43 170//43
f 171//44 172//44 173//44
f 174//45 175//45 176//45
f 177//46 178//46 179//46
f 180//47 181//47 182//47
f 187//48 188//48 189//48
f 190//49 191//49 192//49
f 195//50 196//50 197//50
f 198//51 199//51 200//51
f 201//52 202//52 203//52
f 204//53 205//53 206//53
f 207//54 208//54 209//54
f 210//55 211//55 212//55
f 213//56 214//56 215//56
f 216//57 217//57 218//57
f 219//58 220//58 221//58
f 222//59 223//59 224//59
f 235//60 236//60 237//60
f 238//61 239//61 240//61
f 241//62 242//62 243//62
f 244//63 245//63 246//63
f 247//64 248//64 249//64
f 2//65 20//65 22//65
f 2//66 22//66 3//66
f 19//67 22//67 21//67
f 19//68 21//68 17//68
f 16//69 19//69 18//69
f 16//70 18//70 14//70
f 13//71 16//71 15//71
f 13//72 15//72 11//72
f 10//73 13//73 12//73
f 10//74 12//74 8//74
f 7//75 10//75 9//75
f 7//76 9//76 5//76
f 3//77 7//77 6//77
f 3//78 6//78 4//78
f 5//79 27//79 29//79
f 5//80 29//80 6//80
f 4//81 23//81 26//81
f 4//82 26//82 2//82
f 23//83 29//83 28//83
f 23//84 28//84 24//84
f 8//85 30//85 33//85
f 8//86 33//86 9//86
f 27//87 33//87 32//87
f 27//88 32//88 28//88
f 11//89 34//89 37//89
f 11//90 37//90 12//90
f 30//91 37//91 36//91
f 30//92 36//92 31//92
f 14//93 38//93 41//93
f 14//94 41//94 15//94
f 34//95 41//95 40//95
f 34//96 40//96 35//96
f 17//97 42//97 44//97
f 17//98 44//98 18//98
f 38//99 44//99 43//99
f 38//100 43//100 39//100
f 20//101 45//101 48//101
f 20//102 48//102 21//102
f 42//103 48//103 47//103
f 42//104 47//104 43//104
f 25//105 46//105 45//105
f 25//106 45//106 26//106
f 24//107 50//107 49//107
f 24//108 49//108 25//108
f 50//109 54//109 53//109
f 50//110 53//110 51//110
f 31//111 56//111 59//111
f 31//112 59//112 32//112
f 54//113 59//113 58//113
f 54//114 58//114 55//114
f 35//115 60//115 63//115
f 35//116 63//116 36//116
f 56//117 63//117 62//117
f 56//118 62//118 57//118
f 39//119 64//119 67//119
f 39//120 67//120 40//120
f 60//121 67//121 66//121
f 60//122 66//122 61//122
f 64//123 69//123 68//123
f 64//124 68//124 65//124
f 46//125 71//125 74//125
f 46//126 74//126 47//126
f 69//127 74//127 73//127
f 69//128 73//128 70//128
f 52//129 72//129 71//129
f 52//130 71//130 49//130
f 51//131 75//131 76//131
f 51//132 76//132 52//132
f 55//133 77//133 78//133
f 55//134 78//134 53//134
f 57//135 79//135 80//135
f 57//136 80//136 58//136
f 61//137 81//137 82//137
f 61//138 82//138 62//138
f 65//139 83//139 84//139
f 65//140 84//140 66//140
f 70//141 85//141 86//141
f 70//142 86//142 68//142
f 72//143 87//143 88//143
f 72//144 88//144 73//144
f 77//145 91//145 92//145
f 77//146 92//146 78//146
f 75//147 89//147 90//147
f 75//148 90//148 76//148
f 79//149 93//149 94//149
f 79//150 94//150 80//150
f 81//151 95//151 96//151
f 81//152 96//152 82//152
f 83//153 97//153 98//153
f 83//154 98//154 84//154
f 85//155 99//155 100//155
f 85//156 100//156 86//156
f 87//157 101//157 102//157
f 87//158 102//158 88//158
f 89//159 103//159 104//159
f 89//160 104//160 90//160
f 91//161 106//161 105//161
f 91//162 105//162 92//162
f 93//163 109//163 110//163
f 93//164 110//164 94//164
f 95//165 111//165 112//165
f 95//166 112//166 96//166
f 97//167 113//167 114//167
f 97//168 114//168 98//168
f 99//169 115//169 116//169
f 99//170 116//170 100//170
f 101//171 117//171 118//171
f 101//172 118//172 102//172
f 103//173 119//173 120//173
f 103//174 120//174 104//174
f 109//175 121//175 122//175
f 109//176 122//176 110//176
f 111//177 123//177 124//177
f 111//178 124//178 112//178
f 113//179 125//179 126//179
f 113//180 126//180 114//180
f 115//181 127//181 128//181
f 115//182 128//182 116//182
f 117//183 129//183 130//183
f 117//184 130//184 118//184
f 119//185 131//185 132//185
f 119//186 132//186 120//186
f 121//187 137//187 138//187
f 121//188 138//188 122//188
f 123//189 139//189 140//189
f 123//190 140//190 124//190
f 125//191 141//191 142//191
f 125//192 142//192 126//192
f 127//193 143//193 144//193
f 127//194 144//194 128//194
f 129//195 145//195 146//195
f 129//196 146//196 130//196
f 131//197 148//197 147//197
f 131//198 147//198 132//198
f 133//199 150//199 152//199
f 133//200 152//200 134//200
f 148//201 152//201 151//201
f 148//202 151//202 149//202
f 137//203 153//203 155//203
f 137//204 155//204 138//204
f 150//205 155//205 154//205
f 150//206 154//206 151//206
f 139//207 156//207 158//207
f 139//208 158//208 140//208
f 153//209 158//209 157//209
f 153//210 157//210 154//210
f 141//211 159//211 161//211
f 141//212 161//212 142//212
f 156//213 161//213 160//213
f 156//214 160//214 157//214
f 143//215 162//215 164//215
f 143//216 164//216 144//216
f 159//217 164//217 163//217
f 159//218 163//218 160//218
f 145//219 165//219 167//219
f 145//220 167//220 146//220
f 162//221 167//221 166//221
f 162//222 166//222 163//222
f 149//223 166//223 165//223
f 149//224 165//224 147//224
f 168//225 180//225 182//225
f 168//226 182//226 169//226
f 179//227 182//227 181//227
f 179//228 181//228 177//228
f 176//229 179//229 178//229
f 176//230 178//230 174//230
f 173//231 176//231 175//231
f 173//232 175//232 171//232
f 169//233 173//233 172//233
f 169//234 172//234 170//234
f 171//235 185//235 186//235
f 171//236 186//236 172//236
f 170//237 183//237 184//237
f 170//238 184//238 168//238
f 174//239 187//239 189//239
f 174//240 189//240 175//240
f 177//241 190//241 192//241
f 177//242 192//242 178//242
f 187//243 192//243 191//243
f 187//244 191//244 188//244
f 180//245 193//245 194//245
f 180//246 194//246 181//246
f 183//247 196//247 195//247
f 183//248 195//248 184//248
f 185//249 198//249 200//249
f 185//250 200//250 186//250
f 196//251 200//251 199//251
f 196//252 199//252 197//252
f 188//253 201//253 203//253
f 188//254 203//254 189//254
f 198//255 203//255 202//255
f 198//256 202//256 199//256
f 190//257 204//257 206//257
f 190//258 206//258 191//258
f 201//259 206//259 205//259
f 201//260 205//260 202//260
f 193//261 207//261 209//261
f 193//262 209//262 194//262
f 204//263 209//263 208//263
f 204//264 208//264 205//264
f 197//265 208//265 207//265
f 197//266 207//266 195//266
f 210//267 222//267 224//267
f 210//268 224//268 211//268
f 221//269 224//269 223//269
f 221//270 223//270 219//270
f 218//271 221//271 220//271
f 218//272 220//272 216//272
f 215//273 218//273 217//273
f 215//274 217//274 213//274
f 211//275 215//275 214//275
f 211//276 214//276 212//276
f 213//277 227//277 228//277
f 213//278 228//278 214//278
f 212//279 225//279 226//279
f 212//280 226//280 210//280
f 216//281 229//281 230//281
f 216//282 230//282 217//282
f 219//283 231//283 232//283
f 219//284 232//284 220//284
f 222//285 233//285 234//285
f 222//286 234//286 223//286
f 225//287 236//287 235//287
f 225//288 235//288 226//288
f 227//289 238//289 240//289
f 227//290 240//290 228//290
f 236//291 240//291 239//291
f 236//292 239//292 237//292
f 229//293 241//293 243//293
f 229//294 243//294 230//294
f 238//295 243//295 242//295
f 238//296 242//296 239//296
f 231//297 244//297 246//297
f 231//298 246//298 232//298
f 241//299 246//299 245//299
f 241//300 245//300 242//300
f 233//301 247//301 249//301
f 233//302 249//302 234//302
f 244//303 249//303 248//303
f 244//304 248//304 245//304
f 237//305 248//305 247//305
f 237//306 247//306 235//306
f 20//307 2//307 26//307
f 3//308 22//308 19//308
f 19//309 16//309 13//309
f 13//310 10//310 7//310
f 7//311 3//311 19//311
f 19//312 13//312 7//312
f 4//313 6//313 29//313
f 4//314 29//314 23//314
f 5//315 9//315 33//315
f 5//316 33//316 27//316
f 8//317 12//317 37//317
f 8//318 37//318 30//318
f 11//319 15//319 41//319
f 11//320 41//320 34//320
f 14//321 18//321 44//321
f 14//322 44//322 38//322
f 17//323 21//323 48//323
f 17//324 48//324 42//324
f 20//325 26//325 45//325
f 46//326 25//326 49//326
f 46//327 49//327 71//327
f 24//328 28//328 54//328
f 24//329 54//329 50//329
f 28//330 32//330 59//330
f 28//331 59//331 54//331
f 31//332 36//332 63//332
f 31//333 63//333 56//333
f 35//334 40//334 67//334
f 35//335 67//335 60//335
f 39//336 43//336 69//336
f 39//337 69//337 64//337
f 43//338 47//338 74//338
f 43//339 74//339 69//339
f 72//340 52//340 76//340
f 72//341 76//341 87//341
f 51//342 53//342 78//342
f 51//343 78//343 75//343
f 55//344 58//344 80//344
f 55//345 80//345 77//345
f 57//346 62//346 82//346
f 57//347 82//347 79//347
f 61//348 66//348 84//348
f 61//349 84//349 81//349
f 65//350 68//350 86//350
f 65//351 86//351 83//351
f 70//352 73//352 88//352
f 70//353 88//353 85//353
f 75//354 92//354 89//354
f 87//355 76//355 90//355
f 75//356 78//356 92//356
f 77//357 80//357 94//357
f 77//358 94//358 91//358
f 79//359 82//359 96//359
f 79//360 96//360 93//360
f 81//361 84//361 98//361
f 81//362 98//362 95//362
f 83//363 86//363 100//363
f 83//364 100//364 97//364
f 85//365 88//365 102//365
f 85//366 102//366 99//366
f 87//367 90//367 101//367
f 101//368 90//368 104//368
f 101//369 104//369 117//369
f 89//370 92//370 105//370
f 89//371 105//371 103//371
f 91//372 94//372 110//372
f 91//373 110//373 106//373
f 93//374 96//374 112//374
f 93//375 112//375 109//375
f 95//376 98//376 114//376
f 95//377 114//377 111//377
f 97//378 100//378 116//378
f 97//379 116//379 113//379
f 99//380 102//380 118//380
f 99//381 118//381 115//381
f 117//382 104//382 120//382
f 117//383 120//383 129//383
f 119//384 103//384 105//384
f 105//385 108//385 1//385
f 105//386 1//386 119//386
f 107//387 106//387 110//387
f 107//388 110//388 122//388
f 108//389 107//389 122//389
f 108//390 122//390 1//390
f 109//391 112//391 124//391
f 109//392 124//392 121//392
f 111//393 114//393 126//393
f 111//394 126//394 123//394
f 113//395 116//395 128//395
f 113//396 128//396 125//396
f 115//397 118//397 130//397
f 115//398 130//398 127//398
f 119//399 135//399 134//399
f 119//400 134//400 131//400
f 129//401 120//401 132//401
f 119//402 1//402 136//402
f 119//403 136//403 135//403
f 121//404 124//404 140//404
f 121//405 140//405 137//405
f 136//406 1//406 122//406
f 122//407 138//407 133//407
f 122//408 133//408 136//408
f 123//409 126//409 142//409
f 123//410 142//410 139//410
f 125//411 128//411 144//411
f 125//412 144//412 141//412
f 127//413 130//413 146//413
f 127//414 146//414 143//414
f 129//415 132//415 145//415
f 145//416 132//416 147//416
f 145//417 147//417 165//417
f 131//418 134//418 152//418
f 131//419 152//419 148//419
f 133//420 138//420 155//420
f 133//421 155//421 150//421
f 137//422 140//422 158//422
f 137//423 158//423 153//423
f 139//424 142//424 161//424
f 139//425 161//425 156//425
f 141//426 144//426 164//426
f 141//427 164//427 159//427
f 143//428 146//428 167//428
f 143//429 167//429 162//429
f 166//430 149//430 151//430
f 151//431 154//431 157//431
f 157//432 160//432 163//432
f 163//433 166//433 151//433
f 151//434 157//434 163//434
f 180//435 168//435 184//435
f 180//436 184//436 193//436
f 169//437 182//437 179//437
f 179//438 176//438 173//438
f 179//439 173//439 169//439
f 170//440 172//440 186//440
f 170//441 186//441 183//441
f 171//442 175//442 189//442
f 171//443 189//443 185//443
f 174//444 178//444 192//444
f 174//445 192//445 187//445
f 177//446 181//446 194//446
f 177//447 194//447 190//447
f 193//448 184//448 195//448
f 193//449 195//449 207//449
f 183//450 186//450 200//450
f 183//451 200//451 196//451
f 185//452 189//452 203//452
f 185//453 203//453 198//453
f 188//454 191//454 206//454
f 188//455 206//455 201//455
f 190//456 194//456 209//456
f 190//457 209//457 204//457
f 208//458 197//458 199//458
f 199//459 202//459 205//459
f 199//460 205//460 208//460
f 222//461 210//461 226//461
f 222//462 226//462 233//462
f 211//463 224//463 221//463
f 221//464 218//464 215//464
f 221//465 215//465 211//465
f 212//466 214//466 228//466
f 212//467 228//467 225//467
f 213//468 217//468 230//468
f 213//469 230//469 227//469
f 216//470 220//470 232//470
f 216//471 232//471 229//471
f 219//472 223//472 234//472
f 219//473 234//473 231//473
f 233//474 226//474 235//474
f 233//475 235//475 247//475
f 225//476 228//476 240//476
f 225//477 240//477 236//477
f 227//478 230//478 243//478
f 227//479 243//479 238//479
f 229//480 232//480 246//480
f 229//481 246//481 241//481
f 231//482 234//482 249//482
f 231//483 249//483 244//483
f 248//484 237//484 239//484
f 239//485 242//485 245//485
f 239//486 245//486 248//486
