# Elemental eruptions v001; generated in Blender; +Y up, height 1, root pivot
o rock_spire_02
v -0.0348768 0.3600000 -0.1579165
v -0.2315465 0.3600000 0.0997020
v -0.0491757 0.4000000 -0.1445692
v -0.2304343 0.4000000 0.0941420
v -0.1004032 0.6700000 -0.1307799
v -0.2516022 0.6700000 0.0746641
v -0.1178248 0.7200000 -0.1085247
v -0.2407824 0.7200000 0.0606701
v 0.2131342 0.0015754 -0.1157565
v 0.2105268 0.0000000 -0.1155603
v 0.2099124 0.0012658 -0.1177343
v 0.0241558 0.0013092 -0.1673955
v 0.0237505 0.0000000 -0.1654855
v -0.1794758 0.0016985 -0.1437825
v -0.1765114 0.0013304 -0.1450530
v -0.1776275 0.0000000 -0.1431378
v -0.3226154 0.0012827 -0.0191993
v -0.3228502 0.0016931 -0.0218818
v -0.3215280 0.0000000 -0.0205986
v -0.2050057 0.0013265 0.1135384
v -0.2039987 0.0000000 0.1120460
v -0.0277185 0.0016321 0.2077051
v -0.0309703 0.0013346 0.2072882
v -0.0294931 0.0000000 0.2059740
v 0.1805434 0.0012716 0.1437861
v 0.1776977 0.0016562 0.1458399
v 0.1778309 0.0000000 0.1436332
v 0.2934762 0.0015911 0.0173424
v 0.2929307 0.0012849 0.0202676
v 0.2915704 0.0000000 0.0186220
v 0.2595007 0.1184257 -0.1300040
v 0.2564161 0.1183394 -0.1320211
v 0.2559569 0.1212846 -0.1313677
v 0.2590024 0.1210774 -0.1295160
v 0.0486470 0.1183351 -0.1841179
v 0.0490982 0.1213191 -0.1832316
v -0.1686391 0.1183015 -0.1522812
v -0.1659458 0.1212419 -0.1526825
v -0.1655952 0.1183044 -0.1535684
v -0.3364606 0.1183073 -0.0197479
v -0.3345227 0.1210869 -0.0195045
v -0.3336958 0.1210431 -0.0230526
v -0.3365830 0.1183064 -0.0223532
v -0.1991145 0.1183112 0.1259743
v -0.1980420 0.1212414 0.1255520
v -0.0046688 0.1183695 0.2358547
v -0.0034880 0.1203487 0.2356563
v -0.0070337 0.1210724 0.2347599
v -0.0078349 0.1183119 0.2355026
v 0.2257178 0.1186190 0.1580624
v 0.2247067 0.1204509 0.1594092
v 0.2226457 0.1183474 0.1600790
v 0.3445120 0.1184113 0.0173469
v 0.3435502 0.1211274 0.0170194
v 0.3442719 0.1204260 0.0201980
v 0.3441581 0.1186274 0.0202933
v 0.2265119 0.1493925 -0.1138982
v 0.2252381 0.1516832 -0.1134506
v 0.2287196 0.1500000 -0.1115399
v 0.0489446 0.1494011 -0.1599957
v 0.0484498 0.1516949 -0.1594109
v -0.1427675 0.1516985 -0.1368753
v -0.1444312 0.1494403 -0.1370467
v -0.1458507 0.1516720 -0.1355110
v -0.2817957 0.1489359 -0.0150974
v -0.2806099 0.1516627 -0.0152926
v -0.2804284 0.1516575 -0.0177593
v -0.2795434 0.1495641 -0.0185783
v -0.1705206 0.1487564 0.1143416
v -0.1697756 0.1516823 0.1137217
v 0.0076258 0.1487539 0.2044737
v 0.0068449 0.1516602 0.2031351
v 0.0035923 0.1516835 0.2028498
v 0.0038606 0.1489456 0.2042263
v 0.2048317 0.1516688 0.1397746
v 0.2093615 0.1486512 0.1389697
v 0.3036262 0.1500607 0.0130364
v 0.3034985 0.1500000 0.0160763
v 0.1270242 0.3596927 -0.1099245
v 0.1291559 0.3607043 -0.1078662
v -0.2114610 0.3583239 -0.1272388
v -0.2093384 0.3615088 -0.1280255
v -0.3482378 0.3600653 -0.0180703
v -0.3471543 0.3615640 -0.0202588
v -0.3475442 0.3583381 -0.0203496
v -0.0693559 0.3600000 0.1803042
v -0.0726210 0.3600000 0.1799865
v 0.1192724 0.3600897 0.1246516
v 0.1164886 0.3600000 0.1265399
v 0.2124987 0.3600000 0.0062266
v 0.2124131 0.3600000 0.0091072
v 0.1029087 0.4000000 -0.1040813
v 0.1056378 0.4000000 -0.1021500
v -0.2092303 0.4037354 -0.1141305
v -0.2059310 0.4000000 -0.1157876
v -0.2077295 0.3983862 -0.1159951
v -0.2089097 0.4000000 -0.1143880
v -0.3247904 0.4000000 -0.0148757
v -0.3246037 0.4000000 -0.0173346
v -0.0772421 0.3990689 0.1716644
v -0.0807366 0.4000000 0.1710142
v 0.0864531 0.4000000 0.1061065
v 0.0836669 0.4000000 0.1080544
v 0.1728287 0.4000000 0.0035510
v 0.1731826 0.3996030 0.0062985
v 0.0219425 0.6700000 -0.0909947
v 0.0247102 0.6700000 -0.0890102
v -0.2384628 0.6700000 -0.1037662
v -0.2355752 0.6700000 -0.1052859
v -0.3237432 0.6700000 -0.0165853
v -0.3234840 0.6702619 -0.0191918
v -0.1205728 0.6700000 0.1319524
v -0.1238159 0.6700000 0.1317547
v 0.0196857 0.6700000 0.0852573
v 0.0170100 0.6697106 0.0872203
v 0.0845352 0.6699718 -0.0041938
v 0.0847869 0.6700000 -0.0017577
v -0.0158107 0.7198558 -0.0780343
v -0.0131875 0.7200813 -0.0760155
v -0.2322734 0.7200000 -0.0870817
v -0.2292684 0.7192002 -0.0889115
v -0.3029107 0.7197255 -0.0143286
v -0.3026562 0.7200000 -0.0169290
v -0.1317416 0.7200000 0.1098303
v -0.1349231 0.7199188 0.1097383
v -0.0224888 0.7200000 0.0673615
v -0.0196610 0.7200000 0.0653331
v -0.0212860 0.7214775 0.0660541
v -0.0214671 0.7214770 0.0662868
v 0.0349005 0.7200000 -0.0064082
v 0.0352406 0.7200000 -0.0039984
v -0.1130945 0.9085022 -0.0418102
v -0.1166776 0.9100000 -0.0434750
v -0.1131380 0.9116363 -0.0412879
v -0.1596164 0.9100000 -0.0558598
v -0.1553891 0.9100000 -0.0556270
v -0.1565501 0.9086497 -0.0564615
v -0.1572337 0.9083946 -0.0567526
v -0.2045993 0.9083568 -0.0454489
v -0.2029810 0.9111872 -0.0447186
v -0.2011925 0.9100000 -0.0466876
v -0.2333053 0.9083595 -0.0156901
v -0.2306994 0.9111069 -0.0156702
v -0.2314554 0.9111872 -0.0176227
v -0.2332576 0.9083519 -0.0181513
v -0.2050080 0.9083549 0.0132901
v -0.2034029 0.9111090 0.0123003
v -0.1612426 0.9093497 0.0345264
v -0.1635051 0.9111120 0.0333012
v -0.1642542 0.9083642 0.0347089
v -0.1143130 0.9116963 0.0142356
v -0.1176907 0.9077701 0.0182230
v -0.0930724 0.9084931 -0.0146546
v -0.0936615 0.9116364 -0.0149000
v -0.0937234 0.9116963 -0.0121556
v -0.0921889 0.9078810 -0.0123392
v -0.0757088 0.9983647 -0.0312224
v -0.0785929 0.9983016 -0.0331132
v -0.0770628 1.0000000 -0.0309764
v -0.0832944 0.9984225 -0.0334319
v -0.0798967 1.0000000 -0.0316609
v -0.0790868 0.9983032 -0.0332907
v -0.0870547 0.9986158 -0.0315465
v -0.0829910 1.0000000 -0.0311216
v -0.0838923 0.9984102 -0.0332954
v -0.0868629 0.9988877 -0.0285364
v -0.0840473 1.0000000 -0.0301088
v -0.0882772 0.9986078 -0.0303857
v -0.0828766 1.0000000 -0.0289344
v -0.0853895 0.9988880 -0.0270511
v -0.0797053 0.9980426 -0.0252366
v -0.0801141 1.0000000 -0.0274934
v -0.0828258 0.9988861 -0.0257092
v -0.0756817 0.9983045 -0.0280476
v -0.0772252 1.0000000 -0.0286588
v -0.0780568 0.9980298 -0.0258978
v -0.0755040 0.9983636 -0.0309480
v -0.0762793 1.0000000 -0.0299002
v -0.0755836 0.9983040 -0.0281628
v 0.1895949 0.0016774 -0.2179746
v 0.1879855 0.0000000 -0.2179395
v 0.1871634 0.0019624 -0.2194034
v 0.0432578 0.0016976 -0.2158009
v 0.0457462 0.0019518 -0.2173097
v 0.0451284 0.0000000 -0.2158232
v -0.0154503 0.0016984 -0.1003412
v -0.0161920 0.0016925 -0.1025916
v -0.0147818 0.0000000 -0.1019289
v 0.1341422 0.0020252 -0.0292195
v 0.1314822 0.0016950 -0.0288564
v 0.1327479 0.0000000 -0.0300081
v 0.2424304 0.0016915 -0.1208285
v 0.2418904 0.0020123 -0.1182584
v 0.2412847 0.0000000 -0.1197004
v 0.1644041 0.1600000 -0.2085463
v 0.1669802 0.1600000 -0.2071959
v 0.0395616 0.1583020 -0.1979312
v 0.0406653 0.1612099 -0.1973815
v 0.0419415 0.1594750 -0.1994645
v -0.0045124 0.1583018 -0.0929456
v -0.0021665 0.1614527 -0.0929388
v -0.0038247 0.1612000 -0.0954214
v -0.0054199 0.1583073 -0.0951223
v 0.1362420 0.1600000 -0.0394859
v 0.1345310 0.1614527 -0.0395438
v 0.1334878 0.1583051 -0.0388878
v 0.2232988 0.1600000 -0.1255828
v 0.2230178 0.1596911 -0.1229650
v 0.2317235 0.3383067 -0.1472088
v 0.2291025 0.3384120 -0.1483871
v 0.2304903 0.3400000 -0.1462429
v 0.2086105 0.3387924 -0.1441041
v 0.2115310 0.3400000 -0.1438491
v 0.2108807 0.3384315 -0.1461358
v 0.2057954 0.3383383 -0.1264466
v 0.2076424 0.3400000 -0.1286156
v 0.2047131 0.3388530 -0.1290720
v 0.2293849 0.3383173 -0.1191792
v 0.2287101 0.3400000 -0.1206984
v 0.2270973 0.3383303 -0.1184363
v 0.2405389 0.3383121 -0.1358522
v 0.2395952 0.3400000 -0.1346094
v 0.2405346 0.3383029 -0.1331662
v -0.2669278 0.0016723 0.1871195
v -0.2654500 0.0000000 0.1873079
v -0.2648428 0.0018818 0.1888897
v -0.1080207 0.0016985 0.2075740
v -0.1107557 0.0018744 0.2087186
v -0.1099692 0.0000000 0.2073153
v -0.0291123 0.0016983 0.1019352
v -0.0287968 0.0016934 0.1043203
v -0.0300535 0.0000000 0.1033828
v -0.1435698 0.0018509 0.0159619
v -0.1411490 0.0016974 0.0160555
v -0.1423939 0.0000000 0.0171653
v -0.2941180 0.0016857 0.0658918
v -0.2928445 0.0018447 0.0636943
v -0.2927366 0.0000000 0.0652399
v -0.2373519 0.1600000 0.1829218
v -0.2395428 0.1600000 0.1811757
v -0.0954768 0.1600000 0.1915317
v -0.0980053 0.1605566 0.1927705
v -0.0374746 0.1590842 0.0928738
v -0.0370398 0.1600000 0.0952910
v -0.1457046 0.1600000 0.0213930
v -0.1432512 0.1600000 0.0214184
v -0.2716606 0.1600000 0.0761488
v -0.2705727 0.1597397 0.0738163
v -0.0810278 0.4285626 0.1223027
v -0.0787591 0.4283450 0.1239414
v -0.0783780 0.4300000 0.1218679
v -0.0547249 0.4283022 0.1228724
v -0.0562764 0.4300000 0.1222934
v -0.0571771 0.4283556 0.1244000
v -0.0483203 0.4277705 0.1055771
v -0.0491431 0.4300000 0.1072195
v -0.0475976 0.4283018 0.1079879
v -0.0683672 0.4284099 0.0955439
v -0.0665225 0.4300000 0.0971893
v -0.0662109 0.4277491 0.0952503
v -0.0875923 0.4285319 0.1070874
v -0.0850895 0.4300000 0.1064416
v -0.0866536 0.4284277 0.1046055
vn 0.4039938 -0.7362605 -0.5428713
vn -0.3659230 -0.6507603 -0.6652905
vn -0.7774061 -0.6283715 -0.0280923
vn -0.0241851 -0.7149243 0.6987834
vn 0.3182954 -0.7488843 0.5812576
vn 0.6574395 -0.7522288 0.0438782
vn 0.5231052 0.2615294 -0.8111493
vn 0.5155565 0.2478409 -0.8202295
vn -0.3796653 0.2252912 -0.8972726
vn -0.7969260 0.5724820 -0.1928033
vn -0.6835086 0.7292464 0.0318673
vn -0.1981231 0.2140787 0.9565133
vn -0.1110009 0.2881275 0.9511368
vn 0.5438706 -0.2811204 0.7906808
vn 0.9381951 0.3149458 -0.1435234
vn 0.9907956 -0.0561733 0.1231609
vn 0.5874814 0.4571743 -0.6677256
vn -0.3820764 0.3465259 -0.8567014
vn -0.9166745 0.3937580 -0.0682821
vn -0.8215568 -0.1301478 -0.5550729
vn -0.0772359 0.3998838 0.9133058
vn -0.0360437 0.4460529 0.8942805
vn -0.9201314 0.1216756 -0.3722275
vn -0.1491695 0.2878911 -0.9459742
vn -0.8202243 -0.0310185 -0.5712004
vn 0.5661838 0.2375125 0.7893185
vn 0.7852620 -0.0983675 0.6112997
vn 0.4679077 0.1515862 -0.8706803
vn 0.0477921 0.4950792 -0.8675324
vn 0.1108953 0.6036153 -0.7895257
vn -0.4930737 0.4706764 -0.7316707
vn -0.6941589 0.6562684 0.2957284
vn -0.8422783 0.5387419 -0.0180142
vn -0.1026914 0.4755754 0.8736603
vn 0.9824682 0.1855497 0.0180973
vn 0.8957573 0.3719660 -0.2434341
vn 0.4679950 0.4974023 -0.7304599
vn 0.0437535 0.7028500 -0.7099912
vn -0.2287797 0.8285361 -0.5110654
vn -0.3169551 0.9431879 0.0996805
vn 0.1086697 0.7606249 0.6400318
vn 0.4703356 0.6452138 0.6020659
vn 0.9115996 0.4095999 0.0348414
vn 0.4220807 -0.4218081 -0.8024499
vn -0.4258941 -0.4590090 -0.7796954
vn -0.7894349 -0.5552940 0.2616125
vn 0.1759059 -0.4599872 0.8703269
vn 0.8704215 -0.4316247 0.2367837
vn -0.6248929 0.3674032 -0.6888569
vn -0.7248757 0.5387415 0.4293166
vn -0.8087754 0.4809961 0.3384158
vn 0.1094195 0.1679381 0.9797062
vn 0.3365067 0.6393950 -0.6913300
vn -0.2989661 0.8244673 -0.4804925
vn -0.3882950 0.8608615 0.3288530
vn 0.2238734 0.7010409 0.6770689
vn 0.8737952 0.4862845 0.0030579
vn -0.5633441 -0.4175269 0.7129619
vn 0.3116525 -0.4821962 0.8187550
vn 0.8264102 -0.5521324 -0.1104361
vn -0.0022530 -0.5460999 -0.8377170
vn -0.7621329 -0.4414071 -0.4736171
vn -0.3255517 0.7672603 0.5525648
vn 0.4262913 0.6155938 0.6628122
vn 0.7663224 0.5396269 -0.3486443
vn 0.0997112 0.6572832 -0.7470183
vn -0.5362995 0.8101135 -0.2368525
vn 0.4881101 -0.8215809 -0.2945394
vn 0.4789778 -0.8287880 -0.2892934
vn 0.3842262 -0.8544953 0.3495824
vn 0.3819003 -0.8564291 0.3473922
vn 0.1796373 -0.7815560 0.5974118
vn 0.1734427 -0.7991375 0.5755840
vn -0.2765596 -0.8121045 0.5138105
vn -0.2821960 -0.8036546 0.5239319
vn -0.4532157 -0.7958245 0.4015705
vn -0.4436682 -0.8052444 0.3933700
vn -0.4397545 -0.7348009 -0.5164141
vn -0.4593660 -0.7050104 -0.5403178
vn -0.0660221 -0.8010583 -0.5949342
vn -0.0639286 -0.8167838 -0.5733910
vn 0.1439418 -0.8302374 -0.5385041
vn 0.1408536 -0.8377404 -0.5275901
vn 0.5270023 -0.3060861 -0.7928303
vn 0.5194954 -0.3035283 -0.7987459
vn 0.2358750 0.2437280 -0.9407229
vn 0.2357971 0.2453879 -0.9403109
vn -0.3892860 -0.0309189 -0.9205979
vn -0.3968700 -0.0297471 -0.9173927
vn -0.1359146 0.2711565 -0.9528911
vn -0.1342429 0.3007305 -0.9442140
vn -0.9920173 -0.1171462 0.0466712
vn -0.9908100 -0.1164033 0.0688901
vn -0.5593662 0.4053536 -0.7230477
vn -0.5574066 0.4121938 -0.7206901
vn -0.6835581 0.3430452 0.6442578
vn -0.6648943 0.4087816 0.6251504
vn -0.1041339 -0.2136641 0.9713412
vn -0.1049971 -0.2135033 0.9712837
vn -0.4648587 0.3533385 0.8118240
vn -0.4743302 0.2932397 0.8300731
vn 0.5414427 -0.3038067 0.7839268
vn 0.5309609 -0.3011709 0.7920712
vn 0.3162333 -0.0077759 0.9486496
vn 0.3155555 -0.0936108 0.9442785
vn 0.9075816 -0.3965049 0.1381287
vn 0.9089257 -0.3968311 0.1279806
vn 0.7582290 -0.0134486 0.6518496
vn 0.7572246 -0.0602194 0.6503726
vn 0.8409647 0.2392949 -0.4853002
vn 0.8393844 0.2468661 -0.4842426
vn 0.3827692 0.7425714 -0.5496137
vn 0.3839550 0.7428573 -0.5483991
vn 0.2406259 0.2882324 -0.9268340
vn 0.2390231 0.3125640 -0.9193323
vn -0.1162966 0.1600974 -0.9802264
vn -0.1141114 0.2222700 -0.9682844
vn -0.4539420 0.8807819 -0.1347581
vn -0.4552154 0.8826624 -0.1169880
vn -0.6591902 0.0154599 -0.7518172
vn -0.6552921 0.0985631 -0.7489176
vn -0.7196385 0.3144026 0.6190892
vn -0.7098991 0.3523845 0.6098101
vn -0.0064599 0.7403935 0.6721427
vn -0.0181509 0.7416444 0.6705476
vn -0.4254468 0.3728551 0.8246054
vn -0.4373482 0.2915945 0.8507051
vn 0.3023295 0.2055548 0.9307761
vn 0.2703411 0.4617380 0.8448157
vn 0.5836617 0.8109755 0.0407181
vn 0.5834270 0.8108368 0.0464403
vn 0.5894648 0.2910952 -0.7535217
vn 0.5622087 0.2792317 -0.7784286
vn -0.2796958 -0.0504224 -0.9587637
vn -0.4024098 -0.0892508 -0.9110985
vn -0.9495218 -0.3088576 -0.0549118
vn -0.9485781 -0.3089001 -0.0691396
vn -0.6148239 0.0963280 -0.7827595
vn -0.6020644 0.2110493 -0.7700499
vn -0.0965710 0.0734545 0.9926119
vn -0.0865606 0.0773425 0.9932399
vn 0.5325263 0.2809644 0.7984202
vn 0.2882712 0.1819639 0.9401004
vn 0.9166465 0.3987691 0.0272467
vn 0.9158660 0.3987891 0.0464402
vn 0.5240121 0.4208554 -0.7404675
vn 0.5197366 0.4193328 -0.7443345
vn -0.8582280 0.5091160 -0.0651594
vn -0.8574760 0.5088717 -0.0760558
vn -0.1307739 0.1888327 0.9732627
vn -0.0948859 0.1995144 0.9752901
vn 0.4361329 0.6485294 0.6238571
vn 0.4169686 0.6402760 0.6451230
vn 0.7096438 0.7044842 0.0103775
vn 0.7095339 0.7043556 0.0210901
vn 0.5698003 0.2093848 -0.7946606
vn 0.5650017 0.2082031 -0.7983887
vn -0.4656723 -0.0166842 -0.8847998
vn -0.4635564 -0.0164378 -0.8859149
vn -0.9951202 0.0032351 -0.0986177
vn -0.9971237 0.0036108 -0.0757048
vn -0.0602937 0.1353156 0.9889663
vn -0.1509978 0.1186077 0.9813928
vn 0.5651441 0.2015282 0.7999991
vn 0.5612995 0.2007415 0.8028983
vn 0.9464244 0.3066185 -0.1013216
vn 0.9483059 0.3076964 -0.0777100
vn 0.4820505 0.5436438 -0.6870798
vn 0.4881684 0.5460613 -0.6808149
vn -0.4239759 0.3334650 -0.8420483
vn -0.4390102 0.3338868 -0.8341401
vn -0.9204166 0.3878384 -0.0491379
vn -0.9202655 0.3877513 -0.0525391
vn -0.0366761 0.3974735 0.9168804
vn -0.0559715 0.3924546 0.9180668
vn 0.4590381 0.6162406 0.6399463
vn 0.4287123 0.6025483 0.6731578
vn 0.7085446 0.6985441 -0.1000039
vn 0.7097858 0.6996946 -0.0814345
vn 0.5198848 0.4118138 -0.7484179
vn 0.5319110 0.4159397 -0.7376075
vn -0.4366495 0.2548557 -0.8627779
vn -0.4522523 0.2556413 -0.8544679
vn -0.9380386 0.3459941 -0.0192749
vn -0.9370145 0.3448859 -0.0552967
vn -0.5983652 0.4974385 -0.6281036
vn -0.5960475 0.5023829 -0.6263695
vn -0.5948997 0.5554894 0.5809698
vn -0.5935449 0.5587776 0.5791995
vn -0.0615916 0.3605438 0.9307066
vn -0.0362331 0.3647923 0.9303837
vn -0.4024684 0.5019248 0.7655656
vn -0.4012832 0.5078157 0.7622959
vn 0.8190486 0.5487485 -0.1674347
vn 0.8243716 0.5539618 -0.1163515
vn 0.7393304 0.2676013 0.6178834
vn 0.7873073 -0.0534948 0.6142356
vn 0.8002253 0.1038775 -0.5906343
vn 0.8000610 0.1094062 -0.5898582
vn 0.5451295 -0.1380827 -0.8269021
vn 0.5694309 -0.1519892 -0.8078660
vn 0.0388282 0.2140553 -0.9760495
vn 0.0538858 0.2008573 -0.9781374
vn 0.2335031 0.7292451 -0.6431778
vn 0.1650759 0.7111216 -0.6834149
vn -0.3616553 0.5884840 -0.7231128
vn -0.3744606 0.6034637 -0.7039964
vn -0.1415006 0.8260995 -0.5454696
vn -0.0963221 0.8278586 -0.5526048
vn -0.4885901 0.8368084 0.2470454
vn -0.4929894 0.8403294 0.2254062
vn -0.2819222 0.9143665 -0.2906091
vn -0.2807284 0.9140381 -0.2927900
vn -0.2391001 0.9416373 0.2369609
vn -0.2389108 0.9413849 0.2381511
vn 0.0205895 0.5455948 0.8377961
vn -0.0086074 0.5633476 0.8261752
vn -0.1690100 0.9307632 0.3242151
vn -0.1690331 0.9308122 0.3240624
vn 0.6653810 0.0662241 0.7435607
vn 0.7804900 -0.0376820 0.6240315
vn 0.2509700 0.7506200 0.6112149
vn 0.2458054 0.7538589 0.6093246
vn 0.9793746 -0.2006559 0.0237203
vn 0.9793895 -0.2002402 0.0264570
vn 0.5468562 0.6979679 0.4623732
vn 0.5788075 0.6859102 0.4410319
vn 0.6436726 0.6050363 -0.4686328
vn 0.6409218 0.6022900 -0.4758844
vn 0.6486063 -0.6744914 -0.3526630
vn 0.6686058 -0.6491373 -0.3627494
vn 0.5110638 -0.5969478 0.6184393
vn 0.5123346 -0.5941554 0.6200746
vn -0.3196083 -0.6841279 0.6556063
vn -0.3073812 -0.7116064 0.6317697
vn -0.6514337 -0.6769156 -0.3426648
vn -0.6356751 -0.6960350 -0.3338449
vn -0.0118109 -0.6034704 -0.7972978
vn -0.0117860 -0.6010767 -0.7991044
vn -0.5674617 0.0801167 -0.8194929
vn -0.5229039 0.0834706 -0.8482948
vn 0.4605394 0.1266797 -0.8785532
vn 0.5136248 0.1310947 -0.8479409
vn -0.9219615 0.0462359 0.3845115
vn -0.9485822 0.0503405 0.3125020
vn -0.8311141 0.4207191 -0.3636549
vn -0.8439983 0.3899582 -0.3682385
vn 0.1755259 0.0615206 0.9825507
vn 0.1274560 0.0617752 0.9899186
vn -0.3478962 0.3004111 0.8880999
vn -0.3513587 0.2596301 0.8995217
vn 0.9851360 0.1226650 0.1202507
vn 0.9742468 0.1222630 0.1894598
vn 0.4102866 0.1542878 -0.8988104
vn 0.4604422 0.1283193 -0.8783662
vn -0.4625441 0.6258476 -0.6279870
vn -0.3861000 0.5785829 -0.7184488
vn -0.0672238 0.8315967 -0.5512965
vn -0.0711474 0.8230485 -0.5634975
vn -0.5642257 0.7347012 0.3766476
vn -0.5854973 0.7469585 0.3150333
vn -0.3501540 0.9319083 -0.0945461
vn -0.3732628 0.9228198 -0.0952819
vn 0.3000312 0.2541944 0.9194382
vn 0.2216686 0.2981028 0.9284384
vn -0.1856092 0.8491621 0.4944420
vn -0.1853664 0.8499021 0.4932602
vn 0.9953647 -0.0961642 0.0012617
vn 0.9911824 -0.0917475 0.0956024
vn 0.5636752 0.6935468 0.4486236
vn 0.5935323 0.6572881 0.4644262
vn 0.5870613 0.6665205 -0.4594666
vn 0.5797207 0.6790628 -0.4503303
vn -0.7309854 -0.6624226 0.1638798
vn -0.7480444 -0.6422371 0.1672152
vn -0.2359927 -0.6321710 -0.7380158
vn -0.2363247 -0.6307238 -0.7391469
vn 0.4380578 -0.6944857 -0.5707844
vn 0.4272634 -0.7118723 -0.5573902
vn 0.5817335 -0.6793404 0.4473061
vn 0.5601918 -0.7081025 0.4298557
vn -0.0998517 -0.6228244 0.7759635
vn -0.1000608 -0.6210932 0.7773231
vn 0.4490095 0.0547996 0.8918450
vn 0.3886957 0.0611637 0.9193338
vn -0.6174157 0.1365852 0.7746887
vn -0.6489677 0.1403202 0.7477641
vn 0.9805509 0.0410492 -0.1919242
vn 0.9904132 0.0441042 -0.1309062
vn 0.0103446 0.0344591 -0.9993525
vn 0.0407658 0.0343711 -0.9985774
vn -0.8887542 0.1540440 -0.4317249
vn -0.8598322 0.1525201 -0.4872639
vn -0.4925954 0.4542744 0.7422833
vn -0.5485678 0.4746713 0.6883027
vn 0.5260170 0.1349845 0.8396937
vn 0.4617116 0.1526917 0.8737893
vn -0.0133849 0.7909632 0.6117173
vn -0.0119835 0.7825873 0.6224255
vn 0.9533189 0.0525404 -0.2973592
vn 0.9797745 0.0477507 -0.1943241
vn 0.6326259 0.7127646 0.3029045
vn 0.6481957 0.6969588 0.3067423
vn -0.0453985 0.2781429 -0.9594662
vn 0.0099873 0.2631437 -0.9647049
vn 0.3868540 0.6319910 -0.6715142
vn 0.3860531 0.6352280 -0.6689159
vn -0.7660789 0.5612149 -0.3133066
vn -0.7330216 0.5479430 -0.4030356
vn -0.2470582 0.8299149 -0.5002034
vn -0.2539833 0.8220222 -0.5096782
vn -0.4571482 0.8668669 0.1988900
vn -0.4439318 0.8757351 0.1897699
vn 0.7941586 -0.3735690 -0.4793312
vn 0.8101115 -0.3538991 -0.4674128
vn 0.0000000 -1.0000000 -0.0000000
vn 0.0000000 -0.9999999 -0.0000000
vn 0.0000000 -1.0000000 0.0000000
vn -0.0000000 -1.0000000 -0.0000000
vn 0.0000000 -1.0000000 -0.0000000
vn -0.0000000 -1.0000000 -0.0000000
vn 0.2535969 -0.1886422 -0.9487374
vn 0.2377858 -0.2101774 -0.9483055
vn -0.1104516 -0.0619039 -0.9919518
vn -0.1402737 -0.1112295 -0.9838451
vn -0.6457167 -0.0791119 -0.7594678
vn -0.6118987 -0.0007795 -0.7909357
vn -0.7480624 -0.0327889 0.6628180
vn -0.7252244 -0.0825960 0.6835403
vn -0.4709485 -0.1177273 0.8742698
vn -0.4957913 -0.0670758 0.8658475
vn 0.2811886 -0.2222275 0.9335673
vn 0.3036075 -0.2795863 0.9108534
vn 0.7038484 -0.3074142 0.6403859
vn 0.7109038 -0.3480223 0.6111434
vn 0.5496404 0.7727591 -0.3173939
vn 0.5731143 0.7433268 -0.3449713
vn 0.1896408 0.6265421 -0.7559639
vn 0.1900887 0.6541414 -0.7320966
vn -0.1177707 0.5487713 -0.8276353
vn -0.0909556 0.6345570 -0.7675054
vn -0.3757896 0.7896034 -0.4850863
vn -0.4848802 0.6769766 -0.5537091
vn -0.5133207 0.7099072 0.4822173
vn -0.4550207 0.7994217 0.3922769
vn -0.3259702 0.7532344 0.5712980
vn -0.3546589 0.6345308 0.6867224
vn 0.2400392 0.6519442 0.7192705
vn 0.2272537 0.6782371 0.6988206
vn 0.5011118 0.7508426 0.4302585
vn 0.5940627 0.6583206 0.4622807
vn 0.7917730 0.3824391 -0.4762730
vn 0.2501729 0.1069779 -0.9622729
vn 0.2812966 0.1488871 -0.9480006
vn -0.1170419 0.0047532 -0.9931156
vn -0.1690710 -0.0605747 -0.9837406
vn -0.6426567 -0.2178966 -0.7345157
vn -0.6095077 -0.1624527 -0.7759571
vn -0.7463790 -0.1781635 0.6412300
vn -0.6936597 -0.2159379 0.6871733
vn -0.4561104 -0.0694961 0.8872054
vn -0.4496846 -0.0734339 0.8901636
vn 0.2994457 0.1864244 0.9357234
vn 0.2721372 0.2026199 0.9406841
vn 0.7442207 0.3418418 0.5738289
vn 0.7292833 0.3505222 0.5876052
vn 0.7673301 0.3149537 -0.5585774
vn 0.2468138 0.2820666 -0.9271038
vn 0.7030658 0.4950416 -0.5105218
vn 0.6586484 0.6252095 -0.4186829
vn 0.2625494 0.3885707 -0.8832217
vn -0.5925100 0.2730853 -0.7578631
vn -0.5892670 0.3991689 -0.7024447
vn -0.5924758 0.3080042 -0.7443829
vn -0.1608699 0.2601818 -0.9520642
vn -0.1724170 0.3122871 -0.9342105
vn -0.1715595 0.3122638 -0.9343761
vn -0.7054662 0.1167833 0.6990559
vn -0.7040616 0.3646390 0.6093732
vn 0.2306627 0.5577402 0.7973210
vn 0.3526961 0.2693649 0.8961294
vn -0.4482602 0.1080914 0.8873438
vn -0.4526184 0.1351002 0.8814106
vn 0.6034421 0.6322298 0.4859456
vn 0.5551746 0.6794459 0.4797232
vn 0.8128694 0.2687891 -0.5167165
vn 0.7926763 0.2432052 -0.5590310
vn 0.2560292 0.0976933 -0.9617198
vn 0.3063086 0.1375091 -0.9419481
vn -0.6426873 -0.0023466 -0.7661250
vn -0.6426820 -0.0026023 -0.7661287
vn -0.1805591 0.0184248 -0.9833915
vn -0.1853155 0.0150208 -0.9825642
vn -0.7044436 -0.0497796 -0.7080121
vn -0.7560663 -0.0120679 0.6543838
vn -0.7844373 0.0069692 0.6201689
vn 0.3620692 0.1604132 0.9182448
vn -0.4560800 0.0563731 0.8881516
vn -0.4076737 0.0338665 0.9124995
vn 0.3041772 0.1856023 0.9343597
vn 0.7298885 0.2574746 0.6332216
vn 0.7778379 0.2372867 0.5819477
vn 0.6481986 0.6090874 -0.4570022
vn 0.2731244 0.4690080 -0.8399014
vn 0.2600825 0.4226371 -0.8681791
vn -0.6697550 0.3111348 -0.6742578
vn -0.6716316 0.3079904 -0.6738345
vn -0.1748875 0.3310263 -0.9272733
vn -0.7419452 0.3247259 0.5865751
vn -0.7393419 0.2819981 0.6114332
vn 0.2638862 0.5264276 0.8082314
vn 0.3249244 0.4424094 0.8358816
vn -0.3894037 0.2977726 0.8716055
vn 0.6190736 0.6342118 0.4631665
vn 0.5931274 0.6539115 0.4696804
vn 0.6454431 0.6206605 -0.4451784
vn 0.2841535 0.3152900 -0.9054552
vn 0.2842208 0.3153350 -0.9054183
vn 0.7243515 0.4748185 -0.4998623
vn 0.7140117 0.4617363 -0.5262954
vn 0.2728834 0.3075833 -0.9115521
vn 0.2732131 0.3078108 -0.9113765
vn -0.1646480 0.3526426 -0.9211593
vn -0.6839740 0.2475584 -0.6862174
vn -0.6673120 0.2528840 -0.7005315
vn -0.1703564 0.2278178 -0.9586855
vn -0.2091073 0.2405284 -0.9478503
vn -0.1969748 0.2367147 -0.9514027
vn -0.7367730 0.2931940 0.6092641
vn -0.6908960 0.2598081 0.6746574
vn -0.3973526 0.3260633 0.8577842
vn 0.3331896 0.3927958 0.8571442
vn 0.3331313 0.3931729 0.8569940
vn 0.3347532 0.3937593 0.8560923
vn -0.4030861 0.2836837 0.8700834
vn -0.4442872 0.2969965 0.8452231
vn 0.6842236 0.4881316 0.5418169
vn 0.6842256 0.4881270 0.5418186
vn 0.6883274 0.4876674 0.5370159
vn 0.6685662 0.4897139 0.5596424
vn 0.7751192 -0.2681199 -0.5721031
vn 0.7714828 -0.2682746 -0.5769253
vn 0.2994556 -0.0174566 -0.9539505
vn 0.3378658 -0.0353557 -0.9405299
vn -0.1976407 0.3979294 -0.8958742
vn -0.2111961 0.4076292 -0.8883887
vn -0.4818099 0.7151921 -0.5063197
vn -0.4829606 0.7162710 -0.5036912
vn -0.4416310 0.7869319 0.4309295
vn -0.4399865 0.7849032 0.4362783
vn -0.3256189 0.7151275 0.6185184
vn -0.3242355 0.7140697 0.6204641
vn 0.3450543 0.2855356 0.8940955
vn 0.3601761 0.2704770 0.8928131
vn 0.7873950 -0.0513789 0.6143040
vn 0.7613868 -0.0233121 0.6478788
vn 0.0000000 1.0000000 -0.0000000
vn 0.0000000 1.0000000 -0.0000000
vn 0.0000000 1.0000000 -0.0000000
vn 0.0000000 1.0000000 -0.0000000
vn -0.0000000 1.0000000 -0.0000000
vn 0.0000000 1.0000000 -0.0000000
vn 0.8677031 0.1560730 -0.4719456
vn 0.8202730 0.0821304 -0.5660450
vn 0.0000000 -0.9999999 -0.0000000
vn 0.0000000 -1.0000000 0.0000000
vn 0.0000000 -1.0000000 0.0000000
vn -0.0147185 0.1122034 -0.9935763
vn -0.0740795 0.0577280 -0.9955801
vn -0.8823123 0.0827835 -0.4633270
vn -0.9158822 0.0241081 -0.4007225
vn -0.4366137 0.0630752 0.8974352
vn -0.3646745 -0.0184933 0.9309514
vn 0.6338995 0.0987683 0.7670829
vn 0.6928646 0.0375872 0.7200875
vn 0.8183148 -0.1071529 -0.5646937
vn 0.7850837 -0.1110004 -0.6093624
vn -0.0708702 0.3457264 -0.9356551
vn -0.1142873 0.3543886 -0.9280879
vn -0.6480592 0.7071733 -0.2827102
vn -0.6868818 0.7038873 -0.1809313
vn -0.3111779 0.5181805 0.7966538
vn -0.3028561 0.5087269 0.8059002
vn 0.6929861 -0.0268152 0.7204520
vn 0.7753850 -0.1287187 0.6182311
vn -0.0000000 1.0000000 -0.0000000
vn 0.0000000 1.0000000 0.0000000
vn 0.0000000 1.0000000 -0.0000000
vn -0.9608210 0.1742787 0.2155224
vn -0.9498380 0.1159189 0.2904660
vn 0.0000000 -0.9999999 0.0000000
vn 0.0000000 -1.0000000 -0.0000000
vn 0.0000000 -1.0000000 -0.0000000
vn -0.1268643 0.1092783 0.9858822
vn -0.0706125 0.0498791 0.9962560
vn 0.7910917 0.0758124 0.6069813
vn 0.8546694 -0.0151343 0.5189519
vn 0.6079927 0.0349450 -0.7931732
vn 0.5595779 -0.0179735 -0.8285828
vn -0.3029393 0.1034638 -0.9473768
vn -0.3870105 0.0264287 -0.9216965
vn -0.8096372 0.5321521 0.2475918
vn -0.7931985 0.5043954 0.3412057
vn -0.0691603 0.2566644 0.9640230
vn -0.0208033 0.2263354 0.9738272
vn 0.8547322 0.0090740 0.5189900
vn 0.9016150 -0.0264636 0.4317293
vn 0.5589127 0.0670921 -0.8265079
vn 0.4989268 0.0610120 -0.8644938
vn -0.3635377 0.3478727 -0.8641903
vn -0.4154064 0.3514713 -0.8389907
vn 0.0000000 1.0000000 -0.0000000
vn 0.0000000 1.0000000 -0.0000000
vn -0.0000000 0.9999999 -0.0000000
f 9//1 10//1 11//1
f 14//2 15//2 16//2
f 17//3 18//3 19//3
f 22//4 23//4 24//4
f 25//5 26//5 27//5
f 28//6 29//6 30//6
f 31//7 32//7 33//7
f 31//8 33//8 34//8
f 37//9 38//9 39//9
f 40//10 41//10 42//10
f 40//11 42//11 43//11
f 46//12 47//12 48//12
f 46//13 48//13 49//13
f 50//14 51//14 52//14
f 53//15 54//15 55//15
f 53//16 55//16 56//16
f 57//17 58//17 59//17
f 62//18 63//18 64//18
f 65//19 66//19 67//19
f 65//20 67//20 68//20
f 71//21 72//21 73//21
f 71//22 73//22 74//22
f 83//23 84//23 85//23
f 94//24 95//24 96//24
f 94//25 96//25 97//25
f 126//26 127//26 128//26
f 126//27 128//27 129//27
f 132//28 133//28 134//28
f 135//29 136//29 137//29
f 135//30 137//30 138//30
f 139//31 140//31 141//31
f 142//32 143//32 144//32
f 142//33 144//33 145//33
f 148//34 149//34 150//34
f 153//35 154//35 155//35
f 153//36 155//36 156//36
f 157//37 158//37 159//37
f 160//38 161//38 162//38
f 163//39 164//39 165//39
f 166//40 167//40 168//40
f 171//41 172//41 173//41
f 174//42 175//42 176//42
f 177//43 178//43 179//43
f 180//44 181//44 182//44
f 183//45 184//45 185//45
f 186//46 187//46 188//46
f 189//47 190//47 191//47
f 192//48 193//48 194//48
f 197//49 198//49 199//49
f 200//50 201//50 202//50
f 200//51 202//51 203//51
f 204//52 205//52 206//52
f 209//53 210//53 211//53
f 212//54 213//54 214//54
f 215//55 216//55 217//55
f 218//56 219//56 220//56
f 221//57 222//57 223//57
f 224//58 225//58 226//58
f 227//59 228//59 229//59
f 230//60 231//60 232//60
f 233//61 234//61 235//61
f 236//62 237//62 238//62
f 249//63 250//63 251//63
f 252//64 253//64 254//64
f 255//65 256//65 257//65
f 258//66 259//66 260//66
f 261//67 262//67 263//67
f 9//68 28//68 30//68
f 9//69 30//69 10//69
f 27//70 30//70 29//70
f 27//71 29//71 25//71
f 24//72 27//72 26//72
f 24//73 26//73 22//73
f 21//74 24//74 23//74
f 21//75 23//75 20//75
f 19//76 21//76 20//76
f 19//77 20//77 17//77
f 16//78 19//78 18//78
f 16//79 18//79 14//79
f 13//80 16//80 15//80
f 13//81 15//81 12//81
f 10//82 13//82 12//82
f 10//83 12//83 11//83
f 11//84 32//84 31//84
f 11//85 31//85 9//85
f 32//86 35//86 36//86
f 32//87 36//87 33//87
f 14//88 37//88 39//88
f 14//89 39//89 15//89
f 35//90 39//90 38//90
f 35//91 38//91 36//91
f 17//92 40//92 43//92
f 17//93 43//93 18//93
f 37//94 43//94 42//94
f 37//95 42//95 38//95
f 40//96 44//96 45//96
f 40//97 45//97 41//97
f 22//98 46//98 49//98
f 22//99 49//99 23//99
f 44//100 49//100 48//100
f 44//101 48//101 45//101
f 25//102 50//102 52//102
f 25//103 52//103 26//103
f 46//104 52//104 51//104
f 46//105 51//105 47//105
f 28//106 53//106 56//106
f 28//107 56//107 29//107
f 50//108 56//108 55//108
f 50//109 55//109 51//109
f 34//110 54//110 53//110
f 34//111 53//111 31//111
f 33//112 57//112 59//112
f 33//113 59//113 34//113
f 57//114 60//114 61//114
f 57//115 61//115 58//115
f 60//116 63//116 62//116
f 60//117 62//117 61//117
f 41//118 65//118 68//118
f 41//119 68//119 42//119
f 63//120 68//120 67//120
f 63//121 67//121 64//121
f 65//122 69//122 70//122
f 65//123 70//123 66//123
f 47//124 71//124 74//124
f 47//125 74//125 48//125
f 69//126 74//126 73//126
f 69//127 73//127 70//127
f 71//128 76//128 75//128
f 71//129 75//129 72//129
f 54//130 77//130 78//130
f 54//131 78//131 55//131
f 58//132 79//132 80//132
f 58//133 80//133 59//133
f 64//134 81//134 82//134
f 64//135 82//135 62//135
f 66//136 83//136 85//136
f 66//137 85//137 67//137
f 81//138 85//138 84//138
f 81//139 84//139 82//139
f 72//140 86//140 87//140
f 72//141 87//141 73//141
f 76//142 88//142 89//142
f 76//143 89//143 75//143
f 77//144 90//144 91//144
f 77//145 91//145 78//145
f 79//146 92//146 93//146
f 79//147 93//147 80//147
f 83//148 98//148 99//148
f 83//149 99//149 84//149
f 86//150 100//150 101//150
f 86//151 101//151 87//151
f 88//152 102//152 103//152
f 88//153 103//153 89//153
f 90//154 104//154 105//154
f 90//155 105//155 91//155
f 92//156 106//156 107//156
f 92//157 107//157 93//157
f 94//158 108//158 109//158
f 94//159 109//159 95//159
f 98//160 110//160 111//160
f 98//161 111//161 99//161
f 100//162 112//162 113//162
f 100//163 113//163 101//163
f 102//164 114//164 115//164
f 102//165 115//165 103//165
f 104//166 116//166 117//166
f 104//167 117//167 105//167
f 106//168 118//168 119//168
f 106//169 119//169 107//169
f 108//170 120//170 121//170
f 108//171 121//171 109//171
f 110//172 122//172 123//172
f 110//173 123//173 111//173
f 112//174 124//174 125//174
f 112//175 125//175 113//175
f 114//176 127//176 126//176
f 114//177 126//177 115//177
f 116//178 130//178 131//178
f 116//179 131//179 117//179
f 118//180 133//180 132//180
f 118//181 132//181 119//181
f 120//182 139//182 141//182
f 120//183 141//183 121//183
f 122//184 142//184 145//184
f 122//185 145//185 123//185
f 139//186 145//186 144//186
f 139//187 144//187 140//187
f 142//188 146//188 147//188
f 142//189 147//189 143//189
f 124//190 148//190 150//190
f 124//191 150//191 125//191
f 146//192 150//192 149//192
f 146//193 149//193 147//193
f 130//194 153//194 156//194
f 130//195 156//195 131//195
f 152//196 156//196 155//196
f 152//197 155//197 151//197
f 134//198 154//198 153//198
f 134//199 153//199 132//199
f 133//200 158//200 157//200
f 133//201 157//201 134//201
f 135//202 160//202 162//202
f 135//203 162//203 136//203
f 158//204 162//204 161//204
f 158//205 161//205 159//205
f 140//206 163//206 165//206
f 140//207 165//207 141//207
f 160//208 165//208 164//208
f 160//209 164//209 161//209
f 143//210 166//210 168//210
f 143//211 168//211 144//211
f 163//212 168//212 167//212
f 163//213 167//213 164//213
f 166//214 170//214 169//214
f 166//215 169//215 167//215
f 148//216 171//216 173//216
f 148//217 173//217 149//217
f 170//218 173//218 172//218
f 170//219 172//219 169//219
f 151//220 174//220 176//220
f 151//221 176//221 152//221
f 171//222 176//222 175//222
f 171//223 175//223 172//223
f 154//224 177//224 179//224
f 154//225 179//225 155//225
f 174//226 179//226 178//226
f 174//227 178//227 175//227
f 159//228 178//228 177//228
f 159//229 177//229 157//229
f 180//230 192//230 194//230
f 180//231 194//231 181//231
f 191//232 194//232 193//232
f 191//233 193//233 189//233
f 188//234 191//234 190//234
f 188//235 190//235 186//235
f 185//236 188//236 187//236
f 185//237 187//237 183//237
f 181//238 185//238 184//238
f 181//239 184//239 182//239
f 183//240 197//240 199//240
f 183//241 199//241 184//241
f 182//242 195//242 196//242
f 182//243 196//243 180//243
f 186//244 200//244 203//244
f 186//245 203//245 187//245
f 197//246 203//246 202//246
f 197//247 202//247 198//247
f 189//248 204//248 206//248
f 189//249 206//249 190//249
f 200//250 206//250 205//250
f 200//251 205//251 201//251
f 192//252 207//252 208//252
f 192//253 208//253 193//253
f 195//254 210//254 209//254
f 195//255 209//255 196//255
f 198//256 212//256 214//256
f 198//257 214//257 199//257
f 210//258 214//258 213//258
f 210//259 213//259 211//259
f 201//260 215//260 217//260
f 201//261 217//261 202//261
f 212//262 217//262 216//262
f 212//263 216//263 213//263
f 204//264 218//264 220//264
f 204//265 220//265 205//265
f 215//266 220//266 219//266
f 215//267 219//267 216//267
f 207//268 221//268 223//268
f 207//269 223//269 208//269
f 218//270 223//270 222//270
f 218//271 222//271 219//271
f 211//272 222//272 221//272
f 211//273 221//273 209//273
f 224//274 236//274 238//274
f 224//275 238//275 225//275
f 235//276 238//276 237//276
f 235//277 237//277 233//277
f 232//278 235//278 234//278
f 232//279 234//279 230//279
f 229//280 232//280 231//280
f 229//281 231//281 227//281
f 225//282 229//282 228//282
f 225//283 228//283 226//283
f 227//284 241//284 242//284
f 227//285 242//285 228//285
f 226//286 239//286 240//286
f 226//287 240//287 224//287
f 230//288 243//288 244//288
f 230//289 244//289 231//289
f 233//290 245//290 246//290
f 233//291 246//291 234//291
f 236//292 247//292 248//292
f 236//293 248//293 237//293
f 239//294 250//294 249//294
f 239//295 249//295 240//295
f 241//296 252//296 254//296
f 241//297 254//297 242//297
f 250//298 254//298 253//298
f 250//299 253//299 251//299
f 243//300 255//300 257//300
f 243//301 257//301 244//301
f 252//302 257//302 256//302
f 252//303 256//303 253//303
f 245//304 258//304 260//304
f 245//305 260//305 246//305
f 255//306 260//306 259//306
f 255//307 259//307 256//307
f 247//308 261//308 263//308
f 247//309 263//309 248//309
f 258//310 263//310 262//310
f 258//311 262//311 259//311
f 251//312 262//312 261//312
f 251//313 261//313 249//313
f 28//314 9//314 31//314
f 28//315 31//315 53//315
f 10//316 30//316 27//316
f 27//317 24//317 21//317
f 21//318 19//318 16//318
f 16//319 13//319 10//319
f 10//320 27//320 21//320
f 21//321 16//321 10//321
f 11//322 12//322 35//322
f 11//323 35//323 32//323
f 12//324 15//324 39//324
f 12//325 39//325 35//325
f 14//326 18//326 43//326
f 14//327 43//327 37//327
f 17//328 20//328 44//328
f 17//329 44//329 40//329
f 20//330 23//330 49//330
f 20//331 49//331 44//331
f 22//332 26//332 52//332
f 22//333 52//333 46//333
f 25//334 29//334 56//334
f 25//335 56//335 50//335
f 54//336 34//336 59//336
f 54//337 59//337 77//337
f 33//338 36//338 60//338
f 33//339 60//339 57//339
f 36//340 38//340 63//340
f 36//341 63//341 60//341
f 38//342 42//342 68//342
f 38//343 68//343 63//343
f 41//344 45//344 69//344
f 41//345 69//345 65//345
f 45//346 48//346 74//346
f 45//347 74//347 69//347
f 47//348 51//348 76//348
f 47//349 76//349 71//349
f 51//350 55//350 78//350
f 51//351 78//351 76//351
f 77//352 59//352 80//352
f 58//353 61//353 1//353
f 58//354 1//354 79//354
f 61//355 62//355 82//355
f 61//356 82//356 1//356
f 64//357 67//357 85//357
f 64//358 85//358 81//358
f 66//359 70//359 2//359
f 66//360 2//360 83//360
f 70//361 73//361 87//361
f 70//362 87//362 2//362
f 72//363 75//363 89//363
f 72//364 89//364 86//364
f 76//365 78//365 91//365
f 76//366 91//366 88//366
f 77//367 80//367 90//367
f 79//368 3//368 92//368
f 90//369 80//369 93//369
f 90//370 93//370 104//370
f 79//371 1//371 3//371
f 96//372 82//372 84//372
f 84//373 99//373 97//373
f 84//374 97//374 96//374
f 3//375 1//375 82//375
f 82//376 96//376 95//376
f 82//377 95//377 3//377
f 83//378 2//378 4//378
f 83//379 4//379 98//379
f 86//380 89//380 103//380
f 86//381 103//381 100//381
f 2//382 87//382 101//382
f 2//383 101//383 4//383
f 88//384 91//384 105//384
f 88//385 105//385 102//385
f 104//386 93//386 107//386
f 104//387 107//387 116//387
f 92//388 3//388 5//388
f 92//389 5//389 106//389
f 94//390 97//390 99//390
f 94//391 99//391 111//391
f 3//392 95//392 109//392
f 3//393 109//393 5//393
f 94//394 111//394 108//394
f 98//395 4//395 6//395
f 98//396 6//396 110//396
f 100//397 103//397 115//397
f 4//398 101//398 113//398
f 4//399 113//399 6//399
f 100//400 115//400 112//400
f 102//401 105//401 117//401
f 102//402 117//402 114//402
f 116//403 107//403 119//403
f 106//404 5//404 7//404
f 106//405 7//405 118//405
f 108//406 111//406 123//406
f 108//407 123//407 120//407
f 5//408 109//408 121//408
f 110//409 6//409 8//409
f 110//410 8//410 122//410
f 112//411 115//411 126//411
f 112//412 126//412 124//412
f 6//413 113//413 125//413
f 114//414 117//414 131//414
f 114//415 131//415 127//415
f 116//416 119//416 130//416
f 118//417 137//417 136//417
f 118//418 136//418 133//418
f 130//419 119//419 132//419
f 130//420 132//420 153//420
f 118//421 7//421 138//421
f 118//422 138//422 137//422
f 5//423 121//423 7//423
f 120//424 123//424 145//424
f 120//425 145//425 139//425
f 138//426 7//426 121//426
f 121//427 141//427 135//427
f 121//428 135//428 138//428
f 122//429 8//429 146//429
f 122//430 146//430 142//430
f 6//431 125//431 8//431
f 148//432 124//432 126//432
f 126//433 129//433 152//433
f 126//434 152//434 148//434
f 8//435 125//435 150//435
f 8//436 150//436 146//436
f 128//437 127//437 131//437
f 128//438 131//438 156//438
f 129//439 128//439 156//439
f 129//440 156//440 152//440
f 154//441 134//441 157//441
f 154//442 157//442 177//442
f 133//443 136//443 162//443
f 133//444 162//444 158//444
f 135//445 141//445 165//445
f 135//446 165//446 160//446
f 140//447 144//447 168//447
f 140//448 168//448 163//448
f 143//449 147//449 170//449
f 143//450 170//450 166//450
f 147//451 149//451 173//451
f 147//452 173//452 170//452
f 148//453 152//453 176//453
f 148//454 176//454 171//454
f 151//455 155//455 179//455
f 151//456 179//456 174//456
f 178//457 159//457 161//457
f 161//458 164//458 167//458
f 167//459 169//459 172//459
f 172//460 175//460 178//460
f 178//461 161//461 167//461
f 167//462 172//462 178//462
f 192//463 180//463 196//463
f 192//464 196//464 207//464
f 181//465 194//465 191//465
f 191//466 188//466 185//466
f 191//467 185//467 181//467
f 182//468 184//468 199//468
f 182//469 199//469 195//469
f 183//470 187//470 203//470
f 183//471 203//471 197//471
f 186//472 190//472 206//472
f 186//473 206//473 200//473
f 189//474 193//474 208//474
f 189//475 208//475 204//475
f 207//476 196//476 209//476
f 207//477 209//477 221//477
f 195//478 199//478 214//478
f 195//479 214//479 210//479
f 198//480 202//480 217//480
f 198//481 217//481 212//481
f 201//482 205//482 220//482
f 201//483 220//483 215//483
f 204//484 208//484 223//484
f 204//485 223//485 218//485
f 222//486 211//486 213//486
f 213//487 216//487 219//487
f 213//488 219//488 222//488
f 236//489 224//489 240//489
f 236//490 240//490 247//490
f 225//491 238//491 235//491
f 235//492 232//492 229//492
f 235//493 229//493 225//493
f 226//494 228//494 242//494
f 226//495 242//495 239//495
f 227//496 231//496 244//496
f 227//497 244//497 241//497
f 230//498 234//498 246//498
f 230//499 246//499 243//499
f 233//500 237//500 248//500
f 233//501 248//501 245//501
f 247//502 240//502 249//502
f 247//503 249//503 261//503
f 239//504 242//504 254//504
f 239//505 254//505 250//505
f 241//506 244//506 257//506
f 241//507 257//507 252//507
f 243//508 246//508 260//508
f 243//509 260//509 255//509
f 245//510 248//510 263//510
f 245//511 263//511 258//511
f 262//512 251//512 253//512
f 253//513 256//513 259//513
f 253//514 259//514 262//514
