# Elemental eruptions v001; generated in Blender; +Y up, height 1, root pivot
o rock_chip
v 0.1314792 0.0000000 -0.0314275
v -0.0224725 0.0000000 -0.1501237
v -0.2421957 0.0000000 -0.1121302
v -0.3058273 0.0000000 0.0288520
v -0.1632089 0.0000000 0.1352195
v 0.0728287 0.0000000 0.1303456
v 0.3585902 0.1900000 -0.0979585
v 0.0426166 0.1900000 -0.2749496
v -0.3216387 0.1900000 -0.1660200
v -0.3801408 0.1900000 0.0911226
v -0.0843011 0.1900000 0.2478705
v 0.3215347 0.1900000 0.1928915
v 0.3657779 0.6400000 -0.0903574
v 0.0976580 0.6400000 -0.2012655
v -0.1513716 0.6400000 -0.0836534
v -0.1652437 0.6400000 0.1163916
v 0.0955124 0.6400000 0.2041582
v 0.3998592 0.6400000 0.1345612
v 0.1984784 1.0000000 -0.0382199
v 0.1573538 1.0000000 -0.0482982
v 0.1259417 1.0000000 -0.0292780
v 0.1336964 1.0000000 -0.0025969
v 0.1700348 1.0000000 0.0063859
v 0.2075837 1.0000000 -0.0079239
vn 0.0000000 -0.9999999 -0.0000000
vn 0.0000000 -1.0000000 0.0000000
vn -0.0000000 -1.0000000 -0.0000000
vn -0.0000000 -1.0000000 0.0000000
vn 0.4932904 -0.5893291 -0.6398091
vn 0.3651200 -0.6646829 -0.6518313
vn -0.1607845 -0.3309597 -0.9298462
vn -0.2530183 -0.4691790 -0.8460809
vn -0.8898621 -0.2164146 -0.4016344
vn -0.8822616 -0.4258229 -0.2007221
vn -0.5830225 -0.2213510 0.7817215
vn -0.4232732 -0.4273736 0.7988690
vn 0.0194478 -0.3354998 0.9418395
vn 0.1129018 -0.5410125 0.8334019
vn 0.6633062 -0.7086567 0.2404803
vn 0.5932640 -0.8014517 0.0755843
vn 0.4870217 0.0827971 -0.8694564
vn 0.3822226 0.0095028 -0.9240215
vn -0.2756277 0.2729920 -0.9216859
vn -0.4187334 0.1963940 -0.8866181
vn -0.8797085 0.4313427 -0.2001412
vn -0.9293826 0.3634481 -0.0644479
vn -0.4516653 0.2632850 0.8524550
vn -0.3174447 0.0986355 0.9431330
vn 0.1335096 0.1045084 0.9855217
vn 0.2229190 0.0056173 0.9748209
vn 0.9918213 -0.0179763 0.1263621
vn 0.9710667 -0.1880915 -0.1471431
vn 0.3630658 0.3127429 -0.8777101
vn 0.2308481 0.2437029 -0.9419757
vn -0.3871526 0.4220468 -0.8197495
vn -0.4724493 0.4098780 -0.7802510
vn -0.7768962 0.6273196 -0.0538737
vn -0.7875840 0.5721129 0.2289068
vn -0.2751416 0.5060366 0.8174498
vn -0.2128991 0.4614500 0.8612421
vn 0.1989968 0.4507058 0.8702095
vn 0.3260015 0.4024579 0.8554243
vn 0.8909400 0.4335900 -0.1350017
vn 0.8899275 0.3694499 -0.2674617
vn 0.0000000 1.0000000 -0.0000000
vn 0.0000000 1.0000000 0.0000000
vn 0.0000000 1.0000000 -0.0000000
vn 0.0000000 1.0000000 0.0000000
f 1//1 6//1 5//1
f 5//2 4//2 3//2
f 3//3 2//3 1//3
f 5//4 3//4 1//4
f 1//5 2//5 8//5
f 1//6 8//6 7//6
f 2//7 3//7 9//7
f 2//8 9//8 8//8
f 3//9 4//9 10//9
f 3//10 10//10 9//10
f 4//11 5//11 11//11
f 4//12 11//12 10//12
f 5//13 6//13 12//13
f 5//14 12//14 11//14
f 6//15 1//15 7//15
f 6//16 7//16 12//16
f 7//17 8//17 14//17
f 7//18 14//18 13//18
f 8//19 9//19 15//19
f 8//20 15//20 14//20
f 9//21 10//21 16//21
f 9//22 16//22 15//22
f 10//23 11//23 17//23
f 10//24 17//24 16//24
f 11//25 12//25 18//25
f 11//26 18//26 17//26
f 12//27 7//27 13//27
f 12//28 13//28 18//28
f 13//29 14//29 20//29
f 13//30 20//30 19//30
f 14//31 15//31 21//31
f 14//32 21//32 20//32
f 15//33 16//33 22//33
f 15//34 22//34 21//34
f 16//35 17//35 23//35
f 16//36 23//36 22//36
f 17//37 18//37 24//37
f 17//38 24//38 23//38
f 18//39 13//39 19//39
f 18//40 19//40 24//40
f 24//41 19//41 20//41
f 20//42 21//42 22//42
f 22//43 23//43 24//43
f 20//44 22//44 24//44
