# Godot basis: +Y up, forward -Z; clean UV mapped sword-wave mesh
o frost_shard
v -0.02405766 -0.50000000 0.00034513
v -0.02607108 -0.50000000 0.00178713
v -0.02953701 -0.50000000 0.00188338
v -0.03184555 -0.50000000 0.00056141
v -0.03125830 -0.50000000 -0.00118332
v -0.02821749 -0.50000000 -0.00203698
v -0.02501290 -0.50000000 -0.00135676
v 0.05500535 -0.31999999 0.00595353
v 0.02027387 -0.31999999 0.03082801
v -0.03951351 -0.31999999 0.03248838
v -0.07933568 -0.31999999 0.00968433
v -0.06920572 -0.31999999 -0.02041221
v -0.01675171 -0.31999999 -0.03513794
v 0.03852741 -0.31999999 -0.02340409
v 0.09373146 0.10000000 0.01359290
v 0.04943624 0.10000000 0.04531689
v -0.02681434 0.10000000 0.04743445
v -0.07760203 0.10000000 0.01835103
v -0.06468266 0.10000000 -0.02003297
v 0.00221521 0.10000000 -0.03881361
v 0.07271612 0.10000000 -0.02384869
v 0.07819275 0.28999999 0.00883185
v 0.05000488 0.28999999 0.02901984
v 0.00148179 0.28999999 0.03036738
v -0.03083765 0.28999999 0.01185975
v -0.02261624 0.28999999 -0.01256643
v 0.01995513 0.28999999 -0.02451775
v 0.06481935 0.28999999 -0.01499462
v 0.06197117 0.50000000 0.00617257
v 0.06096446 0.50000000 0.00689357
v 0.05923149 0.50000000 0.00694169
v 0.05807723 0.50000000 0.00628071
v 0.05837085 0.50000000 0.00540834
v 0.05989125 0.50000000 0.00498151
v 0.06149355 0.50000000 0.00532162
vt 0.57142860 0.00000000
vt 0.71428573 0.00000000
vt 0.28571430 0.00000000
vt 0.00000000 0.00000000
vt 0.14285715 0.18000001
vt 0.14285715 0.00000000
vt 0.14285715 0.00000000
vt 0.28571430 0.18000001
vt 0.28571430 0.00000000
vt 0.28571430 0.18000001
vt 0.42857143 0.00000000
vt 0.28571430 0.00000000
vt 0.42857143 0.00000000
vt 0.57142860 0.18000001
vt 0.57142860 0.00000000
vt 0.57142860 0.00000000
vt 0.71428573 0.18000001
vt 0.71428573 0.00000000
vt 0.71428573 0.18000001
vt 0.85714287 0.00000000
vt 0.71428573 0.00000000
vt 0.85714287 0.18000001
vt 0.00000000 0.00000000
vt 0.85714287 0.00000000
vt 0.00000000 0.18000001
vt 0.14285715 0.60000002
vt 0.14285715 0.18000001
vt 0.14285715 0.18000001
vt 0.28571430 0.60000002
vt 0.28571430 0.18000001
vt 0.28571430 0.18000001
vt 0.42857143 0.60000002
vt 0.42857143 0.18000001
vt 0.42857143 0.18000001
vt 0.57142860 0.60000002
vt 0.57142860 0.18000001
vt 0.57142860 0.60000002
vt 0.71428573 0.18000001
vt 0.57142860 0.18000001
vt 0.71428573 0.60000002
vt 0.85714287 0.18000001
vt 0.71428573 0.18000001
vt 0.85714287 0.60000002
vt 0.00000000 0.18000001
vt 0.85714287 0.18000001
vt 0.00000000 0.60000002
vt 0.14285715 0.79000002
vt 0.14285715 0.60000002
vt 0.14285715 0.60000002
vt 0.28571430 0.79000002
vt 0.28571430 0.60000002
vt 0.28571430 0.60000002
vt 0.42857143 0.79000002
vt 0.42857143 0.60000002
vt 0.42857143 0.79000002
vt 0.57142860 0.60000002
vt 0.42857143 0.60000002
vt 0.57142860 0.79000002
vt 0.71428573 0.60000002
vt 0.57142860 0.60000002
vt 0.71428573 0.79000002
vt 0.85714287 0.60000002
vt 0.71428573 0.60000002
vt 0.85714287 0.60000002
vt 0.00000000 0.79000002
vt 0.00000000 0.60000002
vt 0.00000000 0.79000002
vt 0.14285715 1.00000000
vt 0.14285715 0.79000002
vt 0.14285715 0.79000002
vt 0.28571430 1.00000000
vt 0.28571430 0.79000002
vt 0.28571430 0.79000002
vt 0.42857143 1.00000000
vt 0.42857143 0.79000002
vt 0.42857143 1.00000000
vt 0.57142860 0.79000002
vt 0.42857143 0.79000002
vt 0.57142860 1.00000000
vt 0.71428573 0.79000002
vt 0.57142860 0.79000002
vt 0.71428573 1.00000000
vt 0.85714287 0.79000002
vt 0.71428573 0.79000002
vt 0.85714287 1.00000000
vt 0.00000000 0.79000002
vt 0.85714287 0.79000002
vt 0.28571430 1.00000000
vt 0.14285715 1.00000000
vt 0.71428573 1.00000000
vt 0.71428573 0.00000000
vt 0.85714287 0.00000000
vt 0.14285715 0.00000000
vt 0.85714287 0.00000000
vt 0.00000000 0.00000000
vt 0.14285715 0.00000000
vt 0.14285715 0.00000000
vt 0.28571430 0.00000000
vt 0.71428573 0.00000000
vt 0.28571430 0.00000000
vt 0.42857143 0.00000000
vt 0.57142860 0.00000000
vt 0.00000000 0.00000000
vt 0.00000000 0.18000001
vt 0.14285715 0.18000001
vt 0.14285715 0.00000000
vt 0.14285715 0.18000001
vt 0.28571430 0.18000001
vt 0.28571430 0.18000001
vt 0.42857143 0.18000001
vt 0.42857143 0.00000000
vt 0.42857143 0.00000000
vt 0.42857143 0.18000001
vt 0.57142860 0.18000001
vt 0.57142860 0.00000000
vt 0.57142860 0.18000001
vt 0.71428573 0.18000001
vt 0.71428573 0.18000001
vt 0.85714287 0.18000001
vt 0.85714287 0.00000000
vt 0.85714287 0.18000001
vt 0.00000000 0.18000001
vt 0.00000000 0.00000000
vt 0.00000000 0.18000001
vt 0.00000000 0.60000002
vt 0.14285715 0.60000002
vt 0.14285715 0.18000001
vt 0.14285715 0.60000002
vt 0.28571430 0.60000002
vt 0.28571430 0.18000001
vt 0.28571430 0.60000002
vt 0.42857143 0.60000002
vt 0.42857143 0.18000001
vt 0.42857143 0.60000002
vt 0.57142860 0.60000002
vt 0.57142860 0.60000002
vt 0.71428573 0.60000002
vt 0.71428573 0.18000001
vt 0.71428573 0.60000002
vt 0.85714287 0.60000002
vt 0.85714287 0.18000001
vt 0.85714287 0.60000002
vt 0.00000000 0.60000002
vt 0.00000000 0.18000001
vt 0.00000000 0.60000002
vt 0.00000000 0.79000002
vt 0.14285715 0.79000002
vt 0.14285715 0.60000002
vt 0.14285715 0.79000002
vt 0.28571430 0.79000002
vt 0.28571430 0.60000002
vt 0.28571430 0.79000002
vt 0.42857143 0.79000002
vt 0.42857143 0.79000002
vt 0.57142860 0.79000002
vt 0.57142860 0.60000002
vt 0.57142860 0.79000002
vt 0.71428573 0.79000002
vt 0.71428573 0.60000002
vt 0.71428573 0.79000002
vt 0.85714287 0.79000002
vt 0.85714287 0.60000002
vt 0.85714287 0.60000002
vt 0.85714287 0.79000002
vt 0.00000000 0.79000002
vt 0.00000000 0.79000002
vt 0.00000000 1.00000000
vt 0.14285715 1.00000000
vt 0.14285715 0.79000002
vt 0.14285715 1.00000000
vt 0.28571430 1.00000000
vt 0.28571430 0.79000002
vt 0.28571430 1.00000000
vt 0.42857143 1.00000000
vt 0.42857143 1.00000000
vt 0.57142860 1.00000000
vt 0.57142860 0.79000002
vt 0.57142860 1.00000000
vt 0.71428573 1.00000000
vt 0.71428573 0.79000002
vt 0.71428573 1.00000000
vt 0.85714287 1.00000000
vt 0.85714287 0.79000002
vt 0.85714287 1.00000000
vt 0.00000000 1.00000000
vt 0.00000000 0.79000002
vt 0.14285715 1.00000000
vt 0.00000000 1.00000000
vt 0.85714287 1.00000000
vt 0.85714287 1.00000000
vt 0.71428573 1.00000000
vt 0.14285715 1.00000000
vt 0.71428573 1.00000000
vt 0.57142860 1.00000000
vt 0.28571430 1.00000000
vt 0.57142860 1.00000000
vt 0.42857143 1.00000000
vt 0.28571430 1.00000000
vn 0.00000000 -1.00000000 -0.00000000
vn 0.00000000 -1.00000000 -0.00000000
vn 0.00000000 -1.00000000 -0.00000000
vn 0.56053877 -0.27059892 0.78267008
vn 0.56053877 -0.27059892 0.78267008
vn 0.56053877 -0.27059892 0.78267008
vn 0.02737318 -0.16608424 0.98573154
vn 0.02737318 -0.16608424 0.98573154
vn 0.02737318 -0.16608424 0.98573154
vn -0.48948643 -0.17246732 0.85478532
vn -0.48948643 -0.17246732 0.85478532
vn -0.48948643 -0.17246732 0.85478532
vn -0.92285103 -0.22773774 -0.31061465
vn -0.92285103 -0.22773774 -0.31061465
vn -0.92285103 -0.22773774 -0.31061465
vn -0.26689807 -0.15782963 -0.95071292
vn -0.26689807 -0.15782963 -0.95071292
vn -0.26689807 -0.15782963 -0.95071292
vn 0.20387474 -0.18960944 -0.96045989
vn 0.20387474 -0.18960944 -0.96045989
vn 0.20387474 -0.18960944 -0.96045989
vn 0.81843299 -0.34517410 -0.45937160
vn 0.81843299 -0.34517410 -0.45937160
vn 0.81843299 -0.34517410 -0.45937160
vn 0.58090490 -0.06831544 0.81109965
vn 0.58090490 -0.06831544 0.81109965
vn 0.58090490 -0.06831544 0.81109965
vn 0.02774205 -0.03638742 0.99895263
vn 0.02774205 -0.03638742 0.99895263
vn 0.02774205 -0.03638742 0.99895263
vn -0.49687323 -0.01585358 0.86767823
vn -0.49687323 -0.01585358 0.86767823
vn -0.49687323 -0.01585358 0.86767823
vn -0.94770330 0.01049403 -0.31898007
vn -0.94770330 0.01049403 -0.31898007
vn -0.94770330 0.01049403 -0.31898007
vn -0.27028501 0.00378011 -0.96277297
vn -0.27028501 0.00378011 -0.96277297
vn -0.27028501 0.00378011 -0.96277297
vn 0.20760597 -0.01793483 -0.97804803
vn 0.20760597 -0.01793483 -0.97804803
vn 0.20760597 -0.01793483 -0.97804803
vn 0.86980784 -0.07132064 -0.48820859
vn 0.86980784 -0.07132064 -0.48820859
vn 0.86980784 -0.07132064 -0.48820859
vn 0.58092391 0.06783491 0.81112629
vn 0.58092391 0.06783491 0.81112629
vn 0.58092391 0.06783491 0.81112629
vn 0.02765915 0.08534531 0.99596745
vn 0.02765915 0.08534531 0.99596745
vn 0.02765915 0.08534531 0.99596745
vn -0.49129587 0.15023302 0.85793847
vn -0.49129587 0.15023302 0.85793847
vn -0.49129587 0.15023302 0.85793847
vn -0.92515749 0.21706888 -0.31139147
vn -0.92515749 0.21706888 -0.31139147
vn -0.92515749 0.21706888 -0.31139147
vn -0.26900679 0.09721439 -0.95821953
vn -0.26900679 0.09721439 -0.95821953
vn -0.26900679 0.09721439 -0.95821953
vn 0.20733489 0.05413512 -0.97677106
vn 0.20733489 0.05413512 -0.97677106
vn 0.20733489 0.05413512 -0.97677106
vn 0.87051207 0.05894932 -0.48860386
vn 0.87051207 0.05894932 -0.48860386
vn 0.87051207 0.05894932 -0.48860386
vn 0.58137769 0.05518840 0.81175995
vn 0.58137769 0.05518840 0.81175995
vn 0.58137769 0.05518840 0.81175995
vn 0.02761156 0.10331793 0.99426508
vn 0.02761156 0.10331793 0.99426508
vn 0.02761156 0.10331793 0.99426508
vn -0.48392320 0.22734575 0.84506351
vn -0.48392320 0.22734575 0.84506351
vn -0.48392320 0.22734575 0.84506351
vn -0.88213938 0.36561355 -0.29691228
vn -0.88213938 0.36561355 -0.29691228
vn -0.88213938 0.36561355 -0.29691228
vn -0.26569855 0.18347676 -0.94643563
vn -0.26569855 0.18347676 -0.94643563
vn -0.26569855 0.18347676 -0.94643563
vn 0.20665075 0.09745776 -0.97354895
vn 0.20665075 0.09745776 -0.97354895
vn 0.20665075 0.09745776 -0.97354895
vn 0.87040192 0.06104822 -0.48854235
vn 0.87040192 0.06104822 -0.48854235
vn 0.87040192 0.06104822 -0.48854235
vn 0.00000000 0.99999994 -0.00000000
vn 0.00000000 0.99999994 -0.00000000
vn 0.00000000 0.99999994 -0.00000000
vn 0.00002157 -1.00000000 -0.00000000
vn 0.00002157 -1.00000000 -0.00000000
vn 0.00002157 -1.00000000 -0.00000000
vn 0.00000000 -1.00000000 -0.00000000
vn 0.00000000 -1.00000000 -0.00000000
vn 0.00000000 -1.00000000 -0.00000000
vn -0.00003459 -1.00000000 -0.00000000
vn -0.00003459 -1.00000000 -0.00000000
vn -0.00003459 -1.00000000 -0.00000000
vn 0.00000000 -1.00000000 -0.00000000
vn 0.00000000 -1.00000000 -0.00000000
vn 0.00000000 -1.00000000 -0.00000000
vn 0.56054223 -0.27059811 0.78266788
vn 0.56054223 -0.27059811 0.78266788
vn 0.56054223 -0.27059811 0.78266788
vn 0.02737492 -0.16608444 0.98573148
vn 0.02737492 -0.16608444 0.98573148
vn 0.02737492 -0.16608444 0.98573148
vn -0.48948941 -0.17246684 0.85478371
vn -0.48948941 -0.17246684 0.85478371
vn -0.48948941 -0.17246684 0.85478371
vn -0.92285109 -0.22773665 -0.31061530
vn -0.92285109 -0.22773665 -0.31061530
vn -0.92285109 -0.22773665 -0.31061530
vn -0.26689947 -0.15782939 -0.95071268
vn -0.26689947 -0.15782939 -0.95071268
vn -0.26689947 -0.15782939 -0.95071268
vn 0.20387270 -0.18960954 -0.96046036
vn 0.20387270 -0.18960954 -0.96046036
vn 0.20387270 -0.18960954 -0.96046036
vn 0.81843239 -0.34517434 -0.45937237
vn 0.81843239 -0.34517434 -0.45937237
vn 0.81843239 -0.34517434 -0.45937237
vn 0.58090490 -0.06831545 0.81109959
vn 0.58090490 -0.06831545 0.81109959
vn 0.58090490 -0.06831545 0.81109959
vn 0.02774202 -0.03638744 0.99895251
vn 0.02774202 -0.03638744 0.99895251
vn 0.02774202 -0.03638744 0.99895251
vn -0.49687347 -0.01585358 0.86767823
vn -0.49687347 -0.01585358 0.86767823
vn -0.49687347 -0.01585358 0.86767823
vn -0.94770324 0.01049403 -0.31898001
vn -0.94770324 0.01049403 -0.31898001
vn -0.94770324 0.01049403 -0.31898001
vn -0.27028504 0.00378009 -0.96277297
vn -0.27028504 0.00378009 -0.96277297
vn -0.27028504 0.00378009 -0.96277297
vn 0.20760600 -0.01793482 -0.97804821
vn 0.20760600 -0.01793482 -0.97804821
vn 0.20760600 -0.01793482 -0.97804821
vn 0.86980802 -0.07132065 -0.48820844
vn 0.86980802 -0.07132065 -0.48820844
vn 0.86980802 -0.07132065 -0.48820844
vn 0.58092386 0.06783486 0.81112635
vn 0.58092386 0.06783486 0.81112635
vn 0.58092386 0.06783486 0.81112635
vn 0.02765911 0.08534529 0.99596739
vn 0.02765911 0.08534529 0.99596739
vn 0.02765911 0.08534529 0.99596739
vn -0.49129584 0.15023297 0.85793847
vn -0.49129584 0.15023297 0.85793847
vn -0.49129584 0.15023297 0.85793847
vn -0.92515749 0.21706878 -0.31139159
vn -0.92515749 0.21706878 -0.31139159
vn -0.92515749 0.21706878 -0.31139159
vn -0.26900670 0.09721439 -0.95821965
vn -0.26900670 0.09721439 -0.95821965
vn -0.26900670 0.09721439 -0.95821965
vn 0.20733488 0.05413515 -0.97677100
vn 0.20733488 0.05413515 -0.97677100
vn 0.20733488 0.05413515 -0.97677100
vn 0.87051225 0.05894930 -0.48860353
vn 0.87051225 0.05894930 -0.48860353
vn 0.87051225 0.05894930 -0.48860353
vn 0.58137548 0.05518825 0.81176156
vn 0.58137548 0.05518825 0.81176156
vn 0.58137548 0.05518825 0.81176156
vn 0.02761621 0.10331826 0.99426484
vn 0.02761621 0.10331826 0.99426484
vn 0.02761621 0.10331826 0.99426484
vn -0.48391712 0.22734642 0.84506673
vn -0.48391712 0.22734642 0.84506673
vn -0.48391712 0.22734642 0.84506673
vn -0.88213950 0.36561471 -0.29691064
vn -0.88213950 0.36561471 -0.29691064
vn -0.88213950 0.36561471 -0.29691064
vn -0.26569811 0.18347788 -0.94643557
vn -0.26569811 0.18347788 -0.94643557
vn -0.26569811 0.18347788 -0.94643557
vn 0.20665018 0.09745801 -0.97354895
vn 0.20665018 0.09745801 -0.97354895
vn 0.20665018 0.09745801 -0.97354895
vn 0.87040383 0.06104830 -0.48853892
vn 0.87040383 0.06104830 -0.48853892
vn 0.87040383 0.06104830 -0.48853892
vn 0.00000000 0.99999994 -0.00000000
vn 0.00000000 0.99999994 -0.00000000
vn 0.00000000 0.99999994 -0.00000000
vn 0.00000000 1.00000000 -0.00000000
vn 0.00000000 1.00000000 -0.00000000
vn 0.00000000 1.00000000 -0.00000000
vn 0.00000000 1.00000000 -0.00000000
vn 0.00000000 1.00000000 -0.00000000
vn 0.00000000 1.00000000 -0.00000000
vn 0.00000000 1.00000000 -0.00000000
vn 0.00000000 1.00000000 -0.00000000
vn 0.00000000 1.00000000 -0.00000000
f 5/1/1 6/2/2 3/3/3
f 1/4/4 9/5/5 2/6/6
f 2/7/7 10/8/8 3/9/9
f 10/10/10 4/11/11 3/12/12
f 4/13/13 12/14/14 5/15/15
f 5/16/16 13/17/17 6/18/18
f 13/19/19 7/20/20 6/21/21
f 14/22/22 1/23/23 7/24/24
f 8/25/25 16/26/26 9/27/27
f 9/28/28 17/29/29 10/30/30
f 10/31/31 18/32/32 11/33/33
f 11/34/34 19/35/35 12/36/36
f 19/37/37 13/38/38 12/39/39
f 20/40/40 14/41/41 13/42/42
f 21/43/43 8/44/44 14/45/45
f 15/46/46 23/47/47 16/48/48
f 16/49/49 24/50/50 17/51/51
f 17/52/52 25/53/53 18/54/54
f 25/55/55 19/56/56 18/57/57
f 26/58/58 20/59/59 19/60/60
f 27/61/61 21/62/62 20/63/63
f 21/64/64 22/65/65 15/66/66
f 22/67/67 30/68/68 23/69/69
f 23/70/70 31/71/71 24/72/72
f 24/73/73 32/74/74 25/75/75
f 32/76/76 26/77/77 25/78/78
f 33/79/79 27/80/80 26/81/81
f 34/82/82 28/83/83 27/84/84
f 35/85/85 22/86/86 28/87/87
f 31/88/88 30/89/89 34/90/90
f 6/91/91 7/92/92 2/93/93
f 7/94/94 1/95/95 2/96/96
f 2/97/97 3/98/98 6/99/99
f 3/100/100 4/101/101 5/102/102
f 1/103/103 8/104/104 9/105/105
f 2/106/106 9/107/107 10/108/108
f 10/109/109 11/110/110 4/111/111
f 4/112/112 11/113/113 12/114/114
f 5/115/115 12/116/116 13/117/117
f 13/118/118 14/119/119 7/120/120
f 14/121/121 8/122/122 1/123/123
f 8/124/124 15/125/125 16/126/126
f 9/127/127 16/128/128 17/129/129
f 10/130/130 17/131/131 18/132/132
f 11/133/133 18/134/134 19/135/135
f 19/136/136 20/137/137 13/138/138
f 20/139/139 21/140/140 14/141/141
f 21/142/142 15/143/143 8/144/144
f 15/145/145 22/146/146 23/147/147
f 16/148/148 23/149/149 24/150/150
f 17/151/151 24/152/152 25/153/153
f 25/154/154 26/155/155 19/156/156
f 26/157/157 27/158/158 20/159/159
f 27/160/160 28/161/161 21/162/162
f 21/163/163 28/164/164 22/165/165
f 22/166/166 29/167/167 30/168/168
f 23/169/169 30/170/170 31/171/171
f 24/172/172 31/173/173 32/174/174
f 32/175/175 33/176/176 26/177/177
f 33/178/178 34/179/179 27/180/180
f 34/181/181 35/182/182 28/183/183
f 35/184/184 29/185/185 22/186/186
f 30/187/187 29/188/188 35/189/189
f 35/190/190 34/191/191 30/192/192
f 34/193/193 33/194/194 31/195/195
f 33/196/196 32/197/197 31/198/198
