<svg xmlns="http://www.w3.org/2000/svg" width="128" height="128" viewBox="0 0 128 128"><defs><linearGradient id="gold" x2="0.7" y2="1"><stop stop-color="#fff0b8"/><stop offset=".45" stop-color="#c6a15e"/><stop offset="1" stop-color="#71552e"/></linearGradient><linearGradient id="leaf" x2="1" y2="1"><stop stop-color="#b4bc73"/><stop offset="1" stop-color="#344b2e"/></linearGradient><linearGradient id="red" x2=".8" y2="1"><stop stop-color="#ea9775"/><stop offset=".5" stop-color="#ad3b3e"/><stop offset="1" stop-color="#541f27"/></linearGradient><linearGradient id="blue" x2="1" y2="1"><stop stop-color="#bdecea"/><stop offset=".5" stop-color="#438eb2"/><stop offset="1" stop-color="#283b78"/></linearGradient><linearGradient id="wood" x2="0" y2="1"><stop stop-color="#caa577"/><stop offset="1" stop-color="#5f3925"/></linearGradient></defs><g stroke="#b69a62" stroke-width="2" stroke-linejoin="round"><path d="M17 33L94 17L115 95L38 114Z" fill="url(#red)"/><path d="M28 41L88 28L103 88L45 102ZM52 54L76 49L89 78L65 88Z" fill="none" stroke="url(#gold)"/><path d="M15 38L8 40M17 48L10 50M20 58L13 60M23 69L16 71M26 79L19 81M29 89L22 91M32 99L25 101" stroke="#c6a15e"/></g></svg>